%TF.GenerationSoftware,KiCad,Pcbnew,9.0.2*%
%TF.CreationDate,2025-12-18T01:49:35-05:00*%
%TF.ProjectId,gpsdo,67707364-6f2e-46b6-9963-61645f706362,rev?*%
%TF.SameCoordinates,Original*%
%TF.FileFunction,Soldermask,Bot*%
%TF.FilePolarity,Negative*%
%FSLAX46Y46*%
G04 Gerber Fmt 4.6, Leading zero omitted, Abs format (unit mm)*
G04 Created by KiCad (PCBNEW 9.0.2) date 2025-12-18 01:49:35*
%MOMM*%
%LPD*%
G01*
G04 APERTURE LIST*
%ADD10C,2.921000*%
%ADD11C,2.540000*%
%ADD12R,1.000000X4.560000*%
%ADD13C,5.600000*%
%ADD14C,1.700000*%
%ADD15C,0.800000*%
%ADD16C,0.650000*%
%ADD17O,1.000000X2.100000*%
%ADD18O,1.000000X1.800000*%
%ADD19C,1.904000*%
G04 APERTURE END LIST*
D10*
%TO.C,J2*%
X132638800Y-82253400D03*
X120548400Y-82253400D03*
D11*
X128343602Y-83153400D03*
X124843599Y-83153400D03*
%TD*%
D12*
%TO.C,J3*%
X185904000Y-79248000D03*
X180364000Y-79248000D03*
%TD*%
D13*
%TO.C,H1*%
X114427000Y-117475000D03*
%TD*%
D14*
%TO.C,U4*%
X182753000Y-96520000D03*
X180213000Y-96520001D03*
X177673000Y-96520000D03*
X175133000Y-96520000D03*
X172593000Y-96520000D03*
X170053000Y-96520000D03*
X167513000Y-96520001D03*
X164973000Y-96520000D03*
X167513000Y-118871999D03*
X170053000Y-118872000D03*
X172593000Y-118872000D03*
X175133000Y-118872000D03*
X177673000Y-118872000D03*
X180213000Y-118871999D03*
X182753000Y-118872000D03*
%TD*%
D15*
%TO.C,BOOT1*%
X114427000Y-104394000D03*
%TD*%
%TO.C,RESET1*%
X114427000Y-94234000D03*
%TD*%
D13*
%TO.C,H4*%
X189738000Y-79883000D03*
%TD*%
%TO.C,H2*%
X114427000Y-79883000D03*
%TD*%
D12*
%TO.C,J4*%
X173201250Y-79261500D03*
X167661250Y-79261500D03*
%TD*%
D16*
%TO.C,J1*%
X146400000Y-81726000D03*
X140620000Y-81726000D03*
D17*
X147830000Y-82226000D03*
D18*
X147830000Y-78046000D03*
D17*
X139190000Y-82226000D03*
D18*
X139190000Y-78046000D03*
%TD*%
D19*
%TO.C,U3*%
X159639000Y-106299000D03*
X159639000Y-103759000D03*
X159639000Y-101219000D03*
X159639000Y-98679000D03*
X159639000Y-96139000D03*
X159639000Y-93599000D03*
X159639000Y-91059000D03*
X159639000Y-88519000D03*
X159639000Y-85979000D03*
X159639000Y-83439000D03*
X118999000Y-106299000D03*
X118999000Y-103759000D03*
X118999000Y-101219000D03*
X118999000Y-98679000D03*
X118999000Y-96139000D03*
X118999000Y-93599000D03*
X118999000Y-91059000D03*
X118999000Y-88519000D03*
X118999000Y-85979000D03*
X126619000Y-118999000D03*
X129159000Y-118999000D03*
X131699000Y-118999000D03*
X134239000Y-118999000D03*
X136779000Y-118999000D03*
X139319000Y-118999000D03*
%TD*%
D13*
%TO.C,H3*%
X189738000Y-117475000D03*
%TD*%
M02*
