M48
; DRILL file {KiCad 9.0.2} date 2025-12-18T01:50:10-0500
; FORMAT={-:-/ absolute / metric / decimal}
; #@! TF.CreationDate,2025-12-18T01:50:10-05:00
; #@! TF.GenerationSoftware,Kicad,Pcbnew,9.0.2
; #@! TF.FileFunction,Plated,1,2,PTH
FMAT,2
METRIC
; #@! TA.AperFunction,Plated,PTH,ViaDrill
T1C0.300
; #@! TA.AperFunction,Plated,PTH,ComponentDrill
T2C0.600
; #@! TA.AperFunction,Plated,PTH,ComponentDrill
T3C1.000
; #@! TA.AperFunction,Plated,PTH,ComponentDrill
T4C1.194
; #@! TA.AperFunction,Plated,PTH,ComponentDrill
T5C2.413
; #@! TA.AperFunction,Plated,PTH,ComponentDrill
T6C3.200
%
G90
G05
T1
X111.76Y-82.55
X111.76Y-85.09
X111.76Y-87.63
X111.76Y-90.17
X111.76Y-92.71
X111.76Y-95.25
X111.76Y-97.79
X111.76Y-100.33
X111.76Y-102.87
X111.76Y-105.41
X111.76Y-107.95
X111.76Y-110.49
X111.76Y-113.03
X112.624Y-96.901
X113.03Y-83.82
X113.03Y-86.36
X113.03Y-88.9
X113.03Y-91.44
X113.03Y-106.68
X113.03Y-109.22
X113.03Y-111.76
X113.03Y-114.3
X114.3Y-90.17
X114.3Y-92.71
X115.57Y-88.9
X115.57Y-114.3
X116.127Y-103.378
X116.205Y-108.204
X116.84Y-82.55
X116.84Y-85.09
X116.84Y-87.63
X116.84Y-115.57
X118.11Y-77.47
X118.11Y-80.01
X118.11Y-82.55
X118.11Y-116.84
X118.11Y-119.38
X118.364Y-108.204
X119.38Y-83.82
X119.38Y-107.95
X119.38Y-110.49
X119.38Y-113.03
X119.38Y-118.11
X120.65Y-77.47
X120.65Y-80.01
X120.65Y-85.09
X120.65Y-87.63
X120.65Y-90.17
X120.65Y-92.71
X120.65Y-95.25
X120.65Y-97.79
X120.65Y-106.68
X120.65Y-109.22
X120.65Y-111.76
X120.65Y-114.3
X120.65Y-119.38
X121.92Y-83.82
X121.92Y-86.36
X121.92Y-88.9
X121.92Y-91.44
X121.92Y-93.98
X121.92Y-96.52
X121.92Y-99.06
X121.92Y-112.268
X121.92Y-112.903
X121.92Y-118.11
X122.555Y-112.268
X122.555Y-112.903
X123.19Y-80.01
X123.19Y-82.55
X123.19Y-85.09
X123.19Y-92.71
X123.19Y-114.3
X123.19Y-119.38
X123.901Y-112.928
X123.927Y-108.052
X124.358Y-113.386
X124.384Y-107.594
X124.46Y-78.74
X124.46Y-81.28
X124.46Y-91.44
X124.46Y-93.98
X124.46Y-118.11
X124.816Y-112.928
X124.841Y-108.052
X125.273Y-113.386
X125.298Y-107.594
X125.73Y-80.01
X125.73Y-92.71
X125.73Y-112.928
X125.73Y-114.3
X125.755Y-108.052
X127.0Y-81.28
X127.0Y-86.36
X127.0Y-88.9
X127.0Y-91.44
X127.0Y-93.98
X127.254Y-108.052
X127.254Y-112.928
X127.711Y-107.594
X127.711Y-113.386
X128.168Y-108.052
X128.168Y-112.928
X128.27Y-77.47
X128.27Y-80.01
X128.27Y-114.3
X128.626Y-107.594
X128.626Y-113.386
X129.083Y-108.052
X129.083Y-112.928
X129.54Y-81.28
X129.54Y-91.44
X129.692Y-111.049
X129.692Y-111.963
X130.15Y-111.506
X130.81Y-80.01
X130.81Y-82.55
X130.81Y-104.267
X130.81Y-114.3
X131.318Y-104.267
X132.08Y-91.44
X132.08Y-113.03
X133.35Y-80.01
X133.35Y-90.17
X133.35Y-92.71
X133.756Y-96.977
X133.756Y-97.892
X133.756Y-99.009
X133.756Y-99.924
X133.756Y-101.041
X133.756Y-101.956
X134.214Y-97.434
X134.214Y-99.466
X134.214Y-101.498
X134.62Y-78.74
X134.62Y-81.28
X134.62Y-83.82
X134.62Y-86.36
X134.62Y-88.9
X134.62Y-91.44
X134.62Y-93.98
X134.62Y-96.52
X134.62Y-104.14
X134.62Y-106.68
X134.62Y-109.22
X135.89Y-77.47
X135.89Y-80.01
X135.89Y-90.17
X135.89Y-95.25
X135.89Y-115.57
X136.246Y-98.552
X136.525Y-96.266
X136.525Y-97.282
X136.55Y-92.304
X136.55Y-94.336
X137.008Y-91.846
X137.008Y-92.761
X137.008Y-93.878
X137.008Y-94.793
X137.16Y-78.74
X137.16Y-83.82
X137.16Y-86.36
X137.16Y-88.9
X137.16Y-114.3
X137.82Y-99.136
X137.82Y-102.768
X137.82Y-107.061
X138.278Y-98.679
X138.278Y-99.593
X138.278Y-102.311
X138.278Y-103.226
X138.278Y-106.629
X138.278Y-107.544
X138.43Y-85.09
X138.43Y-87.63
X138.43Y-90.17
X138.43Y-104.14
X138.43Y-105.41
X138.43Y-113.03
X138.43Y-115.57
X139.09Y-91.846
X139.09Y-92.761
X139.319Y-96.393
X139.349Y-97.184
X139.7Y-83.82
X139.7Y-86.36
X139.7Y-88.9
X139.7Y-111.76
X139.7Y-114.3
X140.31Y-98.577
X140.31Y-99.492
X140.31Y-102.311
X140.31Y-103.226
X140.462Y-106.629
X140.462Y-107.544
X140.97Y-77.47
X140.97Y-87.63
X140.97Y-110.49
X140.97Y-113.03
X140.97Y-115.57
X141.529Y-93.777
X141.986Y-93.32
X142.24Y-105.41
X142.24Y-111.76
X142.24Y-114.3
X142.24Y-119.38
X142.443Y-93.777
X143.51Y-80.01
X143.51Y-110.49
X143.51Y-113.03
X143.51Y-115.57
X143.51Y-118.11
X143.561Y-93.777
X143.637Y-99.187
X144.018Y-93.32
X144.377Y-99.187
X144.399Y-109.22
X144.475Y-93.777
X144.78Y-111.76
X144.78Y-114.3
X144.78Y-119.38
X144.907Y-100.457
X144.907Y-100.965
X144.907Y-101.473
X144.907Y-101.981
X144.907Y-102.489
X144.907Y-102.997
X145.034Y-109.22
X145.177Y-99.187
X145.415Y-100.711
X145.415Y-101.219
X145.415Y-101.727
X145.415Y-102.235
X145.415Y-102.743
X145.593Y-93.777
X145.593Y-95.86
X145.923Y-99.695
X145.923Y-100.457
X145.923Y-100.965
X145.923Y-101.473
X145.923Y-101.981
X145.923Y-102.489
X145.923Y-102.997
X145.948Y-107.594
X145.948Y-109.677
X146.05Y-77.47
X146.05Y-80.01
X146.05Y-93.32
X146.05Y-113.03
X146.05Y-115.57
X146.05Y-118.11
X146.406Y-110.134
X146.431Y-100.711
X146.431Y-101.219
X146.431Y-101.727
X146.431Y-102.235
X146.431Y-102.743
X146.507Y-93.777
X146.507Y-95.86
X146.863Y-107.594
X146.863Y-109.677
X146.939Y-100.457
X146.939Y-100.965
X146.939Y-101.473
X146.939Y-101.981
X146.939Y-102.489
X146.939Y-102.997
X147.32Y-111.76
X147.32Y-114.3
X147.32Y-116.84
X147.32Y-119.38
X147.447Y-100.711
X147.447Y-101.219
X147.447Y-101.727
X147.447Y-102.235
X147.447Y-102.743
X148.031Y-107.594
X148.031Y-109.677
X148.336Y-87.528
X148.387Y-93.777
X148.488Y-110.134
X148.59Y-80.01
X148.59Y-92.71
X148.59Y-113.03
X148.59Y-115.57
X148.59Y-118.11
X148.844Y-93.32
X148.946Y-107.594
X148.946Y-109.677
X149.301Y-93.777
X149.86Y-78.74
X149.86Y-81.28
X149.86Y-93.98
X149.86Y-111.76
X149.86Y-114.3
X149.86Y-116.84
X149.86Y-119.38
X151.13Y-77.47
X151.13Y-80.01
X151.13Y-113.03
X151.13Y-115.57
X151.13Y-118.11
X152.044Y-97.993
X152.044Y-98.908
X152.044Y-102.26
X152.044Y-103.175
X152.4Y-106.68
X152.4Y-109.22
X152.4Y-111.76
X152.4Y-114.3
X152.4Y-116.84
X152.4Y-119.38
X153.67Y-90.17
X153.67Y-92.71
X153.67Y-95.25
X153.67Y-107.95
X153.67Y-110.49
X153.67Y-113.03
X153.67Y-115.57
X153.67Y-118.11
X154.076Y-97.993
X154.076Y-98.908
X154.076Y-102.311
X154.076Y-103.226
X154.534Y-102.768
X154.94Y-91.44
X154.94Y-93.98
X154.94Y-96.52
X154.94Y-106.68
X154.94Y-109.22
X154.94Y-111.76
X154.94Y-114.3
X154.94Y-116.84
X154.94Y-119.38
X156.21Y-100.33
X156.21Y-110.49
X156.21Y-113.03
X156.21Y-115.57
X156.21Y-118.11
X157.48Y-86.36
X157.48Y-88.9
X157.48Y-91.44
X157.48Y-93.98
X157.48Y-96.52
X157.48Y-99.06
X157.48Y-101.6
X157.48Y-111.76
X157.48Y-114.3
X157.48Y-116.84
X157.48Y-119.38
X158.75Y-107.95
X158.75Y-113.03
X158.75Y-115.57
X158.75Y-118.11
X160.02Y-109.22
X160.02Y-114.3
X160.02Y-116.84
X160.02Y-119.38
X161.163Y-87.376
X161.163Y-89.662
X161.29Y-77.47
X161.29Y-85.09
X161.29Y-90.17
X161.29Y-92.71
X161.29Y-95.25
X161.29Y-97.79
X161.29Y-100.33
X161.29Y-107.95
X161.29Y-110.49
X161.29Y-115.57
X161.29Y-118.11
X161.671Y-87.376
X161.671Y-89.662
X162.179Y-87.376
X162.179Y-89.662
X162.56Y-78.74
X162.56Y-83.82
X162.56Y-86.36
X162.56Y-91.44
X162.56Y-93.98
X162.56Y-96.52
X162.56Y-99.06
X162.56Y-101.6
X162.56Y-106.68
X162.56Y-109.22
X162.56Y-111.76
X162.56Y-114.3
X162.56Y-116.84
X162.56Y-119.38
X162.687Y-87.376
X162.687Y-89.662
X163.195Y-87.376
X163.195Y-89.662
X163.703Y-87.376
X163.703Y-89.662
X163.83Y-77.47
X163.83Y-85.09
X163.83Y-90.17
X163.83Y-92.71
X163.83Y-95.25
X163.83Y-105.41
X163.83Y-107.95
X163.83Y-110.49
X163.83Y-115.57
X163.83Y-118.11
X164.211Y-87.376
X164.338Y-89.789
X164.846Y-90.297
X164.973Y-87.503
X165.1Y-78.74
X165.1Y-86.36
X165.1Y-91.44
X165.1Y-93.98
X165.1Y-104.14
X165.1Y-106.68
X165.1Y-109.22
X165.1Y-111.76
X165.1Y-114.3
X165.1Y-116.84
X165.1Y-119.38
X165.227Y-90.678
X165.481Y-87.884
X165.608Y-91.059
X165.862Y-88.265
X165.989Y-91.44
X166.243Y-88.646
X166.37Y-77.47
X166.37Y-80.01
X166.37Y-85.09
X166.37Y-87.63
X166.37Y-91.821
X166.37Y-92.71
X166.37Y-95.25
X166.37Y-105.41
X166.37Y-107.95
X166.37Y-110.49
X166.37Y-115.57
X166.624Y-89.027
X166.751Y-92.202
X167.005Y-89.408
X167.132Y-92.583
X167.386Y-89.789
X167.513Y-92.964
X167.64Y-86.36
X167.64Y-88.9
X167.64Y-93.98
X167.64Y-99.06
X167.64Y-104.14
X167.64Y-106.68
X167.64Y-109.22
X167.64Y-111.76
X167.64Y-114.3
X167.64Y-116.84
X167.767Y-90.17
X167.894Y-93.345
X168.148Y-90.551
X168.275Y-93.726
X168.529Y-90.932
X168.656Y-94.107
X168.91Y-87.63
X168.91Y-90.17
X168.91Y-91.313
X168.91Y-95.25
X168.91Y-97.79
X168.91Y-100.33
X168.91Y-105.41
X168.91Y-107.95
X168.91Y-110.49
X168.91Y-115.57
X169.037Y-94.488
X169.291Y-82.677
X169.291Y-83.185
X169.291Y-83.693
X169.291Y-84.201
X169.291Y-84.709
X169.291Y-85.217
X169.291Y-91.694
X169.418Y-85.852
X169.418Y-94.869
X169.672Y-92.075
X169.799Y-86.36
X170.053Y-92.456
X170.18Y-86.741
X170.18Y-88.9
X170.18Y-91.44
X170.18Y-99.06
X170.18Y-104.14
X170.18Y-109.22
X170.18Y-114.3
X170.18Y-116.84
X170.434Y-92.837
X170.561Y-87.122
X170.815Y-93.218
X170.942Y-87.503
X171.196Y-93.599
X171.323Y-87.884
X171.45Y-90.17
X171.45Y-92.71
X171.45Y-97.79
X171.45Y-100.33
X171.45Y-107.95
X171.45Y-110.49
X171.45Y-115.57
X171.577Y-93.98
X171.704Y-88.265
X171.958Y-94.361
X172.085Y-88.646
X172.212Y-85.725
X172.339Y-94.742
X172.466Y-89.027
X172.593Y-86.106
X172.72Y-85.09
X172.72Y-91.44
X172.72Y-93.98
X172.72Y-95.123
X172.72Y-99.06
X172.72Y-104.14
X172.72Y-106.68
X172.72Y-111.76
X172.72Y-114.3
X172.72Y-116.84
X172.847Y-89.408
X172.974Y-86.487
X173.228Y-89.789
X173.355Y-86.868
X173.609Y-90.297
X173.736Y-87.249
X173.787Y-82.565
X173.99Y-83.82
X173.99Y-86.36
X173.99Y-90.805
X173.99Y-91.313
X173.99Y-91.821
X173.99Y-92.329
X173.99Y-92.837
X173.99Y-93.345
X173.99Y-93.853
X173.99Y-94.361
X173.99Y-94.869
X173.99Y-97.79
X173.99Y-100.33
X173.99Y-105.41
X173.99Y-110.49
X173.99Y-115.57
X174.117Y-87.63
X174.498Y-88.011
X174.879Y-88.392
X175.26Y-77.47
X175.26Y-80.01
X175.26Y-85.09
X175.26Y-87.63
X175.26Y-88.773
X175.26Y-99.06
X175.26Y-101.6
X175.26Y-104.14
X175.26Y-109.22
X175.26Y-111.76
X175.26Y-114.3
X175.26Y-116.84
X175.641Y-89.154
X175.946Y-113.97
X176.149Y-89.662
X176.276Y-90.297
X176.276Y-90.805
X176.276Y-91.313
X176.276Y-91.821
X176.276Y-92.329
X176.276Y-92.837
X176.276Y-93.345
X176.276Y-93.853
X176.276Y-94.361
X176.276Y-94.869
X176.53Y-78.74
X176.53Y-86.36
X176.53Y-88.9
X176.53Y-115.57
X176.86Y-113.97
X177.292Y-90.297
X177.292Y-90.805
X177.292Y-91.313
X177.292Y-91.821
X177.292Y-92.329
X177.292Y-92.837
X177.292Y-93.345
X177.292Y-93.853
X177.292Y-94.361
X177.292Y-94.869
X177.419Y-89.662
X177.8Y-77.47
X177.8Y-87.63
X177.8Y-99.06
X177.8Y-104.14
X177.8Y-106.68
X177.8Y-109.22
X177.8Y-114.3
X177.8Y-116.84
X177.927Y-89.154
X178.308Y-88.773
X178.689Y-88.392
X179.07Y-78.74
X179.07Y-81.28
X179.07Y-86.36
X179.07Y-88.011
X179.07Y-97.79
X179.07Y-100.33
X179.07Y-105.41
X179.07Y-107.95
X179.07Y-110.49
X179.07Y-115.57
X179.451Y-87.63
X179.578Y-90.805
X179.578Y-91.313
X179.578Y-91.821
X179.578Y-92.329
X179.578Y-92.837
X179.578Y-93.345
X179.578Y-93.853
X179.705Y-94.488
X179.832Y-87.249
X179.959Y-90.297
X180.213Y-86.868
X180.213Y-94.996
X180.34Y-89.789
X180.34Y-91.44
X180.34Y-93.98
X180.34Y-99.06
X180.34Y-104.14
X180.34Y-106.68
X180.34Y-109.22
X180.34Y-111.76
X180.34Y-116.84
X180.594Y-86.487
X180.721Y-89.408
X180.975Y-86.106
X181.102Y-89.027
X181.356Y-85.725
X181.483Y-88.646
X181.61Y-90.17
X181.61Y-92.71
X181.61Y-95.25
X181.61Y-97.79
X181.61Y-100.33
X181.61Y-102.87
X181.61Y-105.41
X181.61Y-107.95
X181.61Y-110.49
X181.61Y-113.03
X181.864Y-88.265
X182.245Y-87.884
X182.626Y-87.503
X182.88Y-88.9
X182.88Y-91.44
X182.88Y-93.98
X182.88Y-99.06
X182.88Y-101.6
X182.88Y-104.14
X182.88Y-106.68
X182.88Y-109.22
X182.88Y-111.76
X182.88Y-114.3
X182.88Y-116.84
X183.007Y-87.122
X183.388Y-86.741
X183.769Y-86.36
X184.15Y-85.852
X184.15Y-87.63
X184.15Y-90.17
X184.15Y-92.71
X184.15Y-95.25
X184.15Y-97.79
X184.15Y-100.33
X184.15Y-102.87
X184.15Y-105.41
X184.15Y-107.95
X184.15Y-110.49
X184.15Y-113.03
X184.15Y-115.57
X184.15Y-118.11
X184.277Y-82.169
X184.277Y-82.677
X184.277Y-83.185
X184.277Y-83.693
X184.277Y-84.201
X184.277Y-84.709
X184.277Y-85.217
X185.42Y-83.82
X185.42Y-86.36
X185.42Y-88.9
X185.42Y-91.44
X185.42Y-93.98
X185.42Y-96.52
X185.42Y-99.06
X185.42Y-101.6
X185.42Y-104.14
X185.42Y-106.68
X185.42Y-109.22
X185.42Y-111.76
X185.42Y-114.3
X185.42Y-116.84
X186.69Y-82.55
X186.69Y-85.09
X186.69Y-87.63
X186.69Y-90.17
X186.69Y-92.71
X186.69Y-95.25
X186.69Y-97.79
X186.69Y-100.33
X186.69Y-102.87
X186.69Y-105.41
X186.69Y-110.49
X186.69Y-113.03
X186.69Y-115.57
X186.69Y-118.11
X187.96Y-83.82
X187.96Y-86.36
X187.96Y-111.76
X187.96Y-114.3
X189.23Y-85.09
X189.23Y-113.03
X190.5Y-83.82
X190.5Y-86.36
X190.5Y-111.76
X190.5Y-114.3
X191.77Y-82.55
X191.77Y-85.09
X191.77Y-87.63
X191.77Y-90.17
X191.77Y-92.71
X191.77Y-95.25
X191.77Y-97.79
X191.77Y-100.33
X191.77Y-102.87
X191.77Y-105.41
X191.77Y-110.49
X191.77Y-113.03
T3
X118.999Y-85.979
X118.999Y-88.519
X118.999Y-91.059
X118.999Y-93.599
X118.999Y-96.139
X118.999Y-98.679
X118.999Y-101.219
X118.999Y-103.759
X118.999Y-106.299
X126.619Y-118.999
X129.159Y-118.999
X131.699Y-118.999
X134.239Y-118.999
X136.779Y-118.999
X139.319Y-118.999
X159.639Y-83.439
X159.639Y-85.979
X159.639Y-88.519
X159.639Y-91.059
X159.639Y-93.599
X159.639Y-96.139
X159.639Y-98.679
X159.639Y-101.219
X159.639Y-103.759
X159.639Y-106.299
X164.973Y-96.52
X167.513Y-96.52
X167.513Y-118.872
X170.053Y-96.52
X170.053Y-118.872
X172.593Y-96.52
X172.593Y-118.872
X175.133Y-96.52
X175.133Y-118.872
X177.673Y-96.52
X177.673Y-118.872
X180.213Y-96.52
X180.213Y-118.872
X182.753Y-96.52
X182.753Y-118.872
T4
X124.844Y-83.153
X128.344Y-83.153
T5
X120.548Y-82.253
X132.639Y-82.253
T6
X114.427Y-79.883
X114.427Y-117.475
X189.738Y-79.883
X189.738Y-117.475
T2
X139.19Y-78.446G85X139.19Y-77.646
G05
X139.19Y-82.776G85X139.19Y-81.676
G05
X147.83Y-78.446G85X147.83Y-77.646
G05
X147.83Y-82.776G85X147.83Y-81.676
G05
M30
