%TF.GenerationSoftware,KiCad,Pcbnew,9.0.2*%
%TF.CreationDate,2025-12-18T01:49:35-05:00*%
%TF.ProjectId,gpsdo,67707364-6f2e-46b6-9963-61645f706362,rev?*%
%TF.SameCoordinates,Original*%
%TF.FileFunction,Copper,L2,Bot*%
%TF.FilePolarity,Positive*%
%FSLAX46Y46*%
G04 Gerber Fmt 4.6, Leading zero omitted, Abs format (unit mm)*
G04 Created by KiCad (PCBNEW 9.0.2) date 2025-12-18 01:49:35*
%MOMM*%
%LPD*%
G01*
G04 APERTURE LIST*
%TA.AperFunction,ComponentPad*%
%ADD10C,2.921000*%
%TD*%
%TA.AperFunction,ComponentPad*%
%ADD11C,2.540000*%
%TD*%
%TA.AperFunction,SMDPad,CuDef*%
%ADD12R,1.000000X4.560000*%
%TD*%
%TA.AperFunction,ComponentPad*%
%ADD13C,5.600000*%
%TD*%
%TA.AperFunction,ComponentPad*%
%ADD14C,1.700000*%
%TD*%
%TA.AperFunction,HeatsinkPad*%
%ADD15O,1.000000X2.100000*%
%TD*%
%TA.AperFunction,HeatsinkPad*%
%ADD16O,1.000000X1.800000*%
%TD*%
%TA.AperFunction,ViaPad*%
%ADD17C,0.600000*%
%TD*%
%TA.AperFunction,ViaPad*%
%ADD18C,0.450000*%
%TD*%
%TA.AperFunction,Conductor*%
%ADD19C,0.200000*%
%TD*%
%TA.AperFunction,Conductor*%
%ADD20C,2.000000*%
%TD*%
G04 APERTURE END LIST*
D10*
%TO.P,J2,*%
%TO.N,*%
X132638800Y-82253400D03*
X120548400Y-82253400D03*
D11*
%TO.P,J2,1,Pin_1*%
%TO.N,GND*%
X128343602Y-83153400D03*
%TO.P,J2,2,Pin_2*%
%TO.N,Net-(D4-A)*%
X124843599Y-83153400D03*
%TD*%
D12*
%TO.P,J3,2,Ext*%
%TO.N,GND*%
X185904000Y-79248000D03*
X180364000Y-79248000D03*
%TD*%
D13*
%TO.P,H1,1,1*%
%TO.N,GND*%
X114427000Y-117475000D03*
%TD*%
D14*
%TO.P,U4,1,GND*%
%TO.N,GND*%
X182753000Y-96520000D03*
%TO.P,U4,2,10MHz_Out*%
%TO.N,OCXO_10MHz*%
X180213000Y-96520001D03*
%TO.P,U4,3,Lock_OK*%
%TO.N,OCXO_LOCK_OK*%
X177673000Y-96520000D03*
%TO.P,U4,4,1PPS_Out*%
%TO.N,OCXO_1PPS_OUT*%
X175133000Y-96520000D03*
%TO.P,U4,5,1PPS_IN*%
%TO.N,GNSS_1PPS*%
X172593000Y-96520000D03*
%TO.P,U4,6,5V_OUT*%
%TO.N,unconnected-(U4-5V_OUT-Pad6)*%
X170053000Y-96520000D03*
%TO.P,U4,7,GND*%
%TO.N,GND*%
X167513000Y-96520001D03*
%TO.P,U4,8,3V3_IN*%
%TO.N,+3.3V*%
X164973000Y-96520000D03*
%TO.P,U4,9,GND*%
%TO.N,GND*%
X167513000Y-118871999D03*
%TO.P,U4,10,ANT_IN*%
%TO.N,unconnected-(U4-ANT_IN-Pad10)*%
X170053000Y-118872000D03*
%TO.P,U4,11,GND*%
%TO.N,GND*%
X172593000Y-118872000D03*
%TO.P,U4,12,NMEA_TXD*%
%TO.N,unconnected-(U4-NMEA_TXD-Pad12)*%
X175133000Y-118872000D03*
%TO.P,U4,13,ENTER_ISP#*%
%TO.N,unconnected-(U4-ENTER_ISP#-Pad13)*%
X177673000Y-118872000D03*
%TO.P,U4,14,SER_IN*%
%TO.N,OCXO_RX*%
X180213000Y-118871999D03*
%TO.P,U4,15,SER_OUT*%
%TO.N,OCXO_TX*%
X182753000Y-118872000D03*
%TD*%
D13*
%TO.P,H4,1,1*%
%TO.N,GND*%
X189738000Y-79883000D03*
%TD*%
%TO.P,H2,1,1*%
%TO.N,GND*%
X114427000Y-79883000D03*
%TD*%
D12*
%TO.P,J4,2,Ext*%
%TO.N,GND*%
X173201250Y-79261500D03*
X167661250Y-79261500D03*
%TD*%
D15*
%TO.P,J1,S1,SHIELD*%
%TO.N,GND*%
X147830000Y-82226000D03*
D16*
X147830000Y-78046000D03*
D15*
X139190000Y-82226000D03*
D16*
X139190000Y-78046000D03*
%TD*%
D14*
%TO.P,U3,1,GND*%
%TO.N,GND*%
X159639000Y-106299000D03*
%TO.P,U3,2,VCC*%
%TO.N,+3.3V*%
X159639000Y-103759000D03*
%TO.P,U3,3,SDA*%
%TO.N,unconnected-(U3-SDA-Pad3)*%
X159639000Y-101219000D03*
%TO.P,U3,4,SCL*%
%TO.N,unconnected-(U3-SCL-Pad4)*%
X159639000Y-98679000D03*
%TO.P,U3,5,~{RESET}*%
%TO.N,unconnected-(U3-~{RESET}-Pad5)*%
X159639000Y-96139000D03*
%TO.P,U3,6,~{SAFEBOOT}*%
%TO.N,unconnected-(U3-~{SAFEBOOT}-Pad6)*%
X159639000Y-93599000D03*
%TO.P,U3,7,EXTINT*%
%TO.N,unconnected-(U3-EXTINT-Pad7)*%
X159639000Y-91059000D03*
%TO.P,U3,8,TIMEPULSE*%
%TO.N,GNSS_1PPS*%
X159639000Y-88519000D03*
%TO.P,U3,9,TIMEPULSE2*%
%TO.N,unconnected-(U3-TIMEPULSE2-Pad9)*%
X159639000Y-85979000D03*
%TO.P,U3,10,GEOFENCE_STAT*%
%TO.N,unconnected-(U3-GEOFENCE_STAT-Pad10)*%
X159639000Y-83439000D03*
%TO.P,U3,11,GND*%
%TO.N,GND*%
X118999000Y-106299000D03*
%TO.P,U3,12,5V*%
%TO.N,unconnected-(U3-5V-Pad12)*%
X118999000Y-103759000D03*
%TO.P,U3,13,VCC*%
%TO.N,+3.3V*%
X118999000Y-101219000D03*
%TO.P,U3,14,TXD2*%
%TO.N,unconnected-(U3-TXD2-Pad14)*%
X118999000Y-98679000D03*
%TO.P,U3,15,RXD2*%
%TO.N,unconnected-(U3-RXD2-Pad15)*%
X118999000Y-96139000D03*
%TO.P,U3,16,~{SPI_CS}*%
%TO.N,unconnected-(U3-~{SPI_CS}-Pad16)*%
X118999000Y-93599000D03*
%TO.P,U3,17,RXD/SPI_MOSI*%
%TO.N,GNSS_RX*%
X118999000Y-91059000D03*
%TO.P,U3,18,TXD/SPI_MISO*%
%TO.N,GNSS_TX*%
X118999000Y-88519000D03*
%TO.P,U3,19,SPI_CLK*%
%TO.N,unconnected-(U3-SPI_CLK-Pad19)*%
X118999000Y-85979000D03*
%TO.P,U3,20,Reserved*%
%TO.N,unconnected-(U3-Reserved-Pad20)*%
X126619000Y-118999000D03*
%TO.P,U3,21,TXD2*%
%TO.N,unconnected-(U3-TXD2-Pad21)*%
X129159000Y-118999000D03*
%TO.P,U3,22,RXD2*%
%TO.N,unconnected-(U3-RXD2-Pad22)*%
X131699000Y-118999000D03*
%TO.P,U3,23,VCC*%
%TO.N,+3.3V*%
X134239000Y-118999000D03*
%TO.P,U3,24,Reserved*%
%TO.N,unconnected-(U3-Reserved-Pad24)*%
X136779000Y-118999000D03*
%TO.P,U3,25,GND*%
%TO.N,GND*%
X139319000Y-118999000D03*
%TD*%
D13*
%TO.P,H3,1,1*%
%TO.N,GND*%
X189738000Y-117475000D03*
%TD*%
D17*
%TO.N,OCXO_LOCK_OK*%
X176860200Y-113969800D03*
%TO.N,OCXO_1PPS_OUT*%
X175945800Y-113969800D03*
D18*
%TO.N,GND*%
X186690000Y-82550000D03*
D17*
X162687000Y-87376000D03*
D18*
X137820400Y-102768400D03*
X157480000Y-86360000D03*
X145415000Y-101727000D03*
X157480000Y-93980000D03*
X116840000Y-87630000D03*
D17*
X183769000Y-86360000D03*
D18*
X153670000Y-110490000D03*
X135890000Y-80010000D03*
X153670000Y-92710000D03*
X185420000Y-101600000D03*
X138277600Y-99593400D03*
X187960000Y-86360000D03*
D17*
X177292000Y-90297000D03*
D18*
X160020000Y-114300000D03*
X182880000Y-99060000D03*
D17*
X176276000Y-90297000D03*
D18*
X170180000Y-114300000D03*
X145923000Y-100457000D03*
X113030000Y-88900000D03*
D17*
X163703000Y-89662000D03*
X180213000Y-86868000D03*
D18*
X185420000Y-109220000D03*
X191770000Y-105410000D03*
X172720000Y-111760000D03*
X120650000Y-90170000D03*
X153670000Y-107950000D03*
X120650000Y-111760000D03*
D17*
X184277000Y-82677000D03*
D18*
X124460000Y-93980000D03*
D17*
X179451000Y-87630000D03*
X176276000Y-94361000D03*
D18*
X139700000Y-111760000D03*
X184150000Y-118110000D03*
X149301200Y-93776800D03*
X191770000Y-90170000D03*
X172720000Y-116840000D03*
X184150000Y-87630000D03*
X145415000Y-102743000D03*
D17*
X180975000Y-86106000D03*
D18*
X120650000Y-80010000D03*
X144907000Y-100965000D03*
X138277600Y-98679000D03*
X180340000Y-116840000D03*
D17*
X167386000Y-89789000D03*
D18*
X186690000Y-92710000D03*
X180340000Y-106680000D03*
D17*
X169672000Y-92075000D03*
D18*
X176530000Y-88900000D03*
X134620000Y-106680000D03*
X153670000Y-113030000D03*
D17*
X181356000Y-85725000D03*
D18*
X138277600Y-102311200D03*
X153670000Y-115570000D03*
X191770000Y-113030000D03*
X173990000Y-83820000D03*
D17*
X178689000Y-88392000D03*
D18*
X121920000Y-118110000D03*
X172720000Y-91440000D03*
X133756400Y-97891600D03*
X134620000Y-88900000D03*
X154940000Y-93980000D03*
X184150000Y-115570000D03*
X154940000Y-91440000D03*
X113030000Y-111760000D03*
X162560000Y-83820000D03*
X127000000Y-81280000D03*
X124358400Y-113385600D03*
X128270000Y-80010000D03*
X120650000Y-77470000D03*
X121920000Y-86360000D03*
X163830000Y-92710000D03*
D17*
X177292000Y-91313000D03*
D18*
X163830000Y-115570000D03*
X177800000Y-99060000D03*
X144780000Y-114300000D03*
X161290000Y-110490000D03*
X148945600Y-109677200D03*
X160020000Y-119380000D03*
X134620000Y-78740000D03*
D17*
X168148000Y-90551000D03*
D18*
X123901200Y-112928400D03*
D17*
X184277000Y-84709000D03*
D18*
X143510000Y-80010000D03*
X138430000Y-90170000D03*
X184150000Y-97790000D03*
X182880000Y-109220000D03*
X140970000Y-115570000D03*
D17*
X164338000Y-89789000D03*
D18*
X146431000Y-102235000D03*
X148590000Y-115570000D03*
D17*
X162687000Y-89662000D03*
D18*
X145592800Y-93776800D03*
D17*
X176276000Y-93853000D03*
X163703000Y-87376000D03*
X182245000Y-87884000D03*
X184277000Y-82169000D03*
D18*
X179070000Y-86360000D03*
X166370000Y-77470000D03*
X176530000Y-78740000D03*
X179070000Y-100330000D03*
X156210000Y-110490000D03*
D17*
X170434000Y-92837000D03*
X172974000Y-86487000D03*
D18*
X181610000Y-92710000D03*
X180340000Y-91440000D03*
X145415000Y-101219000D03*
D17*
X173736000Y-87249000D03*
D18*
X186690000Y-115570000D03*
X144780000Y-119380000D03*
X129082800Y-112928400D03*
X162560000Y-91440000D03*
X137160000Y-78740000D03*
X167640000Y-114300000D03*
X180340000Y-111760000D03*
X113030000Y-91440000D03*
X147320000Y-114300000D03*
X124815600Y-112928400D03*
D17*
X179578000Y-91313000D03*
D18*
X185420000Y-99060000D03*
X148590000Y-92710000D03*
D17*
X184277000Y-85217000D03*
D18*
X166370000Y-107950000D03*
X172720000Y-99060000D03*
X140970000Y-87630000D03*
X129692400Y-111048800D03*
X167640000Y-109220000D03*
X167640000Y-88900000D03*
X120650000Y-114300000D03*
D17*
X131318000Y-104267000D03*
D18*
X148844000Y-93319600D03*
X182880000Y-101600000D03*
D17*
X172212000Y-85725000D03*
D18*
X158750000Y-107950000D03*
X162560000Y-116840000D03*
X162560000Y-78740000D03*
X168910000Y-115570000D03*
X130149600Y-111506000D03*
X175260000Y-109220000D03*
X168910000Y-97790000D03*
X111760000Y-85090000D03*
X172720000Y-104140000D03*
X139700000Y-88900000D03*
X144399000Y-109220000D03*
X181610000Y-90170000D03*
X181610000Y-95250000D03*
D17*
X173609000Y-90297000D03*
D18*
X161290000Y-85090000D03*
X191770000Y-95250000D03*
X166370000Y-87630000D03*
X147447000Y-101727000D03*
X191770000Y-110490000D03*
X185420000Y-96520000D03*
X175260000Y-99060000D03*
X156210000Y-118110000D03*
X146405600Y-110134400D03*
X152400000Y-114300000D03*
X143510000Y-113030000D03*
X111760000Y-107950000D03*
X163830000Y-118110000D03*
X154940000Y-119380000D03*
X170180000Y-88900000D03*
X157480000Y-114300000D03*
X175260000Y-80010000D03*
D17*
X166751000Y-92202000D03*
D18*
X120650000Y-85090000D03*
D17*
X161671000Y-87376000D03*
D18*
X139700000Y-83820000D03*
X143510000Y-118110000D03*
D17*
X163195000Y-89662000D03*
X181864000Y-88265000D03*
D18*
X138277600Y-107543600D03*
X146431000Y-102743000D03*
X175260000Y-87630000D03*
X154533600Y-102768400D03*
X132080000Y-113030000D03*
X153670000Y-90170000D03*
X182880000Y-114300000D03*
X181610000Y-107950000D03*
X156210000Y-115570000D03*
X186690000Y-102870000D03*
X161290000Y-100330000D03*
X146050000Y-80010000D03*
X181610000Y-105410000D03*
X165100000Y-106680000D03*
D17*
X169291000Y-85217000D03*
X184277000Y-84201000D03*
X171958000Y-94361000D03*
X171704000Y-88265000D03*
D18*
X156210000Y-113030000D03*
X179070000Y-105410000D03*
X175260000Y-101600000D03*
X179070000Y-107950000D03*
D17*
X177292000Y-93345000D03*
D18*
X143510000Y-110490000D03*
X146050000Y-77470000D03*
X113030000Y-106680000D03*
X177800000Y-87630000D03*
X146939000Y-101473000D03*
X171450000Y-97790000D03*
X168910000Y-87630000D03*
X133350000Y-92710000D03*
D17*
X166624000Y-89027000D03*
D18*
X175260000Y-114300000D03*
X172720000Y-85090000D03*
X176530000Y-115570000D03*
X146050000Y-115570000D03*
X128625600Y-113385600D03*
X167640000Y-104140000D03*
X154076400Y-98907600D03*
D17*
X172593000Y-86106000D03*
D18*
X171450000Y-107950000D03*
X165100000Y-111760000D03*
X129692400Y-111963200D03*
X171450000Y-110490000D03*
X166370000Y-110490000D03*
X184150000Y-95250000D03*
X177800000Y-106680000D03*
X124460000Y-78740000D03*
X137160000Y-114300000D03*
X185420000Y-114300000D03*
D17*
X180594000Y-86487000D03*
D18*
X147447000Y-100711000D03*
X154940000Y-109220000D03*
X145923000Y-101981000D03*
X111760000Y-113030000D03*
X124460000Y-91440000D03*
D17*
X176276000Y-93345000D03*
X173355000Y-86868000D03*
D18*
X123190000Y-85090000D03*
X147447000Y-101219000D03*
X180340000Y-104140000D03*
X185420000Y-91440000D03*
X137007600Y-91846400D03*
D17*
X169037000Y-94488000D03*
D18*
X134213600Y-101498400D03*
D17*
X179578000Y-92329000D03*
X177292000Y-90805000D03*
D18*
X186690000Y-113030000D03*
D17*
X169291000Y-82677000D03*
X168910000Y-91313000D03*
D18*
X180340000Y-99060000D03*
X113030000Y-86360000D03*
X120650000Y-87630000D03*
D17*
X165989000Y-91440000D03*
X167513000Y-92964000D03*
D18*
X127000000Y-91440000D03*
X185420000Y-116840000D03*
D17*
X177292000Y-92837000D03*
X179578000Y-90805000D03*
D18*
X153670000Y-118110000D03*
D17*
X176276000Y-92837000D03*
D18*
X130810000Y-114300000D03*
D17*
X176276000Y-90805000D03*
D18*
X147320000Y-111760000D03*
X182880000Y-116840000D03*
X147447000Y-102743000D03*
X160020000Y-109220000D03*
X111760000Y-87630000D03*
D17*
X168656000Y-94107000D03*
D18*
X125730000Y-112928400D03*
X144907000Y-100457000D03*
X191770000Y-102870000D03*
X157480000Y-111760000D03*
D17*
X179578000Y-93853000D03*
D18*
X121920000Y-96520000D03*
X186690000Y-87630000D03*
X166370000Y-115570000D03*
D17*
X169799000Y-86360000D03*
D18*
X136550400Y-92303600D03*
X162560000Y-114300000D03*
X146939000Y-101981000D03*
X114300000Y-92710000D03*
X121920000Y-91440000D03*
X149860000Y-111760000D03*
X166370000Y-105410000D03*
X153670000Y-95250000D03*
X184150000Y-90170000D03*
X137160000Y-86360000D03*
X167640000Y-86360000D03*
X113030000Y-114300000D03*
X111760000Y-110490000D03*
X184150000Y-92710000D03*
D17*
X179578000Y-91821000D03*
D18*
X124460000Y-118110000D03*
D17*
X171577000Y-93980000D03*
D18*
X191770000Y-82550000D03*
D17*
X168275000Y-93726000D03*
X176276000Y-91313000D03*
D18*
X173990000Y-110490000D03*
X154940000Y-114300000D03*
X145415000Y-102235000D03*
X125272800Y-113385600D03*
X137820400Y-99136200D03*
X173990000Y-100330000D03*
X119380000Y-110490000D03*
X170180000Y-91440000D03*
X143560800Y-93776800D03*
X134213600Y-99466400D03*
X184150000Y-113030000D03*
X161290000Y-95250000D03*
X121920000Y-83820000D03*
X134620000Y-104140000D03*
D17*
X174117000Y-87630000D03*
X165862000Y-88265000D03*
D18*
X139700000Y-86360000D03*
X145923000Y-102489000D03*
X179070000Y-97790000D03*
D17*
X173990000Y-92329000D03*
X177292000Y-92329000D03*
X174879000Y-88392000D03*
X161671000Y-89662000D03*
X184277000Y-83693000D03*
D18*
X177800000Y-77470000D03*
X184150000Y-102870000D03*
X120650000Y-109220000D03*
D17*
X179705000Y-94488000D03*
X184277000Y-83185000D03*
X177419000Y-89662000D03*
D18*
X148590000Y-113030000D03*
X172720000Y-114300000D03*
X173990000Y-115570000D03*
D17*
X170942000Y-87503000D03*
D18*
X151130000Y-80010000D03*
X162560000Y-99060000D03*
X138277600Y-103225600D03*
X179070000Y-78740000D03*
X172720000Y-106680000D03*
X142240000Y-111760000D03*
X137820400Y-107061000D03*
X185420000Y-83820000D03*
X154076400Y-102311200D03*
X167640000Y-99060000D03*
X142240000Y-105410000D03*
X146862800Y-109677200D03*
X134620000Y-81280000D03*
X154940000Y-111760000D03*
X167640000Y-106680000D03*
X173990000Y-97790000D03*
X191770000Y-85090000D03*
D17*
X175260000Y-88773000D03*
D18*
X182880000Y-104140000D03*
X146431000Y-101219000D03*
X172720000Y-93980000D03*
X186690000Y-118110000D03*
X111760000Y-102870000D03*
X163830000Y-107950000D03*
X130810000Y-80010000D03*
X186690000Y-90170000D03*
X119380000Y-107950000D03*
D17*
X179578000Y-93345000D03*
D18*
X170180000Y-99060000D03*
X111760000Y-90170000D03*
X138430000Y-105410000D03*
D17*
X162179000Y-89662000D03*
D18*
X120650000Y-106680000D03*
X138277600Y-106629200D03*
D17*
X179578000Y-92837000D03*
D18*
X147320000Y-119380000D03*
X157480000Y-116840000D03*
X123190000Y-114300000D03*
D17*
X164846000Y-90297000D03*
D18*
X161290000Y-92710000D03*
X129540000Y-91440000D03*
D17*
X177927000Y-89154000D03*
X172339000Y-94742000D03*
D18*
X175260000Y-104140000D03*
X173990000Y-105410000D03*
X165100000Y-91440000D03*
X160020000Y-116840000D03*
X144907000Y-102489000D03*
X145923000Y-102997000D03*
X143510000Y-115570000D03*
X144780000Y-111760000D03*
X120650000Y-95250000D03*
X185420000Y-88900000D03*
X170180000Y-109220000D03*
X116840000Y-82550000D03*
D17*
X164973000Y-87503000D03*
D18*
X168910000Y-107950000D03*
X182880000Y-106680000D03*
X122555000Y-112268000D03*
X133756400Y-99923600D03*
D17*
X183007000Y-87122000D03*
D18*
X154076400Y-103225600D03*
X142443200Y-93776800D03*
X181610000Y-113030000D03*
X128270000Y-77470000D03*
D17*
X169418000Y-85852000D03*
D18*
X161290000Y-115570000D03*
X135890000Y-115570000D03*
X184150000Y-105410000D03*
X185420000Y-104140000D03*
X138430000Y-104140000D03*
D17*
X173990000Y-92837000D03*
D18*
X165100000Y-78740000D03*
D17*
X179959000Y-90297000D03*
D18*
X157480000Y-119380000D03*
X162560000Y-86360000D03*
X175260000Y-116840000D03*
X173990000Y-86360000D03*
X111760000Y-97790000D03*
X144018000Y-93319600D03*
X120650000Y-119380000D03*
D17*
X168529000Y-90932000D03*
X130810000Y-104267000D03*
D18*
X123190000Y-119380000D03*
D17*
X167005000Y-89408000D03*
D18*
X166370000Y-85090000D03*
X146050000Y-93319600D03*
X175260000Y-77470000D03*
X146939000Y-100457000D03*
X190500000Y-83820000D03*
D17*
X167894000Y-93345000D03*
X180721000Y-89408000D03*
D18*
X177800000Y-104140000D03*
X141528800Y-93776800D03*
D17*
X170053000Y-92456000D03*
X179832000Y-87249000D03*
D18*
X175260000Y-85090000D03*
X149860000Y-78740000D03*
X181610000Y-97790000D03*
X157480000Y-99060000D03*
X137160000Y-83820000D03*
X125730000Y-80010000D03*
X134620000Y-109220000D03*
X123190000Y-82550000D03*
X180340000Y-93980000D03*
X149860000Y-93980000D03*
D17*
X177292000Y-94869000D03*
D18*
X146507200Y-93776800D03*
X157480000Y-96520000D03*
X181610000Y-110490000D03*
X138430000Y-115570000D03*
D17*
X183388000Y-86741000D03*
D18*
X182880000Y-93980000D03*
X145948400Y-109677200D03*
X129540000Y-81280000D03*
X190500000Y-114300000D03*
X111760000Y-105410000D03*
X134620000Y-86360000D03*
X168910000Y-105410000D03*
D17*
X182626000Y-87503000D03*
D18*
X138430000Y-85090000D03*
X133350000Y-80010000D03*
X171450000Y-90170000D03*
X111760000Y-100330000D03*
X161290000Y-97790000D03*
X149860000Y-81280000D03*
X181610000Y-100330000D03*
X162560000Y-93980000D03*
X163830000Y-90170000D03*
X133756400Y-101041200D03*
D17*
X177292000Y-91821000D03*
D18*
X121920000Y-99060000D03*
X185420000Y-93980000D03*
X146939000Y-102489000D03*
X168910000Y-90170000D03*
D17*
X180213000Y-94996000D03*
D18*
X115570000Y-88900000D03*
X191770000Y-100330000D03*
D17*
X169418000Y-94869000D03*
D18*
X136550400Y-94335600D03*
X152400000Y-111760000D03*
X140970000Y-110490000D03*
X163830000Y-95250000D03*
X128270000Y-114300000D03*
X162560000Y-111760000D03*
D17*
X169291000Y-84709000D03*
D18*
X167640000Y-111760000D03*
X145923000Y-101473000D03*
X154940000Y-106680000D03*
X176530000Y-86360000D03*
X142240000Y-114300000D03*
D17*
X173990000Y-90805000D03*
D18*
X185420000Y-86360000D03*
D17*
X165608000Y-91059000D03*
D18*
X185420000Y-106680000D03*
X184150000Y-100330000D03*
X162560000Y-119380000D03*
X118110000Y-82550000D03*
X154940000Y-96520000D03*
X127711200Y-113385600D03*
X180340000Y-109220000D03*
X189230000Y-85090000D03*
X140970000Y-77470000D03*
X135890000Y-77470000D03*
X191770000Y-92710000D03*
D17*
X171196000Y-93599000D03*
D18*
X146939000Y-100965000D03*
X166370000Y-80010000D03*
X140970000Y-113030000D03*
X123190000Y-92710000D03*
D17*
X170561000Y-87122000D03*
D18*
X152400000Y-116840000D03*
X142240000Y-119380000D03*
X161290000Y-118110000D03*
X151130000Y-115570000D03*
X134213600Y-97434400D03*
X179070000Y-81280000D03*
X141986000Y-93319600D03*
D17*
X163195000Y-87376000D03*
X184150000Y-85852000D03*
D18*
X119380000Y-83820000D03*
X111760000Y-92710000D03*
D17*
X170815000Y-93218000D03*
D18*
X137007600Y-93878400D03*
X166370000Y-95250000D03*
X162560000Y-109220000D03*
X158750000Y-115570000D03*
X165100000Y-114300000D03*
X191770000Y-97790000D03*
D17*
X165227000Y-90678000D03*
X181483000Y-88646000D03*
D18*
X133756400Y-99009200D03*
X128168400Y-112928400D03*
X186690000Y-110490000D03*
X137160000Y-88900000D03*
X123190000Y-80010000D03*
X134620000Y-96520000D03*
X167640000Y-93980000D03*
X186690000Y-95250000D03*
X121920000Y-93980000D03*
D17*
X167132000Y-92583000D03*
D18*
X186690000Y-85090000D03*
X161290000Y-107950000D03*
X151130000Y-113030000D03*
X122555000Y-112903000D03*
X118110000Y-77470000D03*
X148386800Y-93776800D03*
X118110000Y-80010000D03*
D17*
X175641000Y-89154000D03*
D18*
X168910000Y-95250000D03*
D17*
X173990000Y-91821000D03*
D18*
X113030000Y-109220000D03*
D17*
X165481000Y-87884000D03*
D18*
X162560000Y-106680000D03*
D17*
X171323000Y-87884000D03*
D18*
X145923000Y-100965000D03*
X165100000Y-109220000D03*
X149860000Y-114300000D03*
X151130000Y-77470000D03*
D17*
X161163000Y-87376000D03*
D18*
X116127000Y-103378000D03*
X111760000Y-95250000D03*
X177800000Y-109220000D03*
X185420000Y-111760000D03*
X121920000Y-88900000D03*
X179070000Y-115570000D03*
X146050000Y-113030000D03*
X187960000Y-114300000D03*
X151130000Y-118110000D03*
X136245600Y-98552000D03*
X148031200Y-109677200D03*
D17*
X176276000Y-92329000D03*
X180340000Y-89789000D03*
D18*
X113030000Y-83820000D03*
X165100000Y-116840000D03*
X144907000Y-101473000D03*
D17*
X178308000Y-88773000D03*
D18*
X121920000Y-112268000D03*
X158750000Y-118110000D03*
X144907000Y-101981000D03*
D17*
X173990000Y-93853000D03*
D18*
X120650000Y-92710000D03*
X181610000Y-102870000D03*
X182880000Y-111760000D03*
X133756400Y-101955600D03*
X158750000Y-113030000D03*
X146939000Y-102997000D03*
D17*
X166370000Y-91821000D03*
D18*
X135890000Y-90170000D03*
X118110000Y-119380000D03*
X154940000Y-116840000D03*
X171450000Y-115570000D03*
D17*
X179070000Y-88011000D03*
X173990000Y-93345000D03*
D18*
X118110000Y-116840000D03*
X149860000Y-119380000D03*
D17*
X176276000Y-94869000D03*
X169291000Y-83693000D03*
D18*
X147447000Y-102235000D03*
X134620000Y-93980000D03*
X137007600Y-94792800D03*
X134620000Y-91440000D03*
X152400000Y-109220000D03*
X163830000Y-85090000D03*
X168910000Y-110490000D03*
X119380000Y-113030000D03*
X146431000Y-100711000D03*
X166370000Y-92710000D03*
X182880000Y-88900000D03*
X148590000Y-118110000D03*
X186690000Y-105410000D03*
X186690000Y-97790000D03*
D17*
X170180000Y-86741000D03*
D18*
X120650000Y-97790000D03*
X187960000Y-83820000D03*
D17*
X169291000Y-83185000D03*
D18*
X144907000Y-102997000D03*
D17*
X172085000Y-88646000D03*
D18*
X156210000Y-100330000D03*
D17*
X177292000Y-93853000D03*
X167767000Y-90170000D03*
D18*
X182880000Y-91440000D03*
X187960000Y-111760000D03*
X186690000Y-100330000D03*
X149860000Y-116840000D03*
X134620000Y-83820000D03*
X111760000Y-82550000D03*
X184150000Y-107950000D03*
X170180000Y-116840000D03*
X191770000Y-87630000D03*
X165100000Y-86360000D03*
X127254000Y-112928400D03*
X184150000Y-110490000D03*
X157480000Y-91440000D03*
D17*
X169291000Y-91694000D03*
D18*
X168910000Y-100330000D03*
X162560000Y-101600000D03*
X116840000Y-85090000D03*
X152400000Y-119380000D03*
X163830000Y-105410000D03*
X148488400Y-110134400D03*
X125730000Y-114300000D03*
D17*
X181102000Y-89027000D03*
D18*
X119380000Y-118110000D03*
X163830000Y-110490000D03*
X190500000Y-86360000D03*
D17*
X173228000Y-89789000D03*
D18*
X114300000Y-90170000D03*
X167640000Y-116840000D03*
X175260000Y-111760000D03*
X145034000Y-109220000D03*
X165100000Y-119380000D03*
X171450000Y-92710000D03*
X177800000Y-116840000D03*
X138430000Y-113030000D03*
X190500000Y-111760000D03*
D17*
X176276000Y-91821000D03*
D18*
X147320000Y-116840000D03*
X138430000Y-87630000D03*
X127000000Y-93980000D03*
X137007600Y-92760800D03*
X121920000Y-112903000D03*
D17*
X173990000Y-94869000D03*
D18*
X133756400Y-96977200D03*
D17*
X172847000Y-89408000D03*
D18*
X165100000Y-104140000D03*
X179070000Y-110490000D03*
X124460000Y-81280000D03*
X161290000Y-77470000D03*
D17*
X169291000Y-84201000D03*
D18*
X116840000Y-115570000D03*
X146050000Y-118110000D03*
D17*
X173990000Y-94361000D03*
D18*
X157480000Y-88900000D03*
D17*
X176149000Y-89662000D03*
X164211000Y-87376000D03*
X172466000Y-89027000D03*
X172720000Y-95123000D03*
D18*
X162560000Y-96520000D03*
X189230000Y-113030000D03*
X157480000Y-101600000D03*
D17*
X162179000Y-87376000D03*
D18*
X163830000Y-77470000D03*
X145415000Y-100711000D03*
X139700000Y-114300000D03*
D17*
X177292000Y-94361000D03*
D18*
X132080000Y-91440000D03*
X148590000Y-80010000D03*
X170180000Y-104140000D03*
D17*
X161163000Y-89662000D03*
D18*
X146431000Y-101727000D03*
X130810000Y-82550000D03*
X161290000Y-90170000D03*
X127000000Y-86360000D03*
X127000000Y-88900000D03*
X125730000Y-92710000D03*
X144475200Y-93776800D03*
D17*
X174498000Y-88011000D03*
X173990000Y-91313000D03*
X166243000Y-88646000D03*
D18*
X135890000Y-95250000D03*
X154076400Y-97993200D03*
X165100000Y-93980000D03*
X171450000Y-100330000D03*
X152400000Y-106680000D03*
X133350000Y-90170000D03*
X115570000Y-114300000D03*
%TO.N,+3.3V*%
X152044400Y-103174800D03*
X152044400Y-98907600D03*
X146507200Y-95859600D03*
X140462000Y-106629200D03*
X145592800Y-95859600D03*
X123926600Y-108051600D03*
X128168400Y-108051600D03*
X140309600Y-99491800D03*
X125298200Y-107594400D03*
X124841000Y-108051600D03*
X148336000Y-87528400D03*
X124383800Y-107594400D03*
X129082800Y-108051600D03*
X127711200Y-107594400D03*
X146862800Y-107594400D03*
X139090400Y-91846400D03*
X173786800Y-82565000D03*
X148031200Y-107594400D03*
X125755400Y-108051600D03*
X140462000Y-107543600D03*
X127254000Y-108051600D03*
X152044400Y-102260400D03*
X112623600Y-96901000D03*
X145948400Y-107594400D03*
X152044400Y-97993200D03*
X128625600Y-107594400D03*
X140309600Y-103225600D03*
X148945600Y-107594400D03*
X140309600Y-102311200D03*
X140309600Y-98577400D03*
X139090400Y-92760800D03*
%TO.N,FLASH_SS*%
X118364000Y-108204000D03*
X116205000Y-108204000D03*
%TO.N,FLASH_SD3*%
X139319000Y-96393000D03*
X145923000Y-99695000D03*
%TO.N,FLASH_SD2*%
X144377000Y-99187000D03*
X136525000Y-97282000D03*
%TO.N,FLASH_SCLK*%
X139348500Y-97184500D03*
X145177000Y-99187000D03*
%TO.N,FLASH_SD1*%
X143637000Y-99187000D03*
X136525000Y-96266000D03*
%TO.N,GND*%
X177800000Y-114300000D03*
%TD*%
D19*
%TO.N,OCXO_LOCK_OK*%
X176860200Y-113969800D02*
X176885600Y-113995200D01*
%TO.N,OCXO_1PPS_OUT*%
X175945800Y-113969800D02*
X175869600Y-114046000D01*
X176174400Y-113588800D02*
X176174400Y-113741200D01*
%TO.N,OCXO_LOCK_OK*%
X176631600Y-97561400D02*
X176631600Y-113741200D01*
X177673000Y-96520000D02*
X176631600Y-97561400D01*
%TO.N,OCXO_1PPS_OUT*%
X176174400Y-97561400D02*
X176174400Y-113588800D01*
X175133000Y-96520000D02*
X176174400Y-97561400D01*
X175133000Y-96520000D02*
X174734000Y-96919000D01*
D20*
%TO.N,+3.3V*%
X151892000Y-90068400D02*
X152044400Y-89916000D01*
X149555200Y-90068400D02*
X148336000Y-90068400D01*
X152044400Y-104495600D02*
X152044400Y-100380800D01*
X152044400Y-104495600D02*
X152200400Y-104651600D01*
X134239000Y-112090200D02*
X135864600Y-112090200D01*
X139242800Y-108712000D02*
X140309600Y-107645200D01*
X140360400Y-107594400D02*
X148945600Y-107594400D01*
X139242800Y-108712000D02*
X140360400Y-107594400D01*
X139141200Y-91592400D02*
X139141200Y-92252800D01*
D19*
X168749000Y-82076000D02*
X168082500Y-82742500D01*
D20*
X152044400Y-100380800D02*
X152044400Y-98704400D01*
X151993600Y-95859600D02*
X152044400Y-95910400D01*
X120523000Y-101219000D02*
X118999000Y-101219000D01*
X140309600Y-107645200D02*
X140309600Y-99412500D01*
X159639000Y-103759000D02*
X162890200Y-103759000D01*
X135864600Y-112090200D02*
X139242800Y-108712000D01*
X152200400Y-104651600D02*
X157527200Y-104651600D01*
D19*
X168082500Y-82742500D02*
X167790000Y-82742500D01*
X114935000Y-101219000D02*
X118999000Y-101219000D01*
D20*
X158419800Y-103759000D02*
X159639000Y-103759000D01*
D19*
X148336000Y-87528400D02*
X148336000Y-90068400D01*
D20*
X152044400Y-95910400D02*
X152044400Y-92557600D01*
X148336000Y-90068400D02*
X151892000Y-90068400D01*
X121818400Y-105867200D02*
X121818400Y-102514400D01*
X123799600Y-107848400D02*
X121818400Y-105867200D01*
X148945600Y-107594400D02*
X152044400Y-104495600D01*
X140665200Y-90068400D02*
X139141200Y-91592400D01*
X134239000Y-118999000D02*
X134239000Y-112090200D01*
D19*
X112623600Y-98907600D02*
X114935000Y-101219000D01*
D20*
X134239000Y-112090200D02*
X129997200Y-107848400D01*
X146304000Y-95859600D02*
X151993600Y-95859600D01*
X157527200Y-104651600D02*
X158419800Y-103759000D01*
X152044400Y-89916000D02*
X152044400Y-88133047D01*
X164973000Y-101676200D02*
X164973000Y-96520000D01*
X152044400Y-88133047D02*
X158789447Y-81388000D01*
X165960250Y-82742500D02*
X167790000Y-82742500D01*
D19*
X112623600Y-96901000D02*
X112623600Y-98907600D01*
D20*
X129997200Y-107848400D02*
X123799600Y-107848400D01*
X162890200Y-103759000D02*
X164973000Y-101676200D01*
X152044400Y-100380800D02*
X152044400Y-95910400D01*
D19*
X173786800Y-82565000D02*
X173297800Y-82076000D01*
D20*
X148336000Y-90068400D02*
X140665200Y-90068400D01*
X158789447Y-81388000D02*
X164605750Y-81388000D01*
X121818400Y-102514400D02*
X120523000Y-101219000D01*
X164605750Y-81388000D02*
X165960250Y-82742500D01*
D19*
X173297800Y-82076000D02*
X168749000Y-82076000D01*
D20*
X152044400Y-92557600D02*
X152044400Y-89916000D01*
D19*
%TO.N,FLASH_SS*%
X116205000Y-108204000D02*
X118364000Y-108204000D01*
%TO.N,FLASH_SD3*%
X139709500Y-96783500D02*
X139319000Y-96393000D01*
X145394877Y-98661000D02*
X145218100Y-98661000D01*
X145218100Y-98661000D02*
X143340600Y-96783500D01*
X145692277Y-98958400D02*
X145394877Y-98661000D01*
X145694400Y-98958400D02*
X145692277Y-98958400D01*
X143340600Y-96783500D02*
X139709500Y-96783500D01*
X145923000Y-99695000D02*
X145923000Y-99187000D01*
X145923000Y-99187000D02*
X145694400Y-98958400D01*
%TO.N,FLASH_SD2*%
X139130623Y-97710500D02*
X138829123Y-97409000D01*
X139691377Y-97585500D02*
X139566377Y-97710500D01*
X136652000Y-97409000D02*
X136525000Y-97282000D01*
X139566377Y-97710500D02*
X139130623Y-97710500D01*
X144377000Y-99183123D02*
X142779377Y-97585500D01*
X142779377Y-97585500D02*
X139691377Y-97585500D01*
X144377000Y-99187000D02*
X144377000Y-99183123D01*
X138829123Y-97409000D02*
X136652000Y-97409000D01*
%TO.N,FLASH_SCLK*%
X143174500Y-97184500D02*
X139348500Y-97184500D01*
X145177000Y-99187000D02*
X143174500Y-97184500D01*
%TO.N,FLASH_SD1*%
X135999000Y-97499877D02*
X136610623Y-98111500D01*
X140031623Y-98111500D02*
X140091723Y-98051400D01*
X135999000Y-96792000D02*
X135999000Y-97499877D01*
X142501400Y-98051400D02*
X143637000Y-99187000D01*
X136525000Y-96266000D02*
X135999000Y-96792000D01*
X136610623Y-98111500D02*
X140031623Y-98111500D01*
X140091723Y-98051400D02*
X142501400Y-98051400D01*
%TO.N,OCXO_1PPS_OUT*%
X176174400Y-113741200D02*
X175945800Y-113969800D01*
%TO.N,OCXO_LOCK_OK*%
X176885600Y-113995200D02*
X176936400Y-114046000D01*
X176631600Y-113741200D02*
X176860200Y-113969800D01*
%TD*%
%TA.AperFunction,Conductor*%
%TO.N,GND*%
G36*
X138270511Y-77054407D02*
G01*
X138306475Y-77103907D01*
X138306475Y-77165093D01*
X138303784Y-77172385D01*
X138228429Y-77354309D01*
X138228429Y-77354311D01*
X138190000Y-77547506D01*
X138190000Y-77795999D01*
X138190001Y-77796000D01*
X138890000Y-77796000D01*
X138890000Y-78296000D01*
X138190001Y-78296000D01*
X138190000Y-78296001D01*
X138190000Y-78544493D01*
X138228429Y-78737688D01*
X138228429Y-78737690D01*
X138303808Y-78919673D01*
X138303814Y-78919685D01*
X138413249Y-79083462D01*
X138413252Y-79083466D01*
X138552533Y-79222747D01*
X138552537Y-79222750D01*
X138716314Y-79332185D01*
X138716326Y-79332191D01*
X138898304Y-79407568D01*
X138898315Y-79407571D01*
X138940000Y-79415862D01*
X138940000Y-78612988D01*
X138949940Y-78630205D01*
X139005795Y-78686060D01*
X139074204Y-78725556D01*
X139150504Y-78746000D01*
X139229496Y-78746000D01*
X139305796Y-78725556D01*
X139374205Y-78686060D01*
X139430060Y-78630205D01*
X139440000Y-78612988D01*
X139440000Y-79415861D01*
X139481684Y-79407571D01*
X139481695Y-79407568D01*
X139663673Y-79332191D01*
X139663685Y-79332185D01*
X139827462Y-79222750D01*
X139827466Y-79222747D01*
X139966747Y-79083466D01*
X139966750Y-79083462D01*
X140076185Y-78919685D01*
X140076191Y-78919673D01*
X140151570Y-78737690D01*
X140151570Y-78737688D01*
X140189999Y-78544493D01*
X140190000Y-78544490D01*
X140190000Y-78296001D01*
X140189999Y-78296000D01*
X139490000Y-78296000D01*
X139490000Y-77796000D01*
X140189999Y-77796000D01*
X140190000Y-77795999D01*
X140190000Y-77547509D01*
X140189999Y-77547506D01*
X140151570Y-77354311D01*
X140151570Y-77354309D01*
X140076216Y-77172385D01*
X140071416Y-77111388D01*
X140103385Y-77059219D01*
X140159913Y-77035805D01*
X140167680Y-77035500D01*
X146852320Y-77035500D01*
X146910511Y-77054407D01*
X146946475Y-77103907D01*
X146946475Y-77165093D01*
X146943784Y-77172385D01*
X146868429Y-77354309D01*
X146868429Y-77354311D01*
X146830000Y-77547506D01*
X146830000Y-77795999D01*
X146830001Y-77796000D01*
X147530000Y-77796000D01*
X147530000Y-78296000D01*
X146830001Y-78296000D01*
X146830000Y-78296001D01*
X146830000Y-78544493D01*
X146868429Y-78737688D01*
X146868429Y-78737690D01*
X146943808Y-78919673D01*
X146943814Y-78919685D01*
X147053249Y-79083462D01*
X147053252Y-79083466D01*
X147192533Y-79222747D01*
X147192537Y-79222750D01*
X147356314Y-79332185D01*
X147356326Y-79332191D01*
X147538304Y-79407568D01*
X147538315Y-79407571D01*
X147580000Y-79415862D01*
X147580000Y-78612988D01*
X147589940Y-78630205D01*
X147645795Y-78686060D01*
X147714204Y-78725556D01*
X147790504Y-78746000D01*
X147869496Y-78746000D01*
X147945796Y-78725556D01*
X148014205Y-78686060D01*
X148070060Y-78630205D01*
X148080000Y-78612988D01*
X148080000Y-79415861D01*
X148121684Y-79407571D01*
X148121695Y-79407568D01*
X148303673Y-79332191D01*
X148303685Y-79332185D01*
X148467462Y-79222750D01*
X148467466Y-79222747D01*
X148606747Y-79083466D01*
X148606750Y-79083462D01*
X148716185Y-78919685D01*
X148716191Y-78919673D01*
X148791570Y-78737690D01*
X148791570Y-78737688D01*
X148829999Y-78544493D01*
X148830000Y-78544490D01*
X148830000Y-78296001D01*
X148829999Y-78296000D01*
X148130000Y-78296000D01*
X148130000Y-77796000D01*
X148829999Y-77796000D01*
X148830000Y-77795999D01*
X148830000Y-77547509D01*
X148829999Y-77547506D01*
X148791570Y-77354311D01*
X148791570Y-77354309D01*
X148716216Y-77172385D01*
X148711416Y-77111388D01*
X148743385Y-77059219D01*
X148799913Y-77035805D01*
X148807680Y-77035500D01*
X166562250Y-77035500D01*
X166620441Y-77054407D01*
X166656405Y-77103907D01*
X166661250Y-77134500D01*
X166661250Y-79011499D01*
X166661251Y-79011500D01*
X168661249Y-79011500D01*
X168661250Y-79011499D01*
X168661250Y-77134500D01*
X168680157Y-77076309D01*
X168729657Y-77040345D01*
X168760250Y-77035500D01*
X172102250Y-77035500D01*
X172160441Y-77054407D01*
X172196405Y-77103907D01*
X172201250Y-77134500D01*
X172201250Y-79011499D01*
X172201251Y-79011500D01*
X174201249Y-79011500D01*
X174201250Y-79011499D01*
X174201250Y-77134500D01*
X174220157Y-77076309D01*
X174269657Y-77040345D01*
X174300250Y-77035500D01*
X179265000Y-77035500D01*
X179323191Y-77054407D01*
X179359155Y-77103907D01*
X179364000Y-77134500D01*
X179364000Y-78997999D01*
X179364001Y-78998000D01*
X181363999Y-78998000D01*
X181364000Y-78997999D01*
X181364000Y-77134500D01*
X181382907Y-77076309D01*
X181432407Y-77040345D01*
X181463000Y-77035500D01*
X184805000Y-77035500D01*
X184863191Y-77054407D01*
X184899155Y-77103907D01*
X184904000Y-77134500D01*
X184904000Y-78997999D01*
X184904001Y-78998000D01*
X186903999Y-78998000D01*
X186904000Y-78997999D01*
X186904000Y-77134500D01*
X186922907Y-77076309D01*
X186972407Y-77040345D01*
X187003000Y-77035500D01*
X189698118Y-77035500D01*
X189735227Y-77035500D01*
X189740777Y-77035655D01*
X190051270Y-77053092D01*
X190062297Y-77054334D01*
X190366157Y-77105963D01*
X190376951Y-77108426D01*
X190673133Y-77193754D01*
X190683604Y-77197418D01*
X190968349Y-77315364D01*
X190978351Y-77320181D01*
X191248092Y-77469262D01*
X191257492Y-77475168D01*
X191508852Y-77653517D01*
X191517530Y-77660437D01*
X191747349Y-77865815D01*
X191755184Y-77873650D01*
X191960560Y-78103467D01*
X191967482Y-78112147D01*
X192145831Y-78363507D01*
X192151737Y-78372907D01*
X192300818Y-78642648D01*
X192305635Y-78652650D01*
X192423579Y-78937391D01*
X192427246Y-78947870D01*
X192512569Y-79244033D01*
X192515039Y-79254857D01*
X192566664Y-79558700D01*
X192567907Y-79569732D01*
X192585344Y-79880222D01*
X192585500Y-79885773D01*
X192585500Y-117472226D01*
X192585344Y-117477777D01*
X192567907Y-117788267D01*
X192566664Y-117799299D01*
X192515039Y-118103142D01*
X192512569Y-118113966D01*
X192427246Y-118410129D01*
X192423579Y-118420608D01*
X192305635Y-118705349D01*
X192300818Y-118715351D01*
X192151737Y-118985092D01*
X192145831Y-118994492D01*
X191967482Y-119245852D01*
X191960560Y-119254532D01*
X191755192Y-119484341D01*
X191747341Y-119492192D01*
X191517532Y-119697560D01*
X191508852Y-119704482D01*
X191257492Y-119882831D01*
X191248092Y-119888737D01*
X190978351Y-120037818D01*
X190968349Y-120042635D01*
X190683608Y-120160579D01*
X190673129Y-120164246D01*
X190376966Y-120249569D01*
X190366142Y-120252039D01*
X190062299Y-120303664D01*
X190051267Y-120304907D01*
X189740778Y-120322344D01*
X189735227Y-120322500D01*
X173122574Y-120322500D01*
X173064383Y-120303593D01*
X173028419Y-120254093D01*
X173028419Y-120192907D01*
X173064383Y-120143407D01*
X173091981Y-120129345D01*
X173111215Y-120123095D01*
X173300556Y-120026620D01*
X173354716Y-119987270D01*
X172722408Y-119354962D01*
X172785993Y-119337925D01*
X172900007Y-119272099D01*
X172993099Y-119179007D01*
X173058925Y-119064993D01*
X173075962Y-119001408D01*
X173708270Y-119633716D01*
X173747620Y-119579556D01*
X173844095Y-119390215D01*
X173909759Y-119188121D01*
X173918359Y-119133823D01*
X173946136Y-119079307D01*
X174000653Y-119051529D01*
X174061085Y-119061100D01*
X174104349Y-119104365D01*
X174113238Y-119129996D01*
X174122869Y-119178418D01*
X174202058Y-119369597D01*
X174317020Y-119541651D01*
X174317023Y-119541655D01*
X174463345Y-119687977D01*
X174635402Y-119802941D01*
X174826580Y-119882130D01*
X175029535Y-119922500D01*
X175029536Y-119922500D01*
X175236464Y-119922500D01*
X175236465Y-119922500D01*
X175439420Y-119882130D01*
X175630598Y-119802941D01*
X175802655Y-119687977D01*
X175948977Y-119541655D01*
X176063941Y-119369598D01*
X176143130Y-119178420D01*
X176183500Y-118975465D01*
X176183500Y-118768535D01*
X176183499Y-118768532D01*
X176622500Y-118768532D01*
X176622500Y-118975467D01*
X176662869Y-119178418D01*
X176742058Y-119369597D01*
X176857020Y-119541651D01*
X176857023Y-119541655D01*
X177003345Y-119687977D01*
X177175402Y-119802941D01*
X177366580Y-119882130D01*
X177569535Y-119922500D01*
X177569536Y-119922500D01*
X177776464Y-119922500D01*
X177776465Y-119922500D01*
X177979420Y-119882130D01*
X178170598Y-119802941D01*
X178342655Y-119687977D01*
X178488977Y-119541655D01*
X178603941Y-119369598D01*
X178683130Y-119178420D01*
X178723500Y-118975465D01*
X178723500Y-118768535D01*
X178723499Y-118768531D01*
X179162500Y-118768531D01*
X179162500Y-118975466D01*
X179202869Y-119178417D01*
X179282058Y-119369596D01*
X179380693Y-119517215D01*
X179397023Y-119541654D01*
X179543345Y-119687976D01*
X179715402Y-119802940D01*
X179906580Y-119882129D01*
X180109535Y-119922499D01*
X180109536Y-119922499D01*
X180316464Y-119922499D01*
X180316465Y-119922499D01*
X180519420Y-119882129D01*
X180710598Y-119802940D01*
X180882655Y-119687976D01*
X181028977Y-119541654D01*
X181143941Y-119369597D01*
X181223130Y-119178419D01*
X181263500Y-118975464D01*
X181263500Y-118768534D01*
X181263500Y-118768532D01*
X181702500Y-118768532D01*
X181702500Y-118975467D01*
X181742869Y-119178418D01*
X181822058Y-119369597D01*
X181937020Y-119541651D01*
X181937023Y-119541655D01*
X182083345Y-119687977D01*
X182255402Y-119802941D01*
X182446580Y-119882130D01*
X182649535Y-119922500D01*
X182649536Y-119922500D01*
X182856464Y-119922500D01*
X182856465Y-119922500D01*
X183059420Y-119882130D01*
X183250598Y-119802941D01*
X183422655Y-119687977D01*
X183568977Y-119541655D01*
X183683941Y-119369598D01*
X183763130Y-119178420D01*
X183803500Y-118975465D01*
X183803500Y-118768535D01*
X183763130Y-118565580D01*
X183683941Y-118374402D01*
X183568977Y-118202345D01*
X183422655Y-118056023D01*
X183422651Y-118056020D01*
X183250597Y-117941058D01*
X183059418Y-117861869D01*
X182856467Y-117821500D01*
X182856465Y-117821500D01*
X182649535Y-117821500D01*
X182649532Y-117821500D01*
X182446581Y-117861869D01*
X182255402Y-117941058D01*
X182083348Y-118056020D01*
X181937020Y-118202348D01*
X181822058Y-118374402D01*
X181742869Y-118565581D01*
X181702500Y-118768532D01*
X181263500Y-118768532D01*
X181223130Y-118565579D01*
X181143941Y-118374401D01*
X181028977Y-118202344D01*
X180882655Y-118056022D01*
X180818154Y-118012924D01*
X180710597Y-117941057D01*
X180519418Y-117861868D01*
X180316467Y-117821499D01*
X180316465Y-117821499D01*
X180109535Y-117821499D01*
X180109532Y-117821499D01*
X179906581Y-117861868D01*
X179715402Y-117941057D01*
X179543348Y-118056019D01*
X179397020Y-118202347D01*
X179282058Y-118374401D01*
X179202869Y-118565580D01*
X179162500Y-118768531D01*
X178723499Y-118768531D01*
X178683130Y-118565580D01*
X178603941Y-118374402D01*
X178488977Y-118202345D01*
X178342655Y-118056023D01*
X178342651Y-118056020D01*
X178170597Y-117941058D01*
X177979418Y-117861869D01*
X177776467Y-117821500D01*
X177776465Y-117821500D01*
X177569535Y-117821500D01*
X177569532Y-117821500D01*
X177366581Y-117861869D01*
X177175402Y-117941058D01*
X177003348Y-118056020D01*
X176857020Y-118202348D01*
X176742058Y-118374402D01*
X176662869Y-118565581D01*
X176622500Y-118768532D01*
X176183499Y-118768532D01*
X176143130Y-118565580D01*
X176063941Y-118374402D01*
X175948977Y-118202345D01*
X175802655Y-118056023D01*
X175802651Y-118056020D01*
X175630597Y-117941058D01*
X175439418Y-117861869D01*
X175236467Y-117821500D01*
X175236465Y-117821500D01*
X175029535Y-117821500D01*
X175029532Y-117821500D01*
X174826581Y-117861869D01*
X174635402Y-117941058D01*
X174463348Y-118056020D01*
X174317020Y-118202348D01*
X174202058Y-118374402D01*
X174122869Y-118565581D01*
X174113238Y-118614003D01*
X174083341Y-118667387D01*
X174027776Y-118693003D01*
X173967766Y-118681066D01*
X173926234Y-118636136D01*
X173918359Y-118610176D01*
X173909759Y-118555878D01*
X173844095Y-118353784D01*
X173747623Y-118164446D01*
X173747619Y-118164440D01*
X173708270Y-118110282D01*
X173708269Y-118110282D01*
X173075962Y-118742589D01*
X173058925Y-118679007D01*
X172993099Y-118564993D01*
X172900007Y-118471901D01*
X172785993Y-118406075D01*
X172722407Y-118389037D01*
X173354716Y-117756729D01*
X173354716Y-117756728D01*
X173300559Y-117717380D01*
X173300553Y-117717376D01*
X173111215Y-117620904D01*
X172909121Y-117555240D01*
X172699250Y-117522000D01*
X172486750Y-117522000D01*
X172276878Y-117555240D01*
X172074784Y-117620904D01*
X171885446Y-117717376D01*
X171885442Y-117717378D01*
X171831282Y-117756728D01*
X172463591Y-118389037D01*
X172400007Y-118406075D01*
X172285993Y-118471901D01*
X172192901Y-118564993D01*
X172127075Y-118679007D01*
X172110037Y-118742591D01*
X171477728Y-118110282D01*
X171438378Y-118164442D01*
X171438376Y-118164446D01*
X171341904Y-118353784D01*
X171276241Y-118555877D01*
X171267640Y-118610177D01*
X171239862Y-118664694D01*
X171185345Y-118692470D01*
X171124913Y-118682898D01*
X171081649Y-118639633D01*
X171072762Y-118614006D01*
X171063130Y-118565580D01*
X170983941Y-118374402D01*
X170868977Y-118202345D01*
X170722655Y-118056023D01*
X170722651Y-118056020D01*
X170550597Y-117941058D01*
X170476937Y-117910547D01*
X170359420Y-117861870D01*
X170359418Y-117861869D01*
X170156467Y-117821500D01*
X170156465Y-117821500D01*
X169949535Y-117821500D01*
X169949532Y-117821500D01*
X169746581Y-117861869D01*
X169555402Y-117941058D01*
X169383348Y-118056020D01*
X169237020Y-118202348D01*
X169122058Y-118374402D01*
X169042870Y-118565580D01*
X169033238Y-118614003D01*
X169003341Y-118667386D01*
X168947775Y-118693002D01*
X168887766Y-118681065D01*
X168846233Y-118636135D01*
X168838359Y-118610175D01*
X168829759Y-118555877D01*
X168764095Y-118353783D01*
X168667623Y-118164445D01*
X168667619Y-118164439D01*
X168628270Y-118110281D01*
X168628269Y-118110281D01*
X167995962Y-118742588D01*
X167978925Y-118679006D01*
X167913099Y-118564992D01*
X167820007Y-118471900D01*
X167705993Y-118406074D01*
X167642407Y-118389036D01*
X168274716Y-117756728D01*
X168274716Y-117756727D01*
X168220559Y-117717379D01*
X168220553Y-117717375D01*
X168031215Y-117620903D01*
X167829121Y-117555239D01*
X167619250Y-117521999D01*
X167406750Y-117521999D01*
X167196878Y-117555239D01*
X166994784Y-117620903D01*
X166805446Y-117717375D01*
X166805442Y-117717377D01*
X166751282Y-117756727D01*
X167383591Y-118389036D01*
X167320007Y-118406074D01*
X167205993Y-118471900D01*
X167112901Y-118564992D01*
X167047075Y-118679006D01*
X167030037Y-118742590D01*
X166397728Y-118110281D01*
X166358378Y-118164441D01*
X166358376Y-118164445D01*
X166261904Y-118353783D01*
X166196240Y-118555877D01*
X166163000Y-118765748D01*
X166163000Y-118978249D01*
X166196240Y-119188120D01*
X166261904Y-119390214D01*
X166358376Y-119579552D01*
X166358380Y-119579558D01*
X166397728Y-119633715D01*
X166397729Y-119633715D01*
X167030037Y-119001406D01*
X167047075Y-119064992D01*
X167112901Y-119179006D01*
X167205993Y-119272098D01*
X167320007Y-119337924D01*
X167383589Y-119354961D01*
X166751282Y-119987268D01*
X166751282Y-119987269D01*
X166805440Y-120026618D01*
X166805446Y-120026622D01*
X166994784Y-120123094D01*
X167014022Y-120129345D01*
X167063522Y-120165309D01*
X167082429Y-120223500D01*
X167063522Y-120281691D01*
X167014022Y-120317655D01*
X166983429Y-120322500D01*
X140098805Y-120322500D01*
X140040614Y-120303593D01*
X140004650Y-120254093D01*
X140004650Y-120192907D01*
X140040613Y-120143408D01*
X140080716Y-120114270D01*
X139448408Y-119481962D01*
X139511993Y-119464925D01*
X139626007Y-119399099D01*
X139719099Y-119306007D01*
X139784925Y-119191993D01*
X139801962Y-119128408D01*
X140434270Y-119760716D01*
X140473620Y-119706556D01*
X140570095Y-119517215D01*
X140635759Y-119315121D01*
X140669000Y-119105250D01*
X140669000Y-118892749D01*
X140650722Y-118777349D01*
X140635759Y-118682878D01*
X140570095Y-118480784D01*
X140473623Y-118291446D01*
X140473619Y-118291440D01*
X140434270Y-118237282D01*
X140434269Y-118237282D01*
X139801962Y-118869589D01*
X139784925Y-118806007D01*
X139719099Y-118691993D01*
X139626007Y-118598901D01*
X139511993Y-118533075D01*
X139448407Y-118516037D01*
X140080716Y-117883729D01*
X140068085Y-117874552D01*
X140068083Y-117874549D01*
X140026558Y-117844380D01*
X140026553Y-117844376D01*
X139837215Y-117747904D01*
X139635121Y-117682240D01*
X139425250Y-117649000D01*
X139212750Y-117649000D01*
X139002878Y-117682240D01*
X138800784Y-117747904D01*
X138611446Y-117844376D01*
X138611442Y-117844378D01*
X138557282Y-117883728D01*
X139189591Y-118516037D01*
X139126007Y-118533075D01*
X139011993Y-118598901D01*
X138918901Y-118691993D01*
X138853075Y-118806007D01*
X138836037Y-118869591D01*
X138203728Y-118237282D01*
X138164378Y-118291442D01*
X138164376Y-118291446D01*
X138067904Y-118480784D01*
X138002241Y-118682877D01*
X137993640Y-118737177D01*
X137965862Y-118791694D01*
X137911345Y-118819470D01*
X137850913Y-118809898D01*
X137807649Y-118766633D01*
X137798762Y-118741006D01*
X137789130Y-118692580D01*
X137709941Y-118501402D01*
X137594977Y-118329345D01*
X137448655Y-118183023D01*
X137448651Y-118183020D01*
X137276597Y-118068058D01*
X137202937Y-118037547D01*
X137085420Y-117988870D01*
X137085418Y-117988869D01*
X136882467Y-117948500D01*
X136882465Y-117948500D01*
X136675535Y-117948500D01*
X136675532Y-117948500D01*
X136472581Y-117988869D01*
X136281402Y-118068058D01*
X136109348Y-118183020D01*
X135963020Y-118329348D01*
X135848058Y-118501402D01*
X135768869Y-118692581D01*
X135728500Y-118895532D01*
X135728500Y-119102467D01*
X135768869Y-119305418D01*
X135848058Y-119496597D01*
X135963020Y-119668651D01*
X135963023Y-119668655D01*
X136109345Y-119814977D01*
X136281402Y-119929941D01*
X136472580Y-120009130D01*
X136675535Y-120049500D01*
X136675536Y-120049500D01*
X136882464Y-120049500D01*
X136882465Y-120049500D01*
X137085420Y-120009130D01*
X137276598Y-119929941D01*
X137448655Y-119814977D01*
X137594977Y-119668655D01*
X137709941Y-119496598D01*
X137789130Y-119305420D01*
X137798762Y-119256996D01*
X137828656Y-119203613D01*
X137884221Y-119177996D01*
X137944231Y-119189932D01*
X137985764Y-119234861D01*
X137993640Y-119260822D01*
X138002241Y-119315122D01*
X138067904Y-119517215D01*
X138164376Y-119706553D01*
X138164380Y-119706559D01*
X138203728Y-119760716D01*
X138203729Y-119760716D01*
X138836037Y-119128407D01*
X138853075Y-119191993D01*
X138918901Y-119306007D01*
X139011993Y-119399099D01*
X139126007Y-119464925D01*
X139189589Y-119481962D01*
X138557282Y-120114269D01*
X138557282Y-120114270D01*
X138597386Y-120143408D01*
X138633350Y-120192908D01*
X138633349Y-120254093D01*
X138597385Y-120303593D01*
X138539195Y-120322500D01*
X134675648Y-120322500D01*
X134617457Y-120303593D01*
X134581493Y-120254093D01*
X134581493Y-120192907D01*
X134617457Y-120143407D01*
X134645053Y-120129345D01*
X134699832Y-120111547D01*
X134868199Y-120025760D01*
X135021073Y-119914690D01*
X135154690Y-119781073D01*
X135265760Y-119628199D01*
X135351547Y-119459832D01*
X135409940Y-119280118D01*
X135413602Y-119256998D01*
X135439500Y-119093484D01*
X135439500Y-113389700D01*
X135458407Y-113331509D01*
X135507907Y-113295545D01*
X135538500Y-113290700D01*
X135959084Y-113290700D01*
X136145713Y-113261141D01*
X136145714Y-113261140D01*
X136145718Y-113261140D01*
X136325432Y-113202747D01*
X136493799Y-113116960D01*
X136646674Y-113005890D01*
X140158490Y-109494074D01*
X140828668Y-108823896D01*
X140883185Y-108796119D01*
X140898672Y-108794900D01*
X149040084Y-108794900D01*
X149226713Y-108765341D01*
X149226714Y-108765340D01*
X149226718Y-108765340D01*
X149406432Y-108706947D01*
X149574799Y-108621160D01*
X149727674Y-108510090D01*
X152356668Y-105881096D01*
X152411185Y-105853319D01*
X152426672Y-105852100D01*
X157621684Y-105852100D01*
X157808313Y-105822541D01*
X157808314Y-105822540D01*
X157808318Y-105822540D01*
X157988032Y-105764147D01*
X158156399Y-105678360D01*
X158273234Y-105593474D01*
X158331423Y-105574568D01*
X158389614Y-105593475D01*
X158425578Y-105642975D01*
X158425578Y-105704160D01*
X158419633Y-105718512D01*
X158387905Y-105780781D01*
X158322240Y-105982878D01*
X158289000Y-106192749D01*
X158289000Y-106405250D01*
X158322240Y-106615121D01*
X158387904Y-106817215D01*
X158484376Y-107006553D01*
X158484380Y-107006559D01*
X158523728Y-107060716D01*
X158523729Y-107060716D01*
X159156037Y-106428408D01*
X159173075Y-106491993D01*
X159238901Y-106606007D01*
X159331993Y-106699099D01*
X159446007Y-106764925D01*
X159509589Y-106781962D01*
X158877282Y-107414269D01*
X158877282Y-107414270D01*
X158931440Y-107453619D01*
X158931446Y-107453623D01*
X159120784Y-107550095D01*
X159322878Y-107615759D01*
X159532750Y-107649000D01*
X159745250Y-107649000D01*
X159955121Y-107615759D01*
X160157215Y-107550095D01*
X160346556Y-107453620D01*
X160400716Y-107414270D01*
X159768408Y-106781962D01*
X159831993Y-106764925D01*
X159946007Y-106699099D01*
X160039099Y-106606007D01*
X160104925Y-106491993D01*
X160121962Y-106428408D01*
X160754270Y-107060716D01*
X160793620Y-107006556D01*
X160890095Y-106817215D01*
X160955759Y-106615121D01*
X160989000Y-106405250D01*
X160989000Y-106192749D01*
X160955759Y-105982878D01*
X160890095Y-105780784D01*
X160793623Y-105591446D01*
X160793619Y-105591440D01*
X160754270Y-105537282D01*
X160754269Y-105537282D01*
X160121962Y-106169589D01*
X160104925Y-106106007D01*
X160039099Y-105991993D01*
X159946007Y-105898901D01*
X159831993Y-105833075D01*
X159768408Y-105816037D01*
X160400716Y-105183729D01*
X160400716Y-105183728D01*
X160346554Y-105144376D01*
X160344161Y-105142910D01*
X160343548Y-105142192D01*
X160343407Y-105142090D01*
X160343431Y-105142056D01*
X160304425Y-105096384D01*
X160299626Y-105035387D01*
X160331596Y-104983219D01*
X160388124Y-104959805D01*
X160395890Y-104959500D01*
X162984684Y-104959500D01*
X163171313Y-104929941D01*
X163171314Y-104929940D01*
X163171318Y-104929940D01*
X163351032Y-104871547D01*
X163519399Y-104785760D01*
X163672274Y-104674690D01*
X165888690Y-102458274D01*
X165999760Y-102305399D01*
X166085547Y-102137032D01*
X166143940Y-101957318D01*
X166173500Y-101770681D01*
X166173500Y-101581719D01*
X166173500Y-97276891D01*
X166192407Y-97218700D01*
X166241907Y-97182736D01*
X166303093Y-97182736D01*
X166352593Y-97218700D01*
X166356910Y-97225162D01*
X166358376Y-97227555D01*
X166397728Y-97281717D01*
X166397729Y-97281717D01*
X167030037Y-96649408D01*
X167047075Y-96712994D01*
X167112901Y-96827008D01*
X167205993Y-96920100D01*
X167320007Y-96985926D01*
X167383589Y-97002963D01*
X166751282Y-97635270D01*
X166751282Y-97635271D01*
X166805440Y-97674620D01*
X166805446Y-97674624D01*
X166994784Y-97771096D01*
X167196878Y-97836760D01*
X167406750Y-97870001D01*
X167619250Y-97870001D01*
X167829121Y-97836760D01*
X168031215Y-97771096D01*
X168220556Y-97674621D01*
X168274716Y-97635271D01*
X167642408Y-97002963D01*
X167705993Y-96985926D01*
X167820007Y-96920100D01*
X167913099Y-96827008D01*
X167978925Y-96712994D01*
X167995962Y-96649409D01*
X168628270Y-97281717D01*
X168667620Y-97227557D01*
X168764095Y-97038216D01*
X168829759Y-96836122D01*
X168838359Y-96781824D01*
X168866136Y-96727308D01*
X168920653Y-96699530D01*
X168981085Y-96709101D01*
X169024349Y-96752366D01*
X169033238Y-96777997D01*
X169042869Y-96826418D01*
X169122058Y-97017597D01*
X169236919Y-97189500D01*
X169237023Y-97189655D01*
X169383345Y-97335977D01*
X169555402Y-97450941D01*
X169746580Y-97530130D01*
X169949535Y-97570500D01*
X169949536Y-97570500D01*
X170156464Y-97570500D01*
X170156465Y-97570500D01*
X170359420Y-97530130D01*
X170550598Y-97450941D01*
X170722655Y-97335977D01*
X170868977Y-97189655D01*
X170983941Y-97017598D01*
X171063130Y-96826420D01*
X171103500Y-96623465D01*
X171103500Y-96416535D01*
X171103499Y-96416532D01*
X171542500Y-96416532D01*
X171542500Y-96623467D01*
X171582869Y-96826418D01*
X171662058Y-97017597D01*
X171776919Y-97189500D01*
X171777023Y-97189655D01*
X171923345Y-97335977D01*
X172095402Y-97450941D01*
X172286580Y-97530130D01*
X172489535Y-97570500D01*
X172489536Y-97570500D01*
X172696464Y-97570500D01*
X172696465Y-97570500D01*
X172899420Y-97530130D01*
X173090598Y-97450941D01*
X173262655Y-97335977D01*
X173408977Y-97189655D01*
X173523941Y-97017598D01*
X173603130Y-96826420D01*
X173643500Y-96623465D01*
X173643500Y-96416535D01*
X173643499Y-96416532D01*
X174082500Y-96416532D01*
X174082500Y-96623467D01*
X174122869Y-96826418D01*
X174202058Y-97017597D01*
X174316919Y-97189500D01*
X174317023Y-97189655D01*
X174463345Y-97335977D01*
X174635402Y-97450941D01*
X174826580Y-97530130D01*
X175029535Y-97570500D01*
X175029536Y-97570500D01*
X175236464Y-97570500D01*
X175236465Y-97570500D01*
X175439420Y-97530130D01*
X175575405Y-97473802D01*
X175636399Y-97469002D01*
X175683292Y-97495263D01*
X175844904Y-97656875D01*
X175872681Y-97711392D01*
X175873900Y-97726879D01*
X175873900Y-113394943D01*
X175854993Y-113453134D01*
X175805493Y-113489098D01*
X175800525Y-113490569D01*
X175752613Y-113503408D01*
X175752610Y-113503409D01*
X175638490Y-113569296D01*
X175545296Y-113662490D01*
X175479409Y-113776609D01*
X175479408Y-113776614D01*
X175445300Y-113903908D01*
X175445300Y-114035692D01*
X175475379Y-114147951D01*
X175479409Y-114162990D01*
X175545296Y-114277109D01*
X175545298Y-114277111D01*
X175545300Y-114277114D01*
X175638486Y-114370300D01*
X175638488Y-114370301D01*
X175638490Y-114370303D01*
X175752610Y-114436190D01*
X175752608Y-114436190D01*
X175752612Y-114436191D01*
X175752614Y-114436192D01*
X175879908Y-114470300D01*
X175879910Y-114470300D01*
X176011690Y-114470300D01*
X176011692Y-114470300D01*
X176138986Y-114436192D01*
X176138988Y-114436190D01*
X176138990Y-114436190D01*
X176253109Y-114370303D01*
X176253109Y-114370302D01*
X176253114Y-114370300D01*
X176332998Y-114290415D01*
X176387513Y-114262640D01*
X176447945Y-114272211D01*
X176473000Y-114290414D01*
X176552886Y-114370300D01*
X176552888Y-114370301D01*
X176552890Y-114370303D01*
X176667010Y-114436190D01*
X176667008Y-114436190D01*
X176667012Y-114436191D01*
X176667014Y-114436192D01*
X176794308Y-114470300D01*
X176794310Y-114470300D01*
X176926090Y-114470300D01*
X176926092Y-114470300D01*
X177053386Y-114436192D01*
X177053388Y-114436190D01*
X177053390Y-114436190D01*
X177167509Y-114370303D01*
X177167509Y-114370302D01*
X177167514Y-114370300D01*
X177260700Y-114277114D01*
X177326592Y-114162986D01*
X177360700Y-114035692D01*
X177360700Y-113903908D01*
X177326592Y-113776614D01*
X177326590Y-113776611D01*
X177326590Y-113776609D01*
X177260703Y-113662490D01*
X177260701Y-113662488D01*
X177260700Y-113662486D01*
X177167514Y-113569300D01*
X177167511Y-113569298D01*
X177167509Y-113569296D01*
X177053389Y-113503409D01*
X177053386Y-113503408D01*
X177005475Y-113490569D01*
X176954161Y-113457244D01*
X176932236Y-113400122D01*
X176932100Y-113394943D01*
X176932100Y-97726877D01*
X176951007Y-97668686D01*
X176961090Y-97656880D01*
X177122708Y-97495261D01*
X177177223Y-97467485D01*
X177230591Y-97473801D01*
X177366580Y-97530130D01*
X177569535Y-97570500D01*
X177569536Y-97570500D01*
X177776464Y-97570500D01*
X177776465Y-97570500D01*
X177979420Y-97530130D01*
X178170598Y-97450941D01*
X178342655Y-97335977D01*
X178488977Y-97189655D01*
X178603941Y-97017598D01*
X178683130Y-96826420D01*
X178723500Y-96623465D01*
X178723500Y-96416535D01*
X178723500Y-96416533D01*
X179162500Y-96416533D01*
X179162500Y-96623468D01*
X179202869Y-96826419D01*
X179282058Y-97017598D01*
X179397020Y-97189652D01*
X179397023Y-97189656D01*
X179543345Y-97335978D01*
X179715402Y-97450942D01*
X179906580Y-97530131D01*
X180109535Y-97570501D01*
X180109536Y-97570501D01*
X180316464Y-97570501D01*
X180316465Y-97570501D01*
X180519420Y-97530131D01*
X180710598Y-97450942D01*
X180882655Y-97335978D01*
X181028977Y-97189656D01*
X181143941Y-97017599D01*
X181223130Y-96826421D01*
X181232762Y-96777997D01*
X181262656Y-96724614D01*
X181318221Y-96698997D01*
X181378231Y-96710933D01*
X181419764Y-96755862D01*
X181427640Y-96781823D01*
X181436241Y-96836122D01*
X181501904Y-97038215D01*
X181598376Y-97227553D01*
X181598380Y-97227559D01*
X181637728Y-97281716D01*
X181637729Y-97281716D01*
X182270037Y-96649407D01*
X182287075Y-96712993D01*
X182352901Y-96827007D01*
X182445993Y-96920099D01*
X182560007Y-96985925D01*
X182623589Y-97002962D01*
X181991282Y-97635269D01*
X181991282Y-97635270D01*
X182045440Y-97674619D01*
X182045446Y-97674623D01*
X182234784Y-97771095D01*
X182436878Y-97836759D01*
X182646750Y-97870000D01*
X182859250Y-97870000D01*
X183069121Y-97836759D01*
X183271215Y-97771095D01*
X183460556Y-97674620D01*
X183514716Y-97635270D01*
X182882408Y-97002962D01*
X182945993Y-96985925D01*
X183060007Y-96920099D01*
X183153099Y-96827007D01*
X183218925Y-96712993D01*
X183235962Y-96649408D01*
X183868270Y-97281716D01*
X183907620Y-97227556D01*
X184004095Y-97038215D01*
X184069759Y-96836121D01*
X184103000Y-96626250D01*
X184103000Y-96413749D01*
X184069759Y-96203878D01*
X184004095Y-96001784D01*
X183907623Y-95812446D01*
X183907619Y-95812440D01*
X183868270Y-95758282D01*
X183868269Y-95758282D01*
X183235962Y-96390589D01*
X183218925Y-96327007D01*
X183153099Y-96212993D01*
X183060007Y-96119901D01*
X182945993Y-96054075D01*
X182882407Y-96037037D01*
X183514716Y-95404729D01*
X183514716Y-95404728D01*
X183460559Y-95365380D01*
X183460553Y-95365376D01*
X183271215Y-95268904D01*
X183069121Y-95203240D01*
X182859250Y-95170000D01*
X182646750Y-95170000D01*
X182436878Y-95203240D01*
X182234784Y-95268904D01*
X182045446Y-95365376D01*
X182045442Y-95365378D01*
X181991282Y-95404728D01*
X182623591Y-96037037D01*
X182560007Y-96054075D01*
X182445993Y-96119901D01*
X182352901Y-96212993D01*
X182287075Y-96327007D01*
X182270037Y-96390591D01*
X181637728Y-95758282D01*
X181598378Y-95812442D01*
X181598376Y-95812446D01*
X181501904Y-96001784D01*
X181436241Y-96203877D01*
X181427640Y-96258177D01*
X181399862Y-96312694D01*
X181345345Y-96340470D01*
X181284913Y-96330898D01*
X181241649Y-96287633D01*
X181232762Y-96262005D01*
X181223130Y-96213581D01*
X181143941Y-96022403D01*
X181028977Y-95850346D01*
X180882655Y-95704024D01*
X180882651Y-95704021D01*
X180710597Y-95589059D01*
X180622688Y-95552646D01*
X180519420Y-95509871D01*
X180519418Y-95509870D01*
X180316467Y-95469501D01*
X180316465Y-95469501D01*
X180109535Y-95469501D01*
X180109532Y-95469501D01*
X179906581Y-95509870D01*
X179715402Y-95589059D01*
X179543348Y-95704021D01*
X179397020Y-95850349D01*
X179282058Y-96022403D01*
X179202869Y-96213582D01*
X179162500Y-96416533D01*
X178723500Y-96416533D01*
X178683130Y-96213580D01*
X178603941Y-96022402D01*
X178488977Y-95850345D01*
X178342655Y-95704023D01*
X178342651Y-95704020D01*
X178170597Y-95589058D01*
X177979418Y-95509869D01*
X177776467Y-95469500D01*
X177776465Y-95469500D01*
X177569535Y-95469500D01*
X177569532Y-95469500D01*
X177366581Y-95509869D01*
X177175402Y-95589058D01*
X177003348Y-95704020D01*
X176857020Y-95850348D01*
X176742058Y-96022402D01*
X176662869Y-96213581D01*
X176622500Y-96416532D01*
X176622500Y-96623467D01*
X176662869Y-96826418D01*
X176719196Y-96962402D01*
X176723997Y-97023399D01*
X176697736Y-97070291D01*
X176473004Y-97295024D01*
X176418487Y-97322802D01*
X176358055Y-97313231D01*
X176332996Y-97295025D01*
X176108263Y-97070292D01*
X176080486Y-97015775D01*
X176086802Y-96962405D01*
X176143130Y-96826420D01*
X176183500Y-96623465D01*
X176183500Y-96416535D01*
X176143130Y-96213580D01*
X176063941Y-96022402D01*
X175948977Y-95850345D01*
X175802655Y-95704023D01*
X175802651Y-95704020D01*
X175630597Y-95589058D01*
X175439418Y-95509869D01*
X175236467Y-95469500D01*
X175236465Y-95469500D01*
X175029535Y-95469500D01*
X175029532Y-95469500D01*
X174826581Y-95509869D01*
X174635402Y-95589058D01*
X174463348Y-95704020D01*
X174317020Y-95850348D01*
X174202058Y-96022402D01*
X174122869Y-96213581D01*
X174082500Y-96416532D01*
X173643499Y-96416532D01*
X173603130Y-96213580D01*
X173523941Y-96022402D01*
X173408977Y-95850345D01*
X173262655Y-95704023D01*
X173262651Y-95704020D01*
X173090597Y-95589058D01*
X172899418Y-95509869D01*
X172696467Y-95469500D01*
X172696465Y-95469500D01*
X172489535Y-95469500D01*
X172489532Y-95469500D01*
X172286581Y-95509869D01*
X172095402Y-95589058D01*
X171923348Y-95704020D01*
X171777020Y-95850348D01*
X171662058Y-96022402D01*
X171582869Y-96213581D01*
X171542500Y-96416532D01*
X171103499Y-96416532D01*
X171063130Y-96213580D01*
X170983941Y-96022402D01*
X170868977Y-95850345D01*
X170722655Y-95704023D01*
X170722651Y-95704020D01*
X170550597Y-95589058D01*
X170359418Y-95509869D01*
X170156467Y-95469500D01*
X170156465Y-95469500D01*
X169949535Y-95469500D01*
X169949532Y-95469500D01*
X169746581Y-95509869D01*
X169555402Y-95589058D01*
X169383348Y-95704020D01*
X169237020Y-95850348D01*
X169122058Y-96022402D01*
X169042869Y-96213581D01*
X169033238Y-96262003D01*
X169003341Y-96315387D01*
X168947776Y-96341003D01*
X168887766Y-96329066D01*
X168846234Y-96284136D01*
X168838359Y-96258176D01*
X168829759Y-96203879D01*
X168764095Y-96001785D01*
X168667623Y-95812447D01*
X168667619Y-95812441D01*
X168628270Y-95758283D01*
X168628269Y-95758283D01*
X167995962Y-96390590D01*
X167978925Y-96327008D01*
X167913099Y-96212994D01*
X167820007Y-96119902D01*
X167705993Y-96054076D01*
X167642407Y-96037038D01*
X168274716Y-95404730D01*
X168274716Y-95404729D01*
X168220559Y-95365381D01*
X168220553Y-95365377D01*
X168031215Y-95268905D01*
X167829121Y-95203241D01*
X167619250Y-95170001D01*
X167406750Y-95170001D01*
X167196878Y-95203241D01*
X166994784Y-95268905D01*
X166805446Y-95365377D01*
X166805442Y-95365379D01*
X166751282Y-95404729D01*
X167383591Y-96037038D01*
X167320007Y-96054076D01*
X167205993Y-96119902D01*
X167112901Y-96212994D01*
X167047075Y-96327008D01*
X167030037Y-96390592D01*
X166397728Y-95758283D01*
X166358378Y-95812443D01*
X166358376Y-95812447D01*
X166261903Y-96001788D01*
X166255705Y-96020863D01*
X166219740Y-96070362D01*
X166161548Y-96089268D01*
X166103358Y-96070359D01*
X166073341Y-96035213D01*
X166066029Y-96020863D01*
X165999760Y-95890801D01*
X165888690Y-95737927D01*
X165755073Y-95604310D01*
X165642544Y-95522552D01*
X165642543Y-95522551D01*
X165602203Y-95493243D01*
X165602198Y-95493239D01*
X165433832Y-95407453D01*
X165254113Y-95349058D01*
X165067484Y-95319500D01*
X165067481Y-95319500D01*
X164878519Y-95319500D01*
X164878516Y-95319500D01*
X164691886Y-95349058D01*
X164512167Y-95407453D01*
X164343803Y-95493238D01*
X164190928Y-95604309D01*
X164057309Y-95737928D01*
X163946238Y-95890803D01*
X163860453Y-96059167D01*
X163802058Y-96238886D01*
X163772500Y-96425515D01*
X163772500Y-101137928D01*
X163753593Y-101196119D01*
X163743504Y-101207932D01*
X162421932Y-102529504D01*
X162367415Y-102557281D01*
X162351928Y-102558500D01*
X158325315Y-102558500D01*
X158138686Y-102588058D01*
X157958967Y-102646453D01*
X157790603Y-102732238D01*
X157637727Y-102843309D01*
X157058932Y-103422104D01*
X157004415Y-103449881D01*
X156988928Y-103451100D01*
X153343900Y-103451100D01*
X153285709Y-103432193D01*
X153249745Y-103382693D01*
X153244900Y-103352100D01*
X153244900Y-101115532D01*
X158588500Y-101115532D01*
X158588500Y-101322467D01*
X158628869Y-101525418D01*
X158708058Y-101716597D01*
X158744196Y-101770681D01*
X158823023Y-101888655D01*
X158969345Y-102034977D01*
X159141402Y-102149941D01*
X159332580Y-102229130D01*
X159535535Y-102269500D01*
X159535536Y-102269500D01*
X159742464Y-102269500D01*
X159742465Y-102269500D01*
X159945420Y-102229130D01*
X160136598Y-102149941D01*
X160308655Y-102034977D01*
X160454977Y-101888655D01*
X160569941Y-101716598D01*
X160649130Y-101525420D01*
X160689500Y-101322465D01*
X160689500Y-101115535D01*
X160649130Y-100912580D01*
X160569941Y-100721402D01*
X160454977Y-100549345D01*
X160308655Y-100403023D01*
X160159423Y-100303310D01*
X160136597Y-100288058D01*
X159945418Y-100208869D01*
X159742467Y-100168500D01*
X159742465Y-100168500D01*
X159535535Y-100168500D01*
X159535532Y-100168500D01*
X159332581Y-100208869D01*
X159141402Y-100288058D01*
X158969348Y-100403020D01*
X158823020Y-100549348D01*
X158708058Y-100721402D01*
X158628869Y-100912581D01*
X158588500Y-101115532D01*
X153244900Y-101115532D01*
X153244900Y-98575532D01*
X158588500Y-98575532D01*
X158588500Y-98782467D01*
X158628869Y-98985418D01*
X158708058Y-99176597D01*
X158816027Y-99338185D01*
X158823023Y-99348655D01*
X158969345Y-99494977D01*
X159141402Y-99609941D01*
X159332580Y-99689130D01*
X159535535Y-99729500D01*
X159535536Y-99729500D01*
X159742464Y-99729500D01*
X159742465Y-99729500D01*
X159945420Y-99689130D01*
X160136598Y-99609941D01*
X160308655Y-99494977D01*
X160454977Y-99348655D01*
X160569941Y-99176598D01*
X160649130Y-98985420D01*
X160689500Y-98782465D01*
X160689500Y-98575535D01*
X160649130Y-98372580D01*
X160569941Y-98181402D01*
X160454977Y-98009345D01*
X160308655Y-97863023D01*
X160308651Y-97863020D01*
X160136597Y-97748058D01*
X159945418Y-97668869D01*
X159742467Y-97628500D01*
X159742465Y-97628500D01*
X159535535Y-97628500D01*
X159535532Y-97628500D01*
X159332581Y-97668869D01*
X159141402Y-97748058D01*
X158969348Y-97863020D01*
X158823020Y-98009348D01*
X158708058Y-98181402D01*
X158628869Y-98372581D01*
X158588500Y-98575532D01*
X153244900Y-98575532D01*
X153244900Y-96035532D01*
X158588500Y-96035532D01*
X158588500Y-96242467D01*
X158628869Y-96445418D01*
X158708058Y-96636597D01*
X158810226Y-96789503D01*
X158823023Y-96808655D01*
X158969345Y-96954977D01*
X159141402Y-97069941D01*
X159332580Y-97149130D01*
X159535535Y-97189500D01*
X159535536Y-97189500D01*
X159742464Y-97189500D01*
X159742465Y-97189500D01*
X159945420Y-97149130D01*
X160136598Y-97069941D01*
X160308655Y-96954977D01*
X160454977Y-96808655D01*
X160569941Y-96636598D01*
X160649130Y-96445420D01*
X160689500Y-96242465D01*
X160689500Y-96035535D01*
X160649130Y-95832580D01*
X160569941Y-95641402D01*
X160454977Y-95469345D01*
X160308655Y-95323023D01*
X160308651Y-95323020D01*
X160136597Y-95208058D01*
X159945418Y-95128869D01*
X159742467Y-95088500D01*
X159742465Y-95088500D01*
X159535535Y-95088500D01*
X159535532Y-95088500D01*
X159332581Y-95128869D01*
X159141402Y-95208058D01*
X158969348Y-95323020D01*
X158823020Y-95469348D01*
X158708058Y-95641402D01*
X158628869Y-95832581D01*
X158588500Y-96035532D01*
X153244900Y-96035532D01*
X153244900Y-93495532D01*
X158588500Y-93495532D01*
X158588500Y-93702467D01*
X158628869Y-93905418D01*
X158708058Y-94096597D01*
X158747044Y-94154944D01*
X158823023Y-94268655D01*
X158969345Y-94414977D01*
X159141402Y-94529941D01*
X159332580Y-94609130D01*
X159535535Y-94649500D01*
X159535536Y-94649500D01*
X159742464Y-94649500D01*
X159742465Y-94649500D01*
X159945420Y-94609130D01*
X160136598Y-94529941D01*
X160308655Y-94414977D01*
X160454977Y-94268655D01*
X160569941Y-94096598D01*
X160649130Y-93905420D01*
X160689500Y-93702465D01*
X160689500Y-93495535D01*
X160649130Y-93292580D01*
X160569941Y-93101402D01*
X160454977Y-92929345D01*
X160308655Y-92783023D01*
X160308651Y-92783020D01*
X160136597Y-92668058D01*
X159945418Y-92588869D01*
X159742467Y-92548500D01*
X159742465Y-92548500D01*
X159535535Y-92548500D01*
X159535532Y-92548500D01*
X159332581Y-92588869D01*
X159141402Y-92668058D01*
X158969348Y-92783020D01*
X158823020Y-92929348D01*
X158708058Y-93101402D01*
X158628869Y-93292581D01*
X158588500Y-93495532D01*
X153244900Y-93495532D01*
X153244900Y-90955532D01*
X158588500Y-90955532D01*
X158588500Y-91162467D01*
X158628869Y-91365418D01*
X158708058Y-91556597D01*
X158708059Y-91556598D01*
X158823023Y-91728655D01*
X158969345Y-91874977D01*
X159141402Y-91989941D01*
X159332580Y-92069130D01*
X159535535Y-92109500D01*
X159535536Y-92109500D01*
X159742464Y-92109500D01*
X159742465Y-92109500D01*
X159945420Y-92069130D01*
X160136598Y-91989941D01*
X160308655Y-91874977D01*
X160454977Y-91728655D01*
X160569941Y-91556598D01*
X160649130Y-91365420D01*
X160689500Y-91162465D01*
X160689500Y-90955535D01*
X160649130Y-90752580D01*
X160569941Y-90561402D01*
X160454977Y-90389345D01*
X160308655Y-90243023D01*
X160136598Y-90128059D01*
X160136599Y-90128059D01*
X160136597Y-90128058D01*
X159945418Y-90048869D01*
X159742467Y-90008500D01*
X159742465Y-90008500D01*
X159535535Y-90008500D01*
X159535532Y-90008500D01*
X159332581Y-90048869D01*
X159141402Y-90128058D01*
X158969348Y-90243020D01*
X158823020Y-90389348D01*
X158708058Y-90561402D01*
X158628869Y-90752581D01*
X158588500Y-90955532D01*
X153244900Y-90955532D01*
X153244900Y-88671317D01*
X153263807Y-88613126D01*
X153273890Y-88601319D01*
X153459677Y-88415532D01*
X158588500Y-88415532D01*
X158588500Y-88622467D01*
X158628869Y-88825418D01*
X158708058Y-89016597D01*
X158799005Y-89152710D01*
X158823023Y-89188655D01*
X158969345Y-89334977D01*
X159141402Y-89449941D01*
X159332580Y-89529130D01*
X159535535Y-89569500D01*
X159535536Y-89569500D01*
X159742464Y-89569500D01*
X159742465Y-89569500D01*
X159945420Y-89529130D01*
X160136598Y-89449941D01*
X160308655Y-89334977D01*
X160454977Y-89188655D01*
X160569941Y-89016598D01*
X160649130Y-88825420D01*
X160689500Y-88622465D01*
X160689500Y-88415535D01*
X160649130Y-88212580D01*
X160569941Y-88021402D01*
X160454977Y-87849345D01*
X160308655Y-87703023D01*
X160308651Y-87703020D01*
X160136597Y-87588058D01*
X159945418Y-87508869D01*
X159742467Y-87468500D01*
X159742465Y-87468500D01*
X159535535Y-87468500D01*
X159535532Y-87468500D01*
X159332581Y-87508869D01*
X159141402Y-87588058D01*
X158969348Y-87703020D01*
X158823020Y-87849348D01*
X158708058Y-88021402D01*
X158628869Y-88212581D01*
X158588500Y-88415532D01*
X153459677Y-88415532D01*
X155999676Y-85875532D01*
X158588500Y-85875532D01*
X158588500Y-86082467D01*
X158628869Y-86285418D01*
X158708058Y-86476597D01*
X158708059Y-86476598D01*
X158823023Y-86648655D01*
X158969345Y-86794977D01*
X159141402Y-86909941D01*
X159332580Y-86989130D01*
X159535535Y-87029500D01*
X159535536Y-87029500D01*
X159742464Y-87029500D01*
X159742465Y-87029500D01*
X159945420Y-86989130D01*
X160136598Y-86909941D01*
X160308655Y-86794977D01*
X160454977Y-86648655D01*
X160569941Y-86476598D01*
X160649130Y-86285420D01*
X160689500Y-86082465D01*
X160689500Y-85875535D01*
X160649130Y-85672580D01*
X160569941Y-85481402D01*
X160454977Y-85309345D01*
X160308655Y-85163023D01*
X160136598Y-85048059D01*
X160136599Y-85048059D01*
X160136597Y-85048058D01*
X159945418Y-84968869D01*
X159742467Y-84928500D01*
X159742465Y-84928500D01*
X159535535Y-84928500D01*
X159535532Y-84928500D01*
X159332581Y-84968869D01*
X159141402Y-85048058D01*
X158969348Y-85163020D01*
X158823020Y-85309348D01*
X158708058Y-85481402D01*
X158628869Y-85672581D01*
X158588500Y-85875532D01*
X155999676Y-85875532D01*
X158419496Y-83455712D01*
X158474013Y-83427936D01*
X158534445Y-83437507D01*
X158577710Y-83480772D01*
X158588500Y-83525717D01*
X158588500Y-83542467D01*
X158628869Y-83745418D01*
X158708058Y-83936597D01*
X158823020Y-84108651D01*
X158823023Y-84108655D01*
X158969345Y-84254977D01*
X159141402Y-84369941D01*
X159332580Y-84449130D01*
X159535535Y-84489500D01*
X159535536Y-84489500D01*
X159742464Y-84489500D01*
X159742465Y-84489500D01*
X159945420Y-84449130D01*
X160136598Y-84369941D01*
X160308655Y-84254977D01*
X160454977Y-84108655D01*
X160569941Y-83936598D01*
X160649130Y-83745420D01*
X160689500Y-83542465D01*
X160689500Y-83335535D01*
X160649130Y-83132580D01*
X160569941Y-82941402D01*
X160454977Y-82769345D01*
X160443133Y-82757501D01*
X160415358Y-82702987D01*
X160424929Y-82642555D01*
X160468194Y-82599290D01*
X160513139Y-82588500D01*
X164067478Y-82588500D01*
X164125669Y-82607407D01*
X164137482Y-82617496D01*
X165178176Y-83658190D01*
X165331051Y-83769260D01*
X165499418Y-83855047D01*
X165679132Y-83913440D01*
X165679133Y-83913440D01*
X165679136Y-83913441D01*
X165865765Y-83943000D01*
X165865768Y-83943000D01*
X167884484Y-83943000D01*
X168071113Y-83913441D01*
X168071114Y-83913440D01*
X168071118Y-83913440D01*
X168250832Y-83855047D01*
X168419199Y-83769260D01*
X168572073Y-83658190D01*
X168705690Y-83524573D01*
X168816760Y-83371699D01*
X168902547Y-83203332D01*
X168960940Y-83023618D01*
X168963176Y-83009500D01*
X168990500Y-82836984D01*
X168990500Y-82747517D01*
X168990661Y-82741873D01*
X168990943Y-82736928D01*
X168996000Y-82705000D01*
X168996000Y-82648369D01*
X168996161Y-82645550D01*
X168997040Y-82643290D01*
X168999373Y-82625572D01*
X169009306Y-82588500D01*
X169012731Y-82575714D01*
X169022617Y-82551846D01*
X169048423Y-82507149D01*
X169064146Y-82486658D01*
X169100658Y-82450146D01*
X169121149Y-82434423D01*
X169165846Y-82408617D01*
X169189717Y-82398731D01*
X169239574Y-82385373D01*
X169265195Y-82382000D01*
X169316805Y-82382000D01*
X169342426Y-82385372D01*
X169379875Y-82395407D01*
X169392274Y-82398729D01*
X169416154Y-82408620D01*
X169420748Y-82411273D01*
X169439915Y-82421039D01*
X169439926Y-82421044D01*
X169439930Y-82421046D01*
X169446861Y-82424131D01*
X169458822Y-82429457D01*
X169542407Y-82447224D01*
X169542409Y-82447224D01*
X169603591Y-82447224D01*
X169603593Y-82447224D01*
X169603595Y-82447223D01*
X169603610Y-82447223D01*
X169623445Y-82445436D01*
X169640287Y-82443921D01*
X169724383Y-82407977D01*
X169741684Y-82395407D01*
X169799874Y-82376500D01*
X170891500Y-82376500D01*
X170949691Y-82395407D01*
X170985655Y-82444907D01*
X170990500Y-82475500D01*
X170990500Y-82705000D01*
X170992408Y-82729237D01*
X170993030Y-82737143D01*
X170997883Y-82767793D01*
X170998646Y-82772281D01*
X170998647Y-82772286D01*
X171034591Y-82856382D01*
X171034592Y-82856383D01*
X171070556Y-82905883D01*
X171094797Y-82933628D01*
X171173307Y-82980536D01*
X171231498Y-82999443D01*
X171244198Y-83001454D01*
X171294996Y-83009500D01*
X171295000Y-83009500D01*
X173821978Y-83009500D01*
X173821992Y-83009500D01*
X173838117Y-83008866D01*
X173853604Y-83007647D01*
X173930772Y-82985884D01*
X173985289Y-82958107D01*
X174037306Y-82920314D01*
X174106314Y-82851306D01*
X174117269Y-82839456D01*
X174127358Y-82827643D01*
X174155141Y-82778025D01*
X174155690Y-82777062D01*
X174158447Y-82772287D01*
X174183303Y-82729237D01*
X174212300Y-82621018D01*
X174212300Y-82508982D01*
X174198873Y-82458870D01*
X174195500Y-82433248D01*
X174195500Y-82117021D01*
X174195500Y-82117008D01*
X174194866Y-82100883D01*
X174193647Y-82085396D01*
X174171884Y-82008228D01*
X174144107Y-81953711D01*
X174144105Y-81953708D01*
X174124543Y-81926783D01*
X174105635Y-81868593D01*
X174124542Y-81810402D01*
X174125383Y-81809261D01*
X174144605Y-81783585D01*
X174194846Y-81648881D01*
X174194848Y-81648870D01*
X174201250Y-81589324D01*
X174201250Y-81575824D01*
X179363999Y-81575824D01*
X179370401Y-81635370D01*
X179370403Y-81635381D01*
X179420646Y-81770088D01*
X179420647Y-81770090D01*
X179506807Y-81885184D01*
X179506815Y-81885192D01*
X179621909Y-81971352D01*
X179621911Y-81971353D01*
X179756618Y-82021596D01*
X179756629Y-82021598D01*
X179816176Y-82028000D01*
X180113999Y-82028000D01*
X180114000Y-82027999D01*
X180114000Y-79498001D01*
X180614000Y-79498001D01*
X180614000Y-82027999D01*
X180614001Y-82028000D01*
X180911824Y-82028000D01*
X180971370Y-82021598D01*
X180971381Y-82021596D01*
X181106088Y-81971353D01*
X181106090Y-81971352D01*
X181221184Y-81885192D01*
X181221192Y-81885184D01*
X181307352Y-81770090D01*
X181307353Y-81770088D01*
X181357596Y-81635381D01*
X181357598Y-81635370D01*
X181364000Y-81575824D01*
X184903999Y-81575824D01*
X184910401Y-81635370D01*
X184910403Y-81635381D01*
X184960646Y-81770088D01*
X184960647Y-81770090D01*
X185046807Y-81885184D01*
X185046815Y-81885192D01*
X185161909Y-81971352D01*
X185161911Y-81971353D01*
X185296618Y-82021596D01*
X185296629Y-82021598D01*
X185356176Y-82028000D01*
X185653999Y-82028000D01*
X185654000Y-82027999D01*
X185654000Y-79498001D01*
X186154000Y-79498001D01*
X186154000Y-82027999D01*
X186154001Y-82028000D01*
X186451824Y-82028000D01*
X186511370Y-82021598D01*
X186511381Y-82021596D01*
X186646088Y-81971353D01*
X186646090Y-81971352D01*
X186761184Y-81885192D01*
X186761192Y-81885184D01*
X186847352Y-81770090D01*
X186847353Y-81770088D01*
X186897596Y-81635381D01*
X186897598Y-81635370D01*
X186904000Y-81575824D01*
X186904000Y-79498001D01*
X186903999Y-79498000D01*
X186154001Y-79498000D01*
X186154000Y-79498001D01*
X185654000Y-79498001D01*
X185653999Y-79498000D01*
X184904001Y-79498000D01*
X184904000Y-79498001D01*
X184904000Y-81575824D01*
X184903999Y-81575824D01*
X181364000Y-81575824D01*
X181364000Y-79498001D01*
X181363999Y-79498000D01*
X180614001Y-79498000D01*
X180614000Y-79498001D01*
X180114000Y-79498001D01*
X180113999Y-79498000D01*
X179364001Y-79498000D01*
X179364000Y-79498001D01*
X179364000Y-81575824D01*
X179363999Y-81575824D01*
X174201250Y-81575824D01*
X174201250Y-79511501D01*
X174201249Y-79511500D01*
X172201251Y-79511500D01*
X172201250Y-79511501D01*
X172201250Y-81589323D01*
X172202389Y-81599917D01*
X172189810Y-81659795D01*
X172144438Y-81700845D01*
X172103956Y-81709500D01*
X168758544Y-81709500D01*
X168700353Y-81690593D01*
X168664389Y-81641093D01*
X168660111Y-81599917D01*
X168661250Y-81589323D01*
X168661250Y-79511501D01*
X168661249Y-79511500D01*
X166661251Y-79511500D01*
X166661250Y-79511501D01*
X166661250Y-81443000D01*
X166656405Y-81457911D01*
X166656405Y-81473593D01*
X166647188Y-81486278D01*
X166642343Y-81501191D01*
X166629657Y-81510407D01*
X166620441Y-81523093D01*
X166605528Y-81527938D01*
X166592843Y-81537155D01*
X166562250Y-81542000D01*
X166498522Y-81542000D01*
X166440331Y-81523093D01*
X166428518Y-81513004D01*
X165954047Y-81038533D01*
X165387824Y-80472310D01*
X165234949Y-80361240D01*
X165234948Y-80361239D01*
X165234946Y-80361238D01*
X165066582Y-80275453D01*
X164886863Y-80217058D01*
X164700234Y-80187500D01*
X164700231Y-80187500D01*
X158883929Y-80187500D01*
X158694966Y-80187500D01*
X158694963Y-80187500D01*
X158508333Y-80217058D01*
X158328614Y-80275453D01*
X158160250Y-80361238D01*
X158007375Y-80472309D01*
X151128709Y-87350974D01*
X151119127Y-87364163D01*
X151028545Y-87488838D01*
X151028544Y-87488839D01*
X151017643Y-87503841D01*
X150931853Y-87672214D01*
X150873458Y-87851933D01*
X150843900Y-88038562D01*
X150843900Y-88768900D01*
X150824993Y-88827091D01*
X150775493Y-88863055D01*
X150744900Y-88867900D01*
X148735500Y-88867900D01*
X148677309Y-88848993D01*
X148641345Y-88799493D01*
X148636500Y-88768900D01*
X148636500Y-87870655D01*
X148655407Y-87812464D01*
X148665490Y-87800657D01*
X148676485Y-87789663D01*
X148726507Y-87703023D01*
X148732501Y-87692641D01*
X148732501Y-87692639D01*
X148732503Y-87692637D01*
X148761500Y-87584418D01*
X148761500Y-87472382D01*
X148732503Y-87364163D01*
X148732501Y-87364160D01*
X148732501Y-87364158D01*
X148676486Y-87267139D01*
X148676485Y-87267137D01*
X148597263Y-87187915D01*
X148597260Y-87187913D01*
X148500240Y-87131898D01*
X148500242Y-87131898D01*
X148458251Y-87120647D01*
X148392018Y-87102900D01*
X148279982Y-87102900D01*
X148213748Y-87120647D01*
X148171758Y-87131898D01*
X148074739Y-87187913D01*
X147995513Y-87267139D01*
X147939498Y-87364158D01*
X147939497Y-87364163D01*
X147910500Y-87472382D01*
X147910500Y-87584418D01*
X147911476Y-87588059D01*
X147939498Y-87692641D01*
X147995513Y-87789660D01*
X147995515Y-87789663D01*
X148006505Y-87800653D01*
X148034281Y-87855168D01*
X148035500Y-87870655D01*
X148035500Y-88768900D01*
X148016593Y-88827091D01*
X147967093Y-88863055D01*
X147936500Y-88867900D01*
X140570716Y-88867900D01*
X140384086Y-88897458D01*
X140204367Y-88955853D01*
X140036002Y-89041638D01*
X139883127Y-89152709D01*
X138225505Y-90810331D01*
X138196342Y-90850472D01*
X138196342Y-90850473D01*
X138114438Y-90963203D01*
X138028653Y-91131567D01*
X137970258Y-91311286D01*
X137940700Y-91497915D01*
X137940700Y-92347284D01*
X137970258Y-92533913D01*
X137970260Y-92533918D01*
X138028653Y-92713632D01*
X138114440Y-92881999D01*
X138225510Y-93034873D01*
X138359127Y-93168490D01*
X138512001Y-93279560D01*
X138680368Y-93365347D01*
X138860082Y-93423740D01*
X138860083Y-93423740D01*
X138860086Y-93423741D01*
X139046716Y-93453300D01*
X139046719Y-93453300D01*
X139235684Y-93453300D01*
X139422313Y-93423741D01*
X139422314Y-93423740D01*
X139422318Y-93423740D01*
X139602032Y-93365347D01*
X139770399Y-93279560D01*
X139923273Y-93168490D01*
X140056890Y-93034873D01*
X140167960Y-92881999D01*
X140253747Y-92713632D01*
X140312140Y-92533918D01*
X140312141Y-92533913D01*
X140341700Y-92347284D01*
X140341700Y-92130672D01*
X140360607Y-92072481D01*
X140370696Y-92060668D01*
X141133468Y-91297896D01*
X141187985Y-91270119D01*
X141203472Y-91268900D01*
X148241519Y-91268900D01*
X150744900Y-91268900D01*
X150803091Y-91287807D01*
X150839055Y-91337307D01*
X150843900Y-91367900D01*
X150843900Y-94560100D01*
X150824993Y-94618291D01*
X150775493Y-94654255D01*
X150744900Y-94659100D01*
X146209516Y-94659100D01*
X146022886Y-94688658D01*
X145843167Y-94747053D01*
X145674803Y-94832838D01*
X145521928Y-94943909D01*
X145388309Y-95077528D01*
X145277238Y-95230403D01*
X145191453Y-95398767D01*
X145133058Y-95578486D01*
X145103500Y-95765115D01*
X145103500Y-95954084D01*
X145133058Y-96140713D01*
X145191453Y-96320432D01*
X145270463Y-96475500D01*
X145277240Y-96488799D01*
X145388310Y-96641673D01*
X145521927Y-96775290D01*
X145674801Y-96886360D01*
X145843168Y-96972147D01*
X146022882Y-97030540D01*
X146022883Y-97030540D01*
X146022886Y-97030541D01*
X146209516Y-97060100D01*
X146209519Y-97060100D01*
X150744900Y-97060100D01*
X150803091Y-97079007D01*
X150839055Y-97128507D01*
X150843900Y-97159100D01*
X150843900Y-103957328D01*
X150824993Y-104015519D01*
X150814904Y-104027332D01*
X148477332Y-106364904D01*
X148422815Y-106392681D01*
X148407328Y-106393900D01*
X141609100Y-106393900D01*
X141550909Y-106374993D01*
X141514945Y-106325493D01*
X141510100Y-106294900D01*
X141510100Y-99318015D01*
X141480541Y-99131386D01*
X141467780Y-99092111D01*
X141422147Y-98951668D01*
X141336360Y-98783301D01*
X141225290Y-98630427D01*
X141115764Y-98520901D01*
X141087989Y-98466387D01*
X141097560Y-98405955D01*
X141140825Y-98362690D01*
X141185770Y-98351900D01*
X142335921Y-98351900D01*
X142394112Y-98370807D01*
X142405925Y-98380896D01*
X143182504Y-99157475D01*
X143210281Y-99211992D01*
X143211500Y-99227479D01*
X143211500Y-99243018D01*
X143221739Y-99281231D01*
X143240498Y-99351241D01*
X143288128Y-99433737D01*
X143296515Y-99448263D01*
X143375737Y-99527485D01*
X143375739Y-99527486D01*
X143472759Y-99583501D01*
X143472757Y-99583501D01*
X143472761Y-99583502D01*
X143472763Y-99583503D01*
X143580982Y-99612500D01*
X143580984Y-99612500D01*
X143693016Y-99612500D01*
X143693018Y-99612500D01*
X143801237Y-99583503D01*
X143801239Y-99583501D01*
X143801241Y-99583501D01*
X143831035Y-99566299D01*
X143898263Y-99527485D01*
X143936998Y-99488749D01*
X143991513Y-99460974D01*
X144051945Y-99470545D01*
X144077000Y-99488748D01*
X144115737Y-99527485D01*
X144115739Y-99527486D01*
X144212759Y-99583501D01*
X144212757Y-99583501D01*
X144212761Y-99583502D01*
X144212763Y-99583503D01*
X144320982Y-99612500D01*
X144320984Y-99612500D01*
X144433016Y-99612500D01*
X144433018Y-99612500D01*
X144541237Y-99583503D01*
X144541239Y-99583501D01*
X144541241Y-99583501D01*
X144571035Y-99566299D01*
X144638263Y-99527485D01*
X144706998Y-99458749D01*
X144761513Y-99430974D01*
X144821945Y-99440545D01*
X144847000Y-99458748D01*
X144915737Y-99527485D01*
X144915739Y-99527486D01*
X145012759Y-99583501D01*
X145012757Y-99583501D01*
X145012761Y-99583502D01*
X145012763Y-99583503D01*
X145120982Y-99612500D01*
X145120984Y-99612500D01*
X145233016Y-99612500D01*
X145233018Y-99612500D01*
X145341237Y-99583503D01*
X145348996Y-99579022D01*
X145408843Y-99566299D01*
X145464740Y-99591182D01*
X145495336Y-99644169D01*
X145497500Y-99664757D01*
X145497500Y-99751018D01*
X145523072Y-99846455D01*
X145526498Y-99859241D01*
X145582513Y-99956260D01*
X145582515Y-99956263D01*
X145661737Y-100035485D01*
X145661739Y-100035486D01*
X145758759Y-100091501D01*
X145758757Y-100091501D01*
X145758761Y-100091502D01*
X145758763Y-100091503D01*
X145866982Y-100120500D01*
X145866984Y-100120500D01*
X145979016Y-100120500D01*
X145979018Y-100120500D01*
X146087237Y-100091503D01*
X146087239Y-100091501D01*
X146087241Y-100091501D01*
X146162482Y-100048060D01*
X146184263Y-100035485D01*
X146263485Y-99956263D01*
X146319503Y-99859237D01*
X146348500Y-99751018D01*
X146348500Y-99638982D01*
X146319503Y-99530763D01*
X146319501Y-99530760D01*
X146319501Y-99530758D01*
X146263485Y-99433736D01*
X146252494Y-99422745D01*
X146224718Y-99368228D01*
X146223500Y-99352744D01*
X146223500Y-99147437D01*
X146223499Y-99147435D01*
X146203021Y-99071011D01*
X146203019Y-99071007D01*
X146163460Y-99002489D01*
X146107512Y-98946540D01*
X145878911Y-98717940D01*
X145874941Y-98714894D01*
X145865204Y-98706355D01*
X145579387Y-98420539D01*
X145576201Y-98418699D01*
X145576201Y-98418700D01*
X145510866Y-98380979D01*
X145510865Y-98380978D01*
X145510864Y-98380978D01*
X145434441Y-98360500D01*
X145434439Y-98360500D01*
X145383579Y-98360500D01*
X145325388Y-98341593D01*
X145313575Y-98331504D01*
X144429658Y-97447587D01*
X143525111Y-96543040D01*
X143519151Y-96539599D01*
X143519146Y-96539596D01*
X143519146Y-96539595D01*
X143456589Y-96503479D01*
X143456585Y-96503477D01*
X143380164Y-96483000D01*
X143380162Y-96483000D01*
X139874979Y-96483000D01*
X139867381Y-96480531D01*
X139859492Y-96481781D01*
X139838836Y-96471256D01*
X139816788Y-96464093D01*
X139804975Y-96454004D01*
X139773496Y-96422525D01*
X139745719Y-96368008D01*
X139744500Y-96352521D01*
X139744500Y-96336983D01*
X139740065Y-96320432D01*
X139715503Y-96228763D01*
X139715501Y-96228760D01*
X139715501Y-96228758D01*
X139659486Y-96131739D01*
X139659485Y-96131737D01*
X139580263Y-96052515D01*
X139550848Y-96035532D01*
X139483240Y-95996498D01*
X139483242Y-95996498D01*
X139441251Y-95985247D01*
X139375018Y-95967500D01*
X139262982Y-95967500D01*
X139196748Y-95985247D01*
X139154758Y-95996498D01*
X139057739Y-96052513D01*
X138978513Y-96131739D01*
X138922498Y-96228758D01*
X138913591Y-96262002D01*
X138893500Y-96336982D01*
X138893500Y-96449018D01*
X138912520Y-96520001D01*
X138922498Y-96557241D01*
X138971245Y-96641671D01*
X138978515Y-96654263D01*
X139057737Y-96733485D01*
X139057739Y-96733486D01*
X139057749Y-96733496D01*
X139085526Y-96788013D01*
X139075955Y-96848445D01*
X139057751Y-96873500D01*
X139014781Y-96916471D01*
X139008013Y-96923239D01*
X138951998Y-97020259D01*
X138951997Y-97020263D01*
X138948014Y-97035123D01*
X138914693Y-97086437D01*
X138857571Y-97108364D01*
X138852389Y-97108500D01*
X136973313Y-97108500D01*
X136915122Y-97089593D01*
X136887577Y-97059001D01*
X136880614Y-97046942D01*
X136865485Y-97020737D01*
X136786263Y-96941515D01*
X136786260Y-96941513D01*
X136689240Y-96885498D01*
X136689242Y-96885498D01*
X136665961Y-96879260D01*
X136630005Y-96869626D01*
X136578693Y-96836303D01*
X136556766Y-96779181D01*
X136572602Y-96720081D01*
X136620151Y-96681576D01*
X136629997Y-96678375D01*
X136689237Y-96662503D01*
X136689239Y-96662501D01*
X136689241Y-96662501D01*
X136718064Y-96645859D01*
X136786263Y-96606485D01*
X136865485Y-96527263D01*
X136921503Y-96430237D01*
X136950500Y-96322018D01*
X136950500Y-96209982D01*
X136921503Y-96101763D01*
X136921501Y-96101760D01*
X136921501Y-96101758D01*
X136865486Y-96004739D01*
X136865485Y-96004737D01*
X136786263Y-95925515D01*
X136786260Y-95925513D01*
X136689240Y-95869498D01*
X136689242Y-95869498D01*
X136647251Y-95858247D01*
X136581018Y-95840500D01*
X136468982Y-95840500D01*
X136402748Y-95858247D01*
X136360758Y-95869498D01*
X136263739Y-95925513D01*
X136184513Y-96004739D01*
X136128498Y-96101758D01*
X136120465Y-96131739D01*
X136101136Y-96203879D01*
X136099500Y-96209983D01*
X136099500Y-96225521D01*
X136080593Y-96283712D01*
X136070504Y-96295525D01*
X135814489Y-96551540D01*
X135814488Y-96551539D01*
X135758539Y-96607489D01*
X135718980Y-96676007D01*
X135718978Y-96676011D01*
X135698500Y-96752435D01*
X135698500Y-97539441D01*
X135718978Y-97615865D01*
X135718979Y-97615867D01*
X135740252Y-97652711D01*
X135740253Y-97652716D01*
X135740255Y-97652716D01*
X135758540Y-97684388D01*
X136426112Y-98351960D01*
X136426114Y-98351961D01*
X136426116Y-98351963D01*
X136494631Y-98391520D01*
X136494629Y-98391520D01*
X136494633Y-98391521D01*
X136494635Y-98391522D01*
X136571061Y-98412000D01*
X139373330Y-98412000D01*
X139431521Y-98430907D01*
X139467485Y-98480407D01*
X139467485Y-98541593D01*
X139443335Y-98581001D01*
X139393910Y-98630427D01*
X139393909Y-98630428D01*
X139282838Y-98783303D01*
X139197053Y-98951667D01*
X139138658Y-99131386D01*
X139109100Y-99318015D01*
X139109100Y-107106928D01*
X139090193Y-107165119D01*
X139080104Y-107176932D01*
X135396332Y-110860704D01*
X135341815Y-110888481D01*
X135326328Y-110889700D01*
X134777272Y-110889700D01*
X134719081Y-110870793D01*
X134707268Y-110860704D01*
X132807510Y-108960946D01*
X130779274Y-106932710D01*
X130626399Y-106821640D01*
X130626398Y-106821639D01*
X130626396Y-106821638D01*
X130458032Y-106735853D01*
X130278313Y-106677458D01*
X130091684Y-106647900D01*
X130091681Y-106647900D01*
X124337871Y-106647900D01*
X124279680Y-106628993D01*
X124267867Y-106618904D01*
X123047896Y-105398932D01*
X123020119Y-105344415D01*
X123018900Y-105328928D01*
X123018900Y-102419917D01*
X123004903Y-102331548D01*
X123004903Y-102331546D01*
X122989341Y-102233286D01*
X122987991Y-102229130D01*
X122930947Y-102053568D01*
X122845160Y-101885201D01*
X122734090Y-101732326D01*
X121305074Y-100303310D01*
X121152199Y-100192240D01*
X121152198Y-100192239D01*
X121152196Y-100192238D01*
X120983832Y-100106453D01*
X120804113Y-100048058D01*
X120617484Y-100018500D01*
X120617481Y-100018500D01*
X118904519Y-100018500D01*
X118904516Y-100018500D01*
X118717886Y-100048058D01*
X118538167Y-100106453D01*
X118369803Y-100192238D01*
X118216928Y-100303309D01*
X118083309Y-100436928D01*
X117972238Y-100589803D01*
X117886453Y-100758167D01*
X117856585Y-100850093D01*
X117820621Y-100899593D01*
X117762430Y-100918500D01*
X115100479Y-100918500D01*
X115042288Y-100899593D01*
X115030475Y-100889504D01*
X112953096Y-98812125D01*
X112949469Y-98805007D01*
X112943007Y-98800312D01*
X112935843Y-98778263D01*
X112925319Y-98757608D01*
X112924100Y-98742121D01*
X112924100Y-98575532D01*
X117948500Y-98575532D01*
X117948500Y-98782467D01*
X117988869Y-98985418D01*
X118068058Y-99176597D01*
X118176027Y-99338185D01*
X118183023Y-99348655D01*
X118329345Y-99494977D01*
X118501402Y-99609941D01*
X118692580Y-99689130D01*
X118895535Y-99729500D01*
X118895536Y-99729500D01*
X119102464Y-99729500D01*
X119102465Y-99729500D01*
X119305420Y-99689130D01*
X119496598Y-99609941D01*
X119668655Y-99494977D01*
X119814977Y-99348655D01*
X119929941Y-99176598D01*
X120009130Y-98985420D01*
X120049500Y-98782465D01*
X120049500Y-98575535D01*
X120009130Y-98372580D01*
X119929941Y-98181402D01*
X119814977Y-98009345D01*
X119668655Y-97863023D01*
X119668651Y-97863020D01*
X119496597Y-97748058D01*
X119305418Y-97668869D01*
X119102467Y-97628500D01*
X119102465Y-97628500D01*
X118895535Y-97628500D01*
X118895532Y-97628500D01*
X118692581Y-97668869D01*
X118501402Y-97748058D01*
X118329348Y-97863020D01*
X118183020Y-98009348D01*
X118068058Y-98181402D01*
X117988869Y-98372581D01*
X117948500Y-98575532D01*
X112924100Y-98575532D01*
X112924100Y-97243255D01*
X112943007Y-97185064D01*
X112953090Y-97173257D01*
X112964085Y-97162263D01*
X113012153Y-97079007D01*
X113020101Y-97065241D01*
X113020101Y-97065239D01*
X113020103Y-97065237D01*
X113049100Y-96957018D01*
X113049100Y-96844982D01*
X113020103Y-96736763D01*
X113020101Y-96736760D01*
X113020101Y-96736758D01*
X112965203Y-96641673D01*
X112964085Y-96639737D01*
X112884863Y-96560515D01*
X112884860Y-96560513D01*
X112787840Y-96504498D01*
X112787842Y-96504498D01*
X112745851Y-96493247D01*
X112679618Y-96475500D01*
X112567582Y-96475500D01*
X112501348Y-96493247D01*
X112459358Y-96504498D01*
X112362339Y-96560513D01*
X112283113Y-96639739D01*
X112227098Y-96736758D01*
X112222897Y-96752438D01*
X112198100Y-96844982D01*
X112198100Y-96957018D01*
X112215174Y-97020738D01*
X112227098Y-97065241D01*
X112281289Y-97159100D01*
X112283115Y-97162263D01*
X112294105Y-97173253D01*
X112321881Y-97227768D01*
X112323100Y-97243255D01*
X112323100Y-98947164D01*
X112343578Y-99023588D01*
X112343579Y-99023590D01*
X112359814Y-99051708D01*
X112359814Y-99051711D01*
X112359815Y-99051711D01*
X112359816Y-99051712D01*
X112383140Y-99092111D01*
X114694540Y-101403511D01*
X114694539Y-101403511D01*
X114750489Y-101459460D01*
X114819007Y-101499019D01*
X114819011Y-101499021D01*
X114895435Y-101519499D01*
X114895437Y-101519500D01*
X114895438Y-101519500D01*
X114974562Y-101519500D01*
X117762430Y-101519500D01*
X117820621Y-101538407D01*
X117856585Y-101587907D01*
X117886453Y-101679832D01*
X117932742Y-101770681D01*
X117972240Y-101848199D01*
X118083310Y-102001073D01*
X118216927Y-102134690D01*
X118369801Y-102245760D01*
X118538168Y-102331547D01*
X118717882Y-102389940D01*
X118717883Y-102389940D01*
X118717886Y-102389941D01*
X118904516Y-102419500D01*
X118904519Y-102419500D01*
X119984728Y-102419500D01*
X120042919Y-102438407D01*
X120054732Y-102448496D01*
X120588904Y-102982668D01*
X120616681Y-103037185D01*
X120617900Y-103052672D01*
X120617900Y-105961684D01*
X120647458Y-106148313D01*
X120696420Y-106299000D01*
X120705853Y-106328032D01*
X120791640Y-106496399D01*
X120902710Y-106649274D01*
X122883910Y-108630473D01*
X122883909Y-108630473D01*
X122960383Y-108706946D01*
X123017527Y-108764090D01*
X123170401Y-108875160D01*
X123338768Y-108960947D01*
X123518482Y-109019340D01*
X123518483Y-109019340D01*
X123518486Y-109019341D01*
X123705116Y-109048900D01*
X123705119Y-109048900D01*
X129458928Y-109048900D01*
X129517119Y-109067807D01*
X129528932Y-109077896D01*
X133009504Y-112558468D01*
X133037281Y-112612985D01*
X133038500Y-112628472D01*
X133038500Y-119093484D01*
X133068058Y-119280113D01*
X133126453Y-119459832D01*
X133187456Y-119579559D01*
X133212240Y-119628199D01*
X133323310Y-119781073D01*
X133456927Y-119914690D01*
X133609801Y-120025760D01*
X133778168Y-120111547D01*
X133832945Y-120129345D01*
X133882445Y-120165309D01*
X133901352Y-120223500D01*
X133882445Y-120281691D01*
X133832945Y-120317655D01*
X133802352Y-120322500D01*
X114429773Y-120322500D01*
X114424222Y-120322344D01*
X114113732Y-120304907D01*
X114102700Y-120303664D01*
X113798857Y-120252039D01*
X113788033Y-120249569D01*
X113491870Y-120164246D01*
X113481391Y-120160579D01*
X113196650Y-120042635D01*
X113186648Y-120037818D01*
X112916907Y-119888737D01*
X112907507Y-119882831D01*
X112656147Y-119704482D01*
X112647467Y-119697560D01*
X112636744Y-119687977D01*
X112417650Y-119492184D01*
X112409815Y-119484349D01*
X112204437Y-119254530D01*
X112197517Y-119245852D01*
X112189718Y-119234861D01*
X112019168Y-118994492D01*
X112013262Y-118985092D01*
X111987544Y-118938559D01*
X111963764Y-118895532D01*
X125568500Y-118895532D01*
X125568500Y-119102467D01*
X125608869Y-119305418D01*
X125688058Y-119496597D01*
X125803020Y-119668651D01*
X125803023Y-119668655D01*
X125949345Y-119814977D01*
X126121402Y-119929941D01*
X126312580Y-120009130D01*
X126515535Y-120049500D01*
X126515536Y-120049500D01*
X126722464Y-120049500D01*
X126722465Y-120049500D01*
X126925420Y-120009130D01*
X127116598Y-119929941D01*
X127288655Y-119814977D01*
X127434977Y-119668655D01*
X127549941Y-119496598D01*
X127629130Y-119305420D01*
X127669500Y-119102465D01*
X127669500Y-118895535D01*
X127669499Y-118895532D01*
X128108500Y-118895532D01*
X128108500Y-119102467D01*
X128148869Y-119305418D01*
X128228058Y-119496597D01*
X128343020Y-119668651D01*
X128343023Y-119668655D01*
X128489345Y-119814977D01*
X128661402Y-119929941D01*
X128852580Y-120009130D01*
X129055535Y-120049500D01*
X129055536Y-120049500D01*
X129262464Y-120049500D01*
X129262465Y-120049500D01*
X129465420Y-120009130D01*
X129656598Y-119929941D01*
X129828655Y-119814977D01*
X129974977Y-119668655D01*
X130089941Y-119496598D01*
X130169130Y-119305420D01*
X130209500Y-119102465D01*
X130209500Y-118895535D01*
X130209499Y-118895532D01*
X130648500Y-118895532D01*
X130648500Y-119102467D01*
X130688869Y-119305418D01*
X130768058Y-119496597D01*
X130883020Y-119668651D01*
X130883023Y-119668655D01*
X131029345Y-119814977D01*
X131201402Y-119929941D01*
X131392580Y-120009130D01*
X131595535Y-120049500D01*
X131595536Y-120049500D01*
X131802464Y-120049500D01*
X131802465Y-120049500D01*
X132005420Y-120009130D01*
X132196598Y-119929941D01*
X132368655Y-119814977D01*
X132514977Y-119668655D01*
X132629941Y-119496598D01*
X132709130Y-119305420D01*
X132749500Y-119102465D01*
X132749500Y-118895535D01*
X132709130Y-118692580D01*
X132629941Y-118501402D01*
X132514977Y-118329345D01*
X132368655Y-118183023D01*
X132368651Y-118183020D01*
X132196597Y-118068058D01*
X132005418Y-117988869D01*
X131802467Y-117948500D01*
X131802465Y-117948500D01*
X131595535Y-117948500D01*
X131595532Y-117948500D01*
X131392581Y-117988869D01*
X131201402Y-118068058D01*
X131029348Y-118183020D01*
X130883020Y-118329348D01*
X130768058Y-118501402D01*
X130688869Y-118692581D01*
X130648500Y-118895532D01*
X130209499Y-118895532D01*
X130169130Y-118692580D01*
X130089941Y-118501402D01*
X129974977Y-118329345D01*
X129828655Y-118183023D01*
X129828651Y-118183020D01*
X129656597Y-118068058D01*
X129465418Y-117988869D01*
X129262467Y-117948500D01*
X129262465Y-117948500D01*
X129055535Y-117948500D01*
X129055532Y-117948500D01*
X128852581Y-117988869D01*
X128661402Y-118068058D01*
X128489348Y-118183020D01*
X128343020Y-118329348D01*
X128228058Y-118501402D01*
X128148869Y-118692581D01*
X128108500Y-118895532D01*
X127669499Y-118895532D01*
X127629130Y-118692580D01*
X127549941Y-118501402D01*
X127434977Y-118329345D01*
X127288655Y-118183023D01*
X127288651Y-118183020D01*
X127116597Y-118068058D01*
X126925418Y-117988869D01*
X126722467Y-117948500D01*
X126722465Y-117948500D01*
X126515535Y-117948500D01*
X126515532Y-117948500D01*
X126312581Y-117988869D01*
X126121402Y-118068058D01*
X125949348Y-118183020D01*
X125803020Y-118329348D01*
X125688058Y-118501402D01*
X125608869Y-118692581D01*
X125568500Y-118895532D01*
X111963764Y-118895532D01*
X111864181Y-118715351D01*
X111859364Y-118705349D01*
X111832609Y-118640756D01*
X111741418Y-118420604D01*
X111737753Y-118410129D01*
X111736585Y-118406074D01*
X111652426Y-118113951D01*
X111649963Y-118103157D01*
X111598334Y-117799297D01*
X111597092Y-117788267D01*
X111594825Y-117747904D01*
X111579656Y-117477777D01*
X111579500Y-117472226D01*
X111579500Y-108147982D01*
X115779500Y-108147982D01*
X115779500Y-108260018D01*
X115805072Y-108355455D01*
X115808498Y-108368241D01*
X115864513Y-108465260D01*
X115864515Y-108465263D01*
X115943737Y-108544485D01*
X115943739Y-108544486D01*
X116040759Y-108600501D01*
X116040757Y-108600501D01*
X116040761Y-108600502D01*
X116040763Y-108600503D01*
X116148982Y-108629500D01*
X116148984Y-108629500D01*
X116261016Y-108629500D01*
X116261018Y-108629500D01*
X116369237Y-108600503D01*
X116369239Y-108600501D01*
X116369241Y-108600501D01*
X116398064Y-108583859D01*
X116466263Y-108544485D01*
X116477253Y-108533494D01*
X116531768Y-108505719D01*
X116547255Y-108504500D01*
X118021745Y-108504500D01*
X118079936Y-108523407D01*
X118091742Y-108533490D01*
X118102737Y-108544485D01*
X118102739Y-108544486D01*
X118199759Y-108600501D01*
X118199757Y-108600501D01*
X118199761Y-108600502D01*
X118199763Y-108600503D01*
X118307982Y-108629500D01*
X118307984Y-108629500D01*
X118420016Y-108629500D01*
X118420018Y-108629500D01*
X118528237Y-108600503D01*
X118528239Y-108600501D01*
X118528241Y-108600501D01*
X118557064Y-108583859D01*
X118625263Y-108544485D01*
X118704485Y-108465263D01*
X118760503Y-108368237D01*
X118789500Y-108260018D01*
X118789500Y-108147982D01*
X118760503Y-108039763D01*
X118760501Y-108039760D01*
X118760501Y-108039758D01*
X118704486Y-107942739D01*
X118704485Y-107942737D01*
X118625263Y-107863515D01*
X118625260Y-107863513D01*
X118528240Y-107807498D01*
X118528242Y-107807498D01*
X118486251Y-107796247D01*
X118420018Y-107778500D01*
X118307982Y-107778500D01*
X118241748Y-107796247D01*
X118199758Y-107807498D01*
X118102739Y-107863513D01*
X118102737Y-107863514D01*
X118102737Y-107863515D01*
X118091746Y-107874505D01*
X118037232Y-107902281D01*
X118021745Y-107903500D01*
X116547255Y-107903500D01*
X116489064Y-107884593D01*
X116477257Y-107874509D01*
X116466263Y-107863515D01*
X116466260Y-107863513D01*
X116369240Y-107807498D01*
X116369242Y-107807498D01*
X116327251Y-107796247D01*
X116261018Y-107778500D01*
X116148982Y-107778500D01*
X116082748Y-107796247D01*
X116040758Y-107807498D01*
X115943739Y-107863513D01*
X115864513Y-107942739D01*
X115808498Y-108039758D01*
X115808497Y-108039763D01*
X115779500Y-108147982D01*
X111579500Y-108147982D01*
X111579500Y-106192749D01*
X117649000Y-106192749D01*
X117649000Y-106405250D01*
X117682240Y-106615121D01*
X117747904Y-106817215D01*
X117844376Y-107006553D01*
X117844380Y-107006559D01*
X117883728Y-107060716D01*
X117883729Y-107060716D01*
X118516037Y-106428407D01*
X118533075Y-106491993D01*
X118598901Y-106606007D01*
X118691993Y-106699099D01*
X118806007Y-106764925D01*
X118869589Y-106781962D01*
X118237282Y-107414269D01*
X118237282Y-107414270D01*
X118291440Y-107453619D01*
X118291446Y-107453623D01*
X118480784Y-107550095D01*
X118682878Y-107615759D01*
X118892750Y-107649000D01*
X119105250Y-107649000D01*
X119315121Y-107615759D01*
X119517215Y-107550095D01*
X119706556Y-107453620D01*
X119760716Y-107414270D01*
X119128408Y-106781962D01*
X119191993Y-106764925D01*
X119306007Y-106699099D01*
X119399099Y-106606007D01*
X119464925Y-106491993D01*
X119481962Y-106428408D01*
X120114270Y-107060716D01*
X120153620Y-107006556D01*
X120250095Y-106817215D01*
X120315759Y-106615121D01*
X120349000Y-106405250D01*
X120349000Y-106192749D01*
X120315759Y-105982878D01*
X120250095Y-105780784D01*
X120153623Y-105591446D01*
X120153619Y-105591440D01*
X120114270Y-105537282D01*
X120114269Y-105537282D01*
X119481962Y-106169589D01*
X119464925Y-106106007D01*
X119399099Y-105991993D01*
X119306007Y-105898901D01*
X119191993Y-105833075D01*
X119128407Y-105816037D01*
X119760716Y-105183729D01*
X119760716Y-105183728D01*
X119706559Y-105144380D01*
X119706553Y-105144376D01*
X119517215Y-105047904D01*
X119315122Y-104982241D01*
X119260822Y-104973640D01*
X119206306Y-104945862D01*
X119178529Y-104891345D01*
X119188101Y-104830913D01*
X119231366Y-104787649D01*
X119256993Y-104778762D01*
X119305420Y-104769130D01*
X119496598Y-104689941D01*
X119668655Y-104574977D01*
X119814977Y-104428655D01*
X119929941Y-104256598D01*
X120009130Y-104065420D01*
X120049500Y-103862465D01*
X120049500Y-103655535D01*
X120009130Y-103452580D01*
X119929941Y-103261402D01*
X119814977Y-103089345D01*
X119668655Y-102943023D01*
X119519423Y-102843310D01*
X119496597Y-102828058D01*
X119305418Y-102748869D01*
X119102467Y-102708500D01*
X119102465Y-102708500D01*
X118895535Y-102708500D01*
X118895532Y-102708500D01*
X118692581Y-102748869D01*
X118501402Y-102828058D01*
X118329348Y-102943020D01*
X118183020Y-103089348D01*
X118068058Y-103261402D01*
X117988869Y-103452581D01*
X117948500Y-103655532D01*
X117948500Y-103862467D01*
X117988869Y-104065418D01*
X118068058Y-104256597D01*
X118107044Y-104314944D01*
X118183023Y-104428655D01*
X118329345Y-104574977D01*
X118501402Y-104689941D01*
X118692580Y-104769130D01*
X118741003Y-104778762D01*
X118794386Y-104808657D01*
X118820003Y-104864221D01*
X118808067Y-104924231D01*
X118763138Y-104965765D01*
X118737177Y-104973640D01*
X118682877Y-104982241D01*
X118480784Y-105047904D01*
X118291446Y-105144376D01*
X118291442Y-105144378D01*
X118237282Y-105183728D01*
X118869591Y-105816037D01*
X118806007Y-105833075D01*
X118691993Y-105898901D01*
X118598901Y-105991993D01*
X118533075Y-106106007D01*
X118516037Y-106169591D01*
X117883728Y-105537282D01*
X117844378Y-105591442D01*
X117844376Y-105591446D01*
X117747904Y-105780784D01*
X117682240Y-105982878D01*
X117649000Y-106192749D01*
X111579500Y-106192749D01*
X111579500Y-104314943D01*
X113826500Y-104314943D01*
X113826500Y-104473057D01*
X113867423Y-104625784D01*
X113946480Y-104762716D01*
X114058284Y-104874520D01*
X114195216Y-104953577D01*
X114347943Y-104994500D01*
X114347945Y-104994500D01*
X114506055Y-104994500D01*
X114506057Y-104994500D01*
X114658784Y-104953577D01*
X114795716Y-104874520D01*
X114907520Y-104762716D01*
X114986577Y-104625784D01*
X115027500Y-104473057D01*
X115027500Y-104314943D01*
X114986577Y-104162216D01*
X114907520Y-104025284D01*
X114795716Y-103913480D01*
X114658784Y-103834423D01*
X114506057Y-103793500D01*
X114347943Y-103793500D01*
X114195216Y-103834423D01*
X114058284Y-103913480D01*
X113946480Y-104025284D01*
X113867423Y-104162216D01*
X113826500Y-104314943D01*
X111579500Y-104314943D01*
X111579500Y-96035532D01*
X117948500Y-96035532D01*
X117948500Y-96242467D01*
X117988869Y-96445418D01*
X118068058Y-96636597D01*
X118170226Y-96789503D01*
X118183023Y-96808655D01*
X118329345Y-96954977D01*
X118501402Y-97069941D01*
X118692580Y-97149130D01*
X118895535Y-97189500D01*
X118895536Y-97189500D01*
X119102464Y-97189500D01*
X119102465Y-97189500D01*
X119305420Y-97149130D01*
X119496598Y-97069941D01*
X119668655Y-96954977D01*
X119814977Y-96808655D01*
X119929941Y-96636598D01*
X120009130Y-96445420D01*
X120049500Y-96242465D01*
X120049500Y-96035535D01*
X120009130Y-95832580D01*
X119929941Y-95641402D01*
X119814977Y-95469345D01*
X119668655Y-95323023D01*
X119668651Y-95323020D01*
X119496597Y-95208058D01*
X119305418Y-95128869D01*
X119102467Y-95088500D01*
X119102465Y-95088500D01*
X118895535Y-95088500D01*
X118895532Y-95088500D01*
X118692581Y-95128869D01*
X118501402Y-95208058D01*
X118329348Y-95323020D01*
X118183020Y-95469348D01*
X118068058Y-95641402D01*
X117988869Y-95832581D01*
X117948500Y-96035532D01*
X111579500Y-96035532D01*
X111579500Y-94154943D01*
X113826500Y-94154943D01*
X113826500Y-94313057D01*
X113867423Y-94465784D01*
X113946480Y-94602716D01*
X114058284Y-94714520D01*
X114195216Y-94793577D01*
X114347943Y-94834500D01*
X114347945Y-94834500D01*
X114506055Y-94834500D01*
X114506057Y-94834500D01*
X114658784Y-94793577D01*
X114795716Y-94714520D01*
X114907520Y-94602716D01*
X114986577Y-94465784D01*
X115027500Y-94313057D01*
X115027500Y-94154943D01*
X114986577Y-94002216D01*
X114907520Y-93865284D01*
X114795716Y-93753480D01*
X114658784Y-93674423D01*
X114506057Y-93633500D01*
X114347943Y-93633500D01*
X114195216Y-93674423D01*
X114058284Y-93753480D01*
X113946480Y-93865284D01*
X113867423Y-94002216D01*
X113826500Y-94154943D01*
X111579500Y-94154943D01*
X111579500Y-93495532D01*
X117948500Y-93495532D01*
X117948500Y-93702467D01*
X117988869Y-93905418D01*
X118068058Y-94096597D01*
X118107044Y-94154944D01*
X118183023Y-94268655D01*
X118329345Y-94414977D01*
X118501402Y-94529941D01*
X118692580Y-94609130D01*
X118895535Y-94649500D01*
X118895536Y-94649500D01*
X119102464Y-94649500D01*
X119102465Y-94649500D01*
X119305420Y-94609130D01*
X119496598Y-94529941D01*
X119668655Y-94414977D01*
X119814977Y-94268655D01*
X119929941Y-94096598D01*
X120009130Y-93905420D01*
X120049500Y-93702465D01*
X120049500Y-93495535D01*
X120009130Y-93292580D01*
X119929941Y-93101402D01*
X119814977Y-92929345D01*
X119668655Y-92783023D01*
X119668651Y-92783020D01*
X119496597Y-92668058D01*
X119305418Y-92588869D01*
X119102467Y-92548500D01*
X119102465Y-92548500D01*
X118895535Y-92548500D01*
X118895532Y-92548500D01*
X118692581Y-92588869D01*
X118501402Y-92668058D01*
X118329348Y-92783020D01*
X118183020Y-92929348D01*
X118068058Y-93101402D01*
X117988869Y-93292581D01*
X117948500Y-93495532D01*
X111579500Y-93495532D01*
X111579500Y-90955532D01*
X117948500Y-90955532D01*
X117948500Y-91162467D01*
X117988869Y-91365418D01*
X118068058Y-91556597D01*
X118068059Y-91556598D01*
X118183023Y-91728655D01*
X118329345Y-91874977D01*
X118501402Y-91989941D01*
X118692580Y-92069130D01*
X118895535Y-92109500D01*
X118895536Y-92109500D01*
X119102464Y-92109500D01*
X119102465Y-92109500D01*
X119305420Y-92069130D01*
X119496598Y-91989941D01*
X119668655Y-91874977D01*
X119814977Y-91728655D01*
X119929941Y-91556598D01*
X120009130Y-91365420D01*
X120049500Y-91162465D01*
X120049500Y-90955535D01*
X120009130Y-90752580D01*
X119929941Y-90561402D01*
X119814977Y-90389345D01*
X119668655Y-90243023D01*
X119496598Y-90128059D01*
X119496599Y-90128059D01*
X119496597Y-90128058D01*
X119305418Y-90048869D01*
X119102467Y-90008500D01*
X119102465Y-90008500D01*
X118895535Y-90008500D01*
X118895532Y-90008500D01*
X118692581Y-90048869D01*
X118501402Y-90128058D01*
X118329348Y-90243020D01*
X118183020Y-90389348D01*
X118068058Y-90561402D01*
X117988869Y-90752581D01*
X117948500Y-90955532D01*
X111579500Y-90955532D01*
X111579500Y-88415532D01*
X117948500Y-88415532D01*
X117948500Y-88622467D01*
X117988869Y-88825418D01*
X118068058Y-89016597D01*
X118159005Y-89152710D01*
X118183023Y-89188655D01*
X118329345Y-89334977D01*
X118501402Y-89449941D01*
X118692580Y-89529130D01*
X118895535Y-89569500D01*
X118895536Y-89569500D01*
X119102464Y-89569500D01*
X119102465Y-89569500D01*
X119305420Y-89529130D01*
X119496598Y-89449941D01*
X119668655Y-89334977D01*
X119814977Y-89188655D01*
X119929941Y-89016598D01*
X120009130Y-88825420D01*
X120049500Y-88622465D01*
X120049500Y-88415535D01*
X120009130Y-88212580D01*
X119929941Y-88021402D01*
X119814977Y-87849345D01*
X119668655Y-87703023D01*
X119668651Y-87703020D01*
X119496597Y-87588058D01*
X119305418Y-87508869D01*
X119102467Y-87468500D01*
X119102465Y-87468500D01*
X118895535Y-87468500D01*
X118895532Y-87468500D01*
X118692581Y-87508869D01*
X118501402Y-87588058D01*
X118329348Y-87703020D01*
X118183020Y-87849348D01*
X118068058Y-88021402D01*
X117988869Y-88212581D01*
X117948500Y-88415532D01*
X111579500Y-88415532D01*
X111579500Y-85875532D01*
X117948500Y-85875532D01*
X117948500Y-86082467D01*
X117988869Y-86285418D01*
X118068058Y-86476597D01*
X118068059Y-86476598D01*
X118183023Y-86648655D01*
X118329345Y-86794977D01*
X118501402Y-86909941D01*
X118692580Y-86989130D01*
X118895535Y-87029500D01*
X118895536Y-87029500D01*
X119102464Y-87029500D01*
X119102465Y-87029500D01*
X119305420Y-86989130D01*
X119496598Y-86909941D01*
X119668655Y-86794977D01*
X119814977Y-86648655D01*
X119929941Y-86476598D01*
X120009130Y-86285420D01*
X120049500Y-86082465D01*
X120049500Y-85875535D01*
X120009130Y-85672580D01*
X119929941Y-85481402D01*
X119814977Y-85309345D01*
X119668655Y-85163023D01*
X119496598Y-85048059D01*
X119496599Y-85048059D01*
X119496597Y-85048058D01*
X119305418Y-84968869D01*
X119102467Y-84928500D01*
X119102465Y-84928500D01*
X118895535Y-84928500D01*
X118895532Y-84928500D01*
X118692581Y-84968869D01*
X118501402Y-85048058D01*
X118329348Y-85163020D01*
X118183020Y-85309348D01*
X118068058Y-85481402D01*
X117988869Y-85672581D01*
X117948500Y-85875532D01*
X111579500Y-85875532D01*
X111579500Y-82122672D01*
X118887400Y-82122672D01*
X118887400Y-82384127D01*
X118928297Y-82642347D01*
X119003727Y-82874493D01*
X119009091Y-82891003D01*
X119127786Y-83123954D01*
X119281460Y-83335469D01*
X119466331Y-83520340D01*
X119677846Y-83674014D01*
X119910797Y-83792709D01*
X120159448Y-83873501D01*
X120159449Y-83873501D01*
X120159452Y-83873502D01*
X120417673Y-83914400D01*
X120417676Y-83914400D01*
X120679127Y-83914400D01*
X120937347Y-83873502D01*
X120937348Y-83873501D01*
X120937352Y-83873501D01*
X121186003Y-83792709D01*
X121418954Y-83674014D01*
X121630469Y-83520340D01*
X121815340Y-83335469D01*
X121969014Y-83123954D01*
X122012981Y-83037665D01*
X123373099Y-83037665D01*
X123373099Y-83269134D01*
X123409307Y-83497740D01*
X123480832Y-83717874D01*
X123580478Y-83913441D01*
X123585915Y-83924110D01*
X123721964Y-84111366D01*
X123885633Y-84275035D01*
X124072889Y-84411084D01*
X124279123Y-84516166D01*
X124499256Y-84587691D01*
X124590700Y-84602174D01*
X124727865Y-84623900D01*
X124727868Y-84623900D01*
X124959333Y-84623900D01*
X125073636Y-84605795D01*
X125187942Y-84587691D01*
X125408075Y-84516166D01*
X125552089Y-84442787D01*
X125552092Y-84442786D01*
X125614298Y-84411090D01*
X125614305Y-84411086D01*
X125614304Y-84411086D01*
X125614309Y-84411084D01*
X125801565Y-84275035D01*
X125965234Y-84111366D01*
X126101283Y-83924110D01*
X126206365Y-83717876D01*
X126277890Y-83497743D01*
X126297854Y-83371696D01*
X126314099Y-83269134D01*
X126314099Y-83037665D01*
X126314055Y-83037386D01*
X126573602Y-83037386D01*
X126573602Y-83269413D01*
X126603886Y-83499444D01*
X126663938Y-83723568D01*
X126752731Y-83937932D01*
X126868741Y-84138866D01*
X126927718Y-84215728D01*
X127781519Y-83361926D01*
X127787379Y-83383795D01*
X127865963Y-83519905D01*
X127977097Y-83631039D01*
X128113207Y-83709623D01*
X128135072Y-83715481D01*
X127281272Y-84569282D01*
X127281271Y-84569282D01*
X127358135Y-84628260D01*
X127559069Y-84744270D01*
X127773433Y-84833063D01*
X127997557Y-84893115D01*
X128227588Y-84923399D01*
X128227591Y-84923400D01*
X128459613Y-84923400D01*
X128459615Y-84923399D01*
X128689646Y-84893115D01*
X128913770Y-84833063D01*
X129128134Y-84744270D01*
X129329064Y-84628263D01*
X129405930Y-84569282D01*
X128552130Y-83715482D01*
X128573997Y-83709623D01*
X128710107Y-83631039D01*
X128821241Y-83519905D01*
X128899825Y-83383795D01*
X128905684Y-83361928D01*
X129759484Y-84215728D01*
X129818465Y-84138862D01*
X129934472Y-83937932D01*
X130023265Y-83723568D01*
X130083317Y-83499444D01*
X130113601Y-83269413D01*
X130113602Y-83269411D01*
X130113602Y-83037389D01*
X130113601Y-83037386D01*
X130083317Y-82807355D01*
X130023265Y-82583231D01*
X129934475Y-82368873D01*
X129818666Y-82168286D01*
X129818459Y-82167928D01*
X129783733Y-82122672D01*
X130977800Y-82122672D01*
X130977800Y-82384127D01*
X131018697Y-82642347D01*
X131094127Y-82874493D01*
X131099491Y-82891003D01*
X131218186Y-83123954D01*
X131371860Y-83335469D01*
X131556731Y-83520340D01*
X131768246Y-83674014D01*
X132001197Y-83792709D01*
X132249848Y-83873501D01*
X132249849Y-83873501D01*
X132249852Y-83873502D01*
X132508073Y-83914400D01*
X132508076Y-83914400D01*
X132769527Y-83914400D01*
X133027747Y-83873502D01*
X133027748Y-83873501D01*
X133027752Y-83873501D01*
X133276403Y-83792709D01*
X133509354Y-83674014D01*
X133720869Y-83520340D01*
X133905740Y-83335469D01*
X134059414Y-83123954D01*
X134178109Y-82891003D01*
X134258901Y-82642352D01*
X134261559Y-82625572D01*
X134294197Y-82419506D01*
X134294197Y-82419505D01*
X134299800Y-82384128D01*
X134299800Y-82122672D01*
X134258902Y-81864452D01*
X134241340Y-81810402D01*
X134178109Y-81615797D01*
X134158599Y-81577506D01*
X138190000Y-81577506D01*
X138190000Y-81975999D01*
X138190001Y-81976000D01*
X138890000Y-81976000D01*
X138890000Y-82476000D01*
X138190001Y-82476000D01*
X138190000Y-82476001D01*
X138190000Y-82874493D01*
X138228429Y-83067688D01*
X138228429Y-83067690D01*
X138303808Y-83249673D01*
X138303814Y-83249685D01*
X138413249Y-83413462D01*
X138413252Y-83413466D01*
X138552533Y-83552747D01*
X138552537Y-83552750D01*
X138716314Y-83662185D01*
X138716326Y-83662191D01*
X138898304Y-83737568D01*
X138898315Y-83737571D01*
X138940000Y-83745862D01*
X138940000Y-82942988D01*
X138949940Y-82960205D01*
X139005795Y-83016060D01*
X139074204Y-83055556D01*
X139150504Y-83076000D01*
X139229496Y-83076000D01*
X139305796Y-83055556D01*
X139374205Y-83016060D01*
X139430060Y-82960205D01*
X139440000Y-82942988D01*
X139440000Y-83745861D01*
X139481684Y-83737571D01*
X139481695Y-83737568D01*
X139663673Y-83662191D01*
X139663685Y-83662185D01*
X139827462Y-83552750D01*
X139827466Y-83552747D01*
X139966747Y-83413466D01*
X139966750Y-83413462D01*
X140076185Y-83249685D01*
X140076191Y-83249673D01*
X140151570Y-83067690D01*
X140151570Y-83067688D01*
X140189999Y-82874493D01*
X140190000Y-82874490D01*
X140190000Y-82476001D01*
X140189999Y-82476000D01*
X139490000Y-82476000D01*
X139490000Y-81976000D01*
X140100384Y-81976000D01*
X140158575Y-81994907D01*
X140186120Y-82025499D01*
X140187564Y-82028000D01*
X140199495Y-82048665D01*
X140297335Y-82146505D01*
X140417164Y-82215688D01*
X140550817Y-82251500D01*
X140550819Y-82251500D01*
X140689181Y-82251500D01*
X140689183Y-82251500D01*
X140822836Y-82215688D01*
X140942665Y-82146505D01*
X141040505Y-82048665D01*
X141109688Y-81928836D01*
X141145500Y-81795183D01*
X141145500Y-81656817D01*
X145874500Y-81656817D01*
X145874500Y-81795183D01*
X145910312Y-81928836D01*
X145979495Y-82048665D01*
X146077335Y-82146505D01*
X146197164Y-82215688D01*
X146330817Y-82251500D01*
X146330819Y-82251500D01*
X146469181Y-82251500D01*
X146469183Y-82251500D01*
X146602836Y-82215688D01*
X146722665Y-82146505D01*
X146820505Y-82048665D01*
X146833880Y-82025499D01*
X146879350Y-81984558D01*
X146919616Y-81976000D01*
X147530000Y-81976000D01*
X147530000Y-82476000D01*
X146830001Y-82476000D01*
X146830000Y-82476001D01*
X146830000Y-82874493D01*
X146868429Y-83067688D01*
X146868429Y-83067690D01*
X146943808Y-83249673D01*
X146943814Y-83249685D01*
X147053249Y-83413462D01*
X147053252Y-83413466D01*
X147192533Y-83552747D01*
X147192537Y-83552750D01*
X147356314Y-83662185D01*
X147356326Y-83662191D01*
X147538304Y-83737568D01*
X147538315Y-83737571D01*
X147580000Y-83745862D01*
X147580000Y-82942988D01*
X147589940Y-82960205D01*
X147645795Y-83016060D01*
X147714204Y-83055556D01*
X147790504Y-83076000D01*
X147869496Y-83076000D01*
X147945796Y-83055556D01*
X148014205Y-83016060D01*
X148070060Y-82960205D01*
X148080000Y-82942988D01*
X148080000Y-83745861D01*
X148121684Y-83737571D01*
X148121695Y-83737568D01*
X148303673Y-83662191D01*
X148303685Y-83662185D01*
X148467462Y-83552750D01*
X148467466Y-83552747D01*
X148606747Y-83413466D01*
X148606750Y-83413462D01*
X148716185Y-83249685D01*
X148716191Y-83249673D01*
X148791570Y-83067690D01*
X148791570Y-83067688D01*
X148829999Y-82874493D01*
X148830000Y-82874490D01*
X148830000Y-82476001D01*
X148829999Y-82476000D01*
X148130000Y-82476000D01*
X148130000Y-81976000D01*
X148829999Y-81976000D01*
X148830000Y-81975999D01*
X148830000Y-81577509D01*
X148829999Y-81577506D01*
X148791570Y-81384311D01*
X148791570Y-81384309D01*
X148716191Y-81202326D01*
X148716185Y-81202314D01*
X148606750Y-81038537D01*
X148606747Y-81038533D01*
X148467466Y-80899252D01*
X148467462Y-80899249D01*
X148303685Y-80789814D01*
X148303673Y-80789808D01*
X148121691Y-80714429D01*
X148080000Y-80706136D01*
X148080000Y-81509011D01*
X148070060Y-81491795D01*
X148014205Y-81435940D01*
X147945796Y-81396444D01*
X147869496Y-81376000D01*
X147790504Y-81376000D01*
X147714204Y-81396444D01*
X147645795Y-81435940D01*
X147589940Y-81491795D01*
X147580000Y-81509011D01*
X147580000Y-80706136D01*
X147538308Y-80714429D01*
X147356326Y-80789808D01*
X147356314Y-80789814D01*
X147192537Y-80899249D01*
X147192533Y-80899252D01*
X147053252Y-81038533D01*
X147053249Y-81038537D01*
X146943814Y-81202314D01*
X146943808Y-81202326D01*
X146905520Y-81294764D01*
X146865784Y-81341290D01*
X146806289Y-81355574D01*
X146749761Y-81332159D01*
X146744065Y-81326895D01*
X146722665Y-81305495D01*
X146602836Y-81236312D01*
X146469183Y-81200500D01*
X146330817Y-81200500D01*
X146197164Y-81236312D01*
X146077335Y-81305495D01*
X145979495Y-81403335D01*
X145910312Y-81523164D01*
X145874500Y-81656817D01*
X141145500Y-81656817D01*
X141109688Y-81523164D01*
X141040505Y-81403335D01*
X140942665Y-81305495D01*
X140822836Y-81236312D01*
X140689183Y-81200500D01*
X140550817Y-81200500D01*
X140417164Y-81236312D01*
X140297332Y-81305497D01*
X140275945Y-81326884D01*
X140221428Y-81354660D01*
X140160996Y-81345088D01*
X140117732Y-81301822D01*
X140114479Y-81294764D01*
X140076191Y-81202326D01*
X140076185Y-81202314D01*
X139966750Y-81038537D01*
X139966747Y-81038533D01*
X139827466Y-80899252D01*
X139827462Y-80899249D01*
X139663685Y-80789814D01*
X139663673Y-80789808D01*
X139481691Y-80714429D01*
X139440000Y-80706136D01*
X139440000Y-81509011D01*
X139430060Y-81491795D01*
X139374205Y-81435940D01*
X139305796Y-81396444D01*
X139229496Y-81376000D01*
X139150504Y-81376000D01*
X139074204Y-81396444D01*
X139005795Y-81435940D01*
X138949940Y-81491795D01*
X138940000Y-81509011D01*
X138940000Y-80706136D01*
X138898308Y-80714429D01*
X138716326Y-80789808D01*
X138716314Y-80789814D01*
X138552537Y-80899249D01*
X138552533Y-80899252D01*
X138413252Y-81038533D01*
X138413249Y-81038537D01*
X138303814Y-81202314D01*
X138303808Y-81202326D01*
X138228429Y-81384309D01*
X138228429Y-81384311D01*
X138190000Y-81577506D01*
X134158599Y-81577506D01*
X134059414Y-81382846D01*
X133905740Y-81171331D01*
X133720869Y-80986460D01*
X133509354Y-80832786D01*
X133509353Y-80832785D01*
X133509351Y-80832784D01*
X133401586Y-80777875D01*
X133276403Y-80714091D01*
X133276400Y-80714090D01*
X133276398Y-80714089D01*
X133027747Y-80633297D01*
X132769527Y-80592400D01*
X132769524Y-80592400D01*
X132508076Y-80592400D01*
X132508073Y-80592400D01*
X132249852Y-80633297D01*
X132001201Y-80714089D01*
X131768248Y-80832784D01*
X131676767Y-80899249D01*
X131556731Y-80986460D01*
X131371860Y-81171331D01*
X131350668Y-81200500D01*
X131218184Y-81382848D01*
X131099489Y-81615801D01*
X131018697Y-81864452D01*
X130977800Y-82122672D01*
X129783733Y-82122672D01*
X129759484Y-82091070D01*
X128905683Y-82944870D01*
X128899825Y-82923005D01*
X128821241Y-82786895D01*
X128710107Y-82675761D01*
X128573997Y-82597177D01*
X128552128Y-82591317D01*
X129405930Y-81737516D01*
X129405931Y-81737516D01*
X129329068Y-81678539D01*
X129128134Y-81562529D01*
X128913770Y-81473736D01*
X128689646Y-81413684D01*
X128459615Y-81383400D01*
X128227588Y-81383400D01*
X127997557Y-81413684D01*
X127773433Y-81473736D01*
X127559069Y-81562529D01*
X127358140Y-81678536D01*
X127281272Y-81737516D01*
X128135073Y-82591317D01*
X128113207Y-82597177D01*
X127977097Y-82675761D01*
X127865963Y-82786895D01*
X127787379Y-82923005D01*
X127781519Y-82944871D01*
X126927718Y-82091070D01*
X126868738Y-82167938D01*
X126752731Y-82368867D01*
X126663938Y-82583231D01*
X126603886Y-82807355D01*
X126573602Y-83037386D01*
X126314055Y-83037386D01*
X126280834Y-82827643D01*
X126277890Y-82809057D01*
X126206365Y-82588924D01*
X126101283Y-82382690D01*
X125965234Y-82195434D01*
X125801565Y-82031765D01*
X125614309Y-81895716D01*
X125614305Y-81895713D01*
X125614298Y-81895709D01*
X125552090Y-81864012D01*
X125552087Y-81864012D01*
X125408073Y-81790633D01*
X125187939Y-81719108D01*
X124959333Y-81682900D01*
X124959330Y-81682900D01*
X124727868Y-81682900D01*
X124727865Y-81682900D01*
X124499258Y-81719108D01*
X124279124Y-81790633D01*
X124072891Y-81895714D01*
X123993065Y-81953711D01*
X123885633Y-82031765D01*
X123721964Y-82195434D01*
X123707249Y-82215688D01*
X123585913Y-82382692D01*
X123480832Y-82588925D01*
X123409307Y-82809059D01*
X123373099Y-83037665D01*
X122012981Y-83037665D01*
X122087709Y-82891003D01*
X122168501Y-82642352D01*
X122171159Y-82625572D01*
X122209400Y-82384127D01*
X122209400Y-82122672D01*
X122168502Y-81864452D01*
X122150570Y-81809261D01*
X122087709Y-81615797D01*
X121969014Y-81382846D01*
X121815340Y-81171331D01*
X121630469Y-80986460D01*
X121418954Y-80832786D01*
X121418953Y-80832785D01*
X121418951Y-80832784D01*
X121311186Y-80777875D01*
X121186003Y-80714091D01*
X121186000Y-80714090D01*
X121185998Y-80714089D01*
X120937347Y-80633297D01*
X120679127Y-80592400D01*
X120679124Y-80592400D01*
X120417676Y-80592400D01*
X120417673Y-80592400D01*
X120159452Y-80633297D01*
X119910801Y-80714089D01*
X119677848Y-80832784D01*
X119586367Y-80899249D01*
X119466331Y-80986460D01*
X119281460Y-81171331D01*
X119260268Y-81200500D01*
X119127784Y-81382848D01*
X119009089Y-81615801D01*
X118928297Y-81864452D01*
X118887400Y-82122672D01*
X111579500Y-82122672D01*
X111579500Y-79885773D01*
X111579656Y-79880222D01*
X111581740Y-79843118D01*
X111597092Y-79569727D01*
X111598335Y-79558700D01*
X111649964Y-79254839D01*
X111652425Y-79244051D01*
X111737756Y-78947860D01*
X111741416Y-78937401D01*
X111859367Y-78652643D01*
X111864181Y-78642648D01*
X111871058Y-78630205D01*
X112013266Y-78372899D01*
X112019166Y-78363510D01*
X112197525Y-78112136D01*
X112204430Y-78103478D01*
X112409824Y-77873640D01*
X112417640Y-77865824D01*
X112647478Y-77660430D01*
X112656136Y-77653525D01*
X112907514Y-77475163D01*
X112916899Y-77469266D01*
X113186654Y-77320177D01*
X113196643Y-77315367D01*
X113481401Y-77197416D01*
X113491860Y-77193756D01*
X113788051Y-77108425D01*
X113798839Y-77105964D01*
X114102704Y-77054334D01*
X114113727Y-77053092D01*
X114424222Y-77035655D01*
X114429773Y-77035500D01*
X114466882Y-77035500D01*
X138212320Y-77035500D01*
X138270511Y-77054407D01*
G37*
%TD.AperFunction*%
%TA.AperFunction,Conductor*%
G36*
X172127075Y-119064993D02*
G01*
X172192901Y-119179007D01*
X172285993Y-119272099D01*
X172400007Y-119337925D01*
X172463589Y-119354962D01*
X171831282Y-119987269D01*
X171831282Y-119987270D01*
X171885440Y-120026619D01*
X171885446Y-120026623D01*
X172074784Y-120123095D01*
X172094019Y-120129345D01*
X172143519Y-120165309D01*
X172162426Y-120223500D01*
X172143519Y-120281691D01*
X172094019Y-120317655D01*
X172063426Y-120322500D01*
X168042571Y-120322500D01*
X167984380Y-120303593D01*
X167948416Y-120254093D01*
X167948416Y-120192907D01*
X167984380Y-120143407D01*
X168011978Y-120129345D01*
X168031215Y-120123094D01*
X168220556Y-120026619D01*
X168274716Y-119987269D01*
X167642408Y-119354961D01*
X167705993Y-119337924D01*
X167820007Y-119272098D01*
X167913099Y-119179006D01*
X167978925Y-119064992D01*
X167995962Y-119001407D01*
X168628270Y-119633715D01*
X168667620Y-119579555D01*
X168764095Y-119390214D01*
X168829759Y-119188120D01*
X168838359Y-119133823D01*
X168866136Y-119079307D01*
X168920653Y-119051529D01*
X168981085Y-119061100D01*
X169024350Y-119104365D01*
X169033238Y-119129996D01*
X169042869Y-119178418D01*
X169122058Y-119369597D01*
X169237020Y-119541651D01*
X169237023Y-119541655D01*
X169383345Y-119687977D01*
X169555402Y-119802941D01*
X169746580Y-119882130D01*
X169949535Y-119922500D01*
X169949536Y-119922500D01*
X170156464Y-119922500D01*
X170156465Y-119922500D01*
X170359420Y-119882130D01*
X170550598Y-119802941D01*
X170722655Y-119687977D01*
X170868977Y-119541655D01*
X170983941Y-119369598D01*
X171063130Y-119178420D01*
X171072762Y-119129996D01*
X171102656Y-119076613D01*
X171158221Y-119050996D01*
X171218231Y-119062932D01*
X171259764Y-119107861D01*
X171267640Y-119133822D01*
X171276241Y-119188122D01*
X171341904Y-119390215D01*
X171438376Y-119579553D01*
X171438380Y-119579559D01*
X171477728Y-119633716D01*
X171477729Y-119633716D01*
X172110037Y-119001407D01*
X172127075Y-119064993D01*
G37*
%TD.AperFunction*%
%TD*%
%TA.AperFunction,Conductor*%
%TO.N,+3.3V*%
G36*
X173846183Y-81933907D02*
G01*
X173857996Y-81943996D01*
X173961004Y-82047004D01*
X173988781Y-82101521D01*
X173990000Y-82117008D01*
X173990000Y-82635992D01*
X173987531Y-82643589D01*
X173988781Y-82651479D01*
X173978256Y-82672134D01*
X173971093Y-82694183D01*
X173961004Y-82705996D01*
X173891996Y-82775004D01*
X173837479Y-82802781D01*
X173821992Y-82804000D01*
X173736000Y-82804000D01*
X171295000Y-82804000D01*
X171236809Y-82785093D01*
X171200845Y-82735593D01*
X171196000Y-82705000D01*
X171196000Y-82169001D01*
X171196000Y-82169000D01*
X171195999Y-82169000D01*
X169672001Y-82169000D01*
X169672000Y-82169000D01*
X169661684Y-82179316D01*
X169653093Y-82205760D01*
X169603593Y-82241724D01*
X169542407Y-82241724D01*
X169523500Y-82233306D01*
X169484187Y-82210608D01*
X169441754Y-82199238D01*
X169356892Y-82176500D01*
X169225108Y-82176500D01*
X169147200Y-82197375D01*
X169097809Y-82210609D01*
X168983690Y-82276496D01*
X168890496Y-82369690D01*
X168824609Y-82483809D01*
X168790500Y-82611109D01*
X168790500Y-82705000D01*
X168771593Y-82763191D01*
X168722093Y-82799155D01*
X168691500Y-82804000D01*
X167488508Y-82804000D01*
X167480910Y-82801531D01*
X167473021Y-82802781D01*
X167452365Y-82792256D01*
X167430317Y-82785093D01*
X167418504Y-82775004D01*
X167414996Y-82771496D01*
X167387219Y-82716979D01*
X167386000Y-82701492D01*
X167386000Y-82083008D01*
X167404907Y-82024817D01*
X167414996Y-82013004D01*
X167484004Y-81943996D01*
X167538521Y-81916219D01*
X167554008Y-81915000D01*
X173787992Y-81915000D01*
X173846183Y-81933907D01*
G37*
%TD.AperFunction*%
%TD*%
M02*
