%TF.GenerationSoftware,KiCad,Pcbnew,9.0.2*%
%TF.CreationDate,2025-12-18T01:49:35-05:00*%
%TF.ProjectId,gpsdo,67707364-6f2e-46b6-9963-61645f706362,rev?*%
%TF.SameCoordinates,Original*%
%TF.FileFunction,Legend,Top*%
%TF.FilePolarity,Positive*%
%FSLAX46Y46*%
G04 Gerber Fmt 4.6, Leading zero omitted, Abs format (unit mm)*
G04 Created by KiCad (PCBNEW 9.0.2) date 2025-12-18 01:49:35*
%MOMM*%
%LPD*%
G01*
G04 APERTURE LIST*
G04 Aperture macros list*
%AMRoundRect*
0 Rectangle with rounded corners*
0 $1 Rounding radius*
0 $2 $3 $4 $5 $6 $7 $8 $9 X,Y pos of 4 corners*
0 Add a 4 corners polygon primitive as box body*
4,1,4,$2,$3,$4,$5,$6,$7,$8,$9,$2,$3,0*
0 Add four circle primitives for the rounded corners*
1,1,$1+$1,$2,$3*
1,1,$1+$1,$4,$5*
1,1,$1+$1,$6,$7*
1,1,$1+$1,$8,$9*
0 Add four rect primitives between the rounded corners*
20,1,$1+$1,$2,$3,$4,$5,0*
20,1,$1+$1,$4,$5,$6,$7,0*
20,1,$1+$1,$6,$7,$8,$9,0*
20,1,$1+$1,$8,$9,$2,$3,0*%
G04 Aperture macros list end*
%ADD10C,0.200000*%
%ADD11C,0.150000*%
%ADD12C,0.100000*%
%ADD13C,0.120000*%
%ADD14C,0.152400*%
%ADD15C,0.508000*%
%ADD16C,0.127000*%
%ADD17C,0.250000*%
%ADD18RoundRect,0.250000X0.475000X-0.337500X0.475000X0.337500X-0.475000X0.337500X-0.475000X-0.337500X0*%
%ADD19RoundRect,0.150000X-0.587500X-0.150000X0.587500X-0.150000X0.587500X0.150000X-0.587500X0.150000X0*%
%ADD20RoundRect,0.250001X-0.624999X0.462499X-0.624999X-0.462499X0.624999X-0.462499X0.624999X0.462499X0*%
%ADD21RoundRect,0.250000X-1.100000X0.412500X-1.100000X-0.412500X1.100000X-0.412500X1.100000X0.412500X0*%
%ADD22C,2.921000*%
%ADD23C,2.540000*%
%ADD24RoundRect,0.250000X0.337500X0.475000X-0.337500X0.475000X-0.337500X-0.475000X0.337500X-0.475000X0*%
%ADD25RoundRect,0.050000X-0.387500X-0.050000X0.387500X-0.050000X0.387500X0.050000X-0.387500X0.050000X0*%
%ADD26RoundRect,0.050000X-0.050000X-0.387500X0.050000X-0.387500X0.050000X0.387500X-0.050000X0.387500X0*%
%ADD27R,3.200000X3.200000*%
%ADD28RoundRect,0.250000X-0.475000X0.337500X-0.475000X-0.337500X0.475000X-0.337500X0.475000X0.337500X0*%
%ADD29RoundRect,0.150000X0.587500X0.150000X-0.587500X0.150000X-0.587500X-0.150000X0.587500X-0.150000X0*%
%ADD30R,0.850000X4.560000*%
%ADD31R,1.000000X4.560000*%
%ADD32RoundRect,0.250000X-0.350000X-0.450000X0.350000X-0.450000X0.350000X0.450000X-0.350000X0.450000X0*%
%ADD33C,5.600000*%
%ADD34RoundRect,0.250000X-0.450000X0.350000X-0.450000X-0.350000X0.450000X-0.350000X0.450000X0.350000X0*%
%ADD35R,0.900000X0.300000*%
%ADD36R,0.250000X1.650000*%
%ADD37RoundRect,0.200000X0.250000X-0.200000X0.250000X0.200000X-0.250000X0.200000X-0.250000X-0.200000X0*%
%ADD38RoundRect,0.250000X0.450000X-0.350000X0.450000X0.350000X-0.450000X0.350000X-0.450000X-0.350000X0*%
%ADD39RoundRect,0.250000X0.350000X0.450000X-0.350000X0.450000X-0.350000X-0.450000X0.350000X-0.450000X0*%
%ADD40RoundRect,0.250000X1.400000X2.000000X-1.400000X2.000000X-1.400000X-2.000000X1.400000X-2.000000X0*%
%ADD41C,1.700000*%
%ADD42RoundRect,0.250000X-0.300000X-0.300000X0.300000X-0.300000X0.300000X0.300000X-0.300000X0.300000X0*%
%ADD43RoundRect,0.250000X-0.337500X-0.475000X0.337500X-0.475000X0.337500X0.475000X-0.337500X0.475000X0*%
%ADD44RoundRect,0.250000X-0.450000X0.325000X-0.450000X-0.325000X0.450000X-0.325000X0.450000X0.325000X0*%
%ADD45C,0.800000*%
%ADD46R,0.900000X1.700000*%
%ADD47RoundRect,0.249999X-1.850001X0.450001X-1.850001X-0.450001X1.850001X-0.450001X1.850001X0.450001X0*%
%ADD48RoundRect,0.087500X-0.250000X-0.087500X0.250000X-0.087500X0.250000X0.087500X-0.250000X0.087500X0*%
%ADD49C,0.650000*%
%ADD50RoundRect,0.150000X0.150000X0.425000X-0.150000X0.425000X-0.150000X-0.425000X0.150000X-0.425000X0*%
%ADD51RoundRect,0.075000X0.075000X0.500000X-0.075000X0.500000X-0.075000X-0.500000X0.075000X-0.500000X0*%
%ADD52O,1.000000X2.100000*%
%ADD53O,1.000000X1.800000*%
%ADD54RoundRect,0.250000X-0.250000X0.250000X-0.250000X-0.250000X0.250000X-0.250000X0.250000X0.250000X0*%
%ADD55C,1.904000*%
%ADD56RoundRect,0.250000X0.300000X0.300000X-0.300000X0.300000X-0.300000X-0.300000X0.300000X-0.300000X0*%
%ADD57R,2.950000X3.500000*%
G04 APERTURE END LIST*
D10*
G36*
X115605653Y-107050547D02*
G01*
X115599781Y-107273129D01*
X115585747Y-107405066D01*
X115554854Y-107516529D01*
X115502949Y-107614138D01*
X115430453Y-107697848D01*
X115335276Y-107767766D01*
X115263342Y-107801720D01*
X115185568Y-107822286D01*
X115100558Y-107829316D01*
X115008747Y-107820819D01*
X114923007Y-107795670D01*
X114841783Y-107753478D01*
X114769837Y-107696919D01*
X114711286Y-107628811D01*
X114665196Y-107547826D01*
X114619511Y-107663652D01*
X114558696Y-107756224D01*
X114482746Y-107829193D01*
X114392594Y-107883523D01*
X114292508Y-107916337D01*
X114179763Y-107927623D01*
X114089752Y-107920658D01*
X114001166Y-107899686D01*
X113913050Y-107864120D01*
X113831428Y-107815894D01*
X113762834Y-107758195D01*
X113705932Y-107690586D01*
X113662052Y-107613991D01*
X113630039Y-107524365D01*
X113610677Y-107419354D01*
X113602896Y-107283641D01*
X113598626Y-107028688D01*
X113933078Y-107028688D01*
X113937186Y-107227768D01*
X113945412Y-107306025D01*
X113974196Y-107388440D01*
X114025890Y-107452815D01*
X114071592Y-107483496D01*
X114127761Y-107502724D01*
X114197226Y-107509602D01*
X114282700Y-107498210D01*
X114351221Y-107465882D01*
X114405213Y-107413446D01*
X114443423Y-107339487D01*
X114462928Y-107233007D01*
X114472366Y-106980938D01*
X114472366Y-106919389D01*
X114808444Y-106919389D01*
X114815283Y-107213213D01*
X114840241Y-107308212D01*
X114886602Y-107376367D01*
X114929362Y-107408919D01*
X114980500Y-107428829D01*
X115042429Y-107435840D01*
X115127936Y-107422418D01*
X115192638Y-107384549D01*
X115224927Y-107346813D01*
X115248537Y-107297091D01*
X115262736Y-107232264D01*
X115269575Y-106886660D01*
X115269575Y-106654385D01*
X114808444Y-106654385D01*
X114808444Y-106919389D01*
X114472366Y-106919389D01*
X114472366Y-106654385D01*
X113933078Y-106654385D01*
X113933078Y-107028688D01*
X113598626Y-107028688D01*
X113597000Y-106931601D01*
X113597000Y-106249919D01*
X115605653Y-106249919D01*
X115605653Y-107050547D01*
G37*
G36*
X114788606Y-108198302D02*
G01*
X114958751Y-108229775D01*
X115100681Y-108278600D01*
X115246237Y-108359211D01*
X115376309Y-108464958D01*
X115451992Y-108547878D01*
X115511933Y-108634047D01*
X115557415Y-108723977D01*
X115600534Y-108851052D01*
X115627498Y-108994113D01*
X115636916Y-109155676D01*
X115624923Y-109332615D01*
X115590501Y-109489124D01*
X115535117Y-109628289D01*
X115459031Y-109752632D01*
X115361288Y-109863981D01*
X115247428Y-109956283D01*
X115116679Y-110029419D01*
X114966553Y-110083556D01*
X114793839Y-110117694D01*
X114594732Y-110129717D01*
X114397329Y-110117806D01*
X114225859Y-110083968D01*
X114076596Y-110030271D01*
X113946394Y-109957691D01*
X113832816Y-109866057D01*
X113735370Y-109755542D01*
X113659498Y-109631960D01*
X113604249Y-109493472D01*
X113569895Y-109337539D01*
X113557921Y-109161050D01*
X113558011Y-109159706D01*
X113901815Y-109159706D01*
X113913178Y-109277112D01*
X113946080Y-109380648D01*
X114000252Y-109473173D01*
X114077425Y-109556601D01*
X114168443Y-109620262D01*
X114282942Y-109668653D01*
X114426098Y-109700209D01*
X114604257Y-109711695D01*
X114780666Y-109700446D01*
X114921662Y-109669625D01*
X115033730Y-109622517D01*
X115122174Y-109560753D01*
X115196492Y-109479670D01*
X115249267Y-109387450D01*
X115281706Y-109281873D01*
X115293022Y-109159706D01*
X115281627Y-109037752D01*
X115248888Y-108931874D01*
X115195486Y-108838911D01*
X115120098Y-108756706D01*
X115030536Y-108693983D01*
X114917473Y-108646236D01*
X114775683Y-108615053D01*
X114598762Y-108603688D01*
X114425445Y-108615169D01*
X114284690Y-108646883D01*
X114170697Y-108695850D01*
X114078769Y-108760736D01*
X114000880Y-108845245D01*
X113946301Y-108938505D01*
X113913218Y-109042393D01*
X113901815Y-109159706D01*
X113558011Y-109159706D01*
X113569905Y-108982064D01*
X113604228Y-108824441D01*
X113659310Y-108684971D01*
X113734776Y-108561021D01*
X113831473Y-108450669D01*
X113944646Y-108358818D01*
X114073917Y-108286209D01*
X114221627Y-108232594D01*
X114390814Y-108198865D01*
X114585084Y-108187009D01*
X114788606Y-108198302D01*
G37*
G36*
X114788606Y-110374994D02*
G01*
X114958751Y-110406467D01*
X115100681Y-110455293D01*
X115246237Y-110535903D01*
X115376309Y-110641650D01*
X115451992Y-110724570D01*
X115511933Y-110810739D01*
X115557415Y-110900669D01*
X115600534Y-111027744D01*
X115627498Y-111170805D01*
X115636916Y-111332369D01*
X115624923Y-111509307D01*
X115590501Y-111665816D01*
X115535117Y-111804981D01*
X115459031Y-111929324D01*
X115361288Y-112040673D01*
X115247428Y-112132975D01*
X115116679Y-112206112D01*
X114966553Y-112260249D01*
X114793839Y-112294386D01*
X114594732Y-112306409D01*
X114397329Y-112294498D01*
X114225859Y-112260660D01*
X114076596Y-112206964D01*
X113946394Y-112134383D01*
X113832816Y-112042749D01*
X113735370Y-111932234D01*
X113659498Y-111808652D01*
X113604249Y-111670164D01*
X113569895Y-111514231D01*
X113557921Y-111337742D01*
X113558011Y-111336399D01*
X113901815Y-111336399D01*
X113913178Y-111453804D01*
X113946080Y-111557341D01*
X114000252Y-111649865D01*
X114077425Y-111733293D01*
X114168443Y-111796954D01*
X114282942Y-111845345D01*
X114426098Y-111876901D01*
X114604257Y-111888387D01*
X114780666Y-111877139D01*
X114921662Y-111846318D01*
X115033730Y-111799210D01*
X115122174Y-111737445D01*
X115196492Y-111656362D01*
X115249267Y-111564143D01*
X115281706Y-111458566D01*
X115293022Y-111336399D01*
X115281627Y-111214445D01*
X115248888Y-111108566D01*
X115195486Y-111015604D01*
X115120098Y-110933398D01*
X115030536Y-110870676D01*
X114917473Y-110822928D01*
X114775683Y-110791745D01*
X114598762Y-110780380D01*
X114425445Y-110791862D01*
X114284690Y-110823576D01*
X114170697Y-110872542D01*
X114078769Y-110937428D01*
X114000880Y-111021937D01*
X113946301Y-111115197D01*
X113913218Y-111219085D01*
X113901815Y-111336399D01*
X113558011Y-111336399D01*
X113569905Y-111158756D01*
X113604228Y-111001134D01*
X113659310Y-110861663D01*
X113734776Y-110737713D01*
X113831473Y-110627362D01*
X113944646Y-110535510D01*
X114073917Y-110462901D01*
X114221627Y-110409286D01*
X114390814Y-110375558D01*
X114585084Y-110363702D01*
X114788606Y-110374994D01*
G37*
G36*
X113597000Y-113073210D02*
G01*
X115269575Y-113073210D01*
X115269575Y-112478845D01*
X115605653Y-112478845D01*
X115605653Y-114070575D01*
X115269575Y-114070575D01*
X115269575Y-113477554D01*
X113597000Y-113477554D01*
X113597000Y-113073210D01*
G37*
G36*
X115605653Y-84310984D02*
G01*
X115597996Y-84527477D01*
X115578447Y-84677709D01*
X115551431Y-84777487D01*
X115506177Y-84867639D01*
X115442530Y-84944819D01*
X115358479Y-85010495D01*
X115262780Y-85058632D01*
X115157800Y-85087884D01*
X115041330Y-85097934D01*
X114929511Y-85089076D01*
X114831347Y-85063643D01*
X114744491Y-85022491D01*
X114667150Y-84965310D01*
X114603199Y-84894935D01*
X114550506Y-84807586D01*
X114509379Y-84700268D01*
X114481159Y-84569148D01*
X114398759Y-84691519D01*
X114312997Y-84785670D01*
X114201459Y-84874918D01*
X113987788Y-85015991D01*
X113597000Y-85260478D01*
X113597000Y-84776877D01*
X114033461Y-84484518D01*
X114244031Y-84338491D01*
X114327530Y-84271416D01*
X114379738Y-84210735D01*
X114403748Y-84163461D01*
X114753734Y-84163461D01*
X114762148Y-84427882D01*
X114778646Y-84526894D01*
X114812890Y-84591741D01*
X114864620Y-84640223D01*
X114931174Y-84670421D01*
X115017150Y-84681256D01*
X115083666Y-84674752D01*
X115138062Y-84656496D01*
X115182868Y-84627278D01*
X115233434Y-84563994D01*
X115262614Y-84474993D01*
X115269575Y-84179825D01*
X115269575Y-83864263D01*
X114753734Y-83864263D01*
X114753734Y-84163461D01*
X114403748Y-84163461D01*
X114410695Y-84149783D01*
X114426539Y-84076082D01*
X114433287Y-83946207D01*
X114433287Y-83864263D01*
X113597000Y-83864263D01*
X113597000Y-83459797D01*
X115605653Y-83459797D01*
X115605653Y-84310984D01*
G37*
G36*
X113597000Y-85478831D02*
G01*
X115605653Y-85478831D01*
X115605653Y-86963949D01*
X115269575Y-86963949D01*
X115269575Y-85883175D01*
X114824076Y-85883175D01*
X114824076Y-86888723D01*
X114487997Y-86888723D01*
X114487997Y-85883175D01*
X113933078Y-85883175D01*
X113933078Y-87002173D01*
X113597000Y-87002173D01*
X113597000Y-85478831D01*
G37*
G36*
X114237893Y-87242386D02*
G01*
X114276972Y-87635861D01*
X114152808Y-87670170D01*
X114060178Y-87718679D01*
X113992551Y-87779965D01*
X113943809Y-87857198D01*
X113912933Y-87953232D01*
X113901815Y-88073056D01*
X113912347Y-88201123D01*
X113940574Y-88296778D01*
X113983270Y-88367491D01*
X114042815Y-88424081D01*
X114105548Y-88455986D01*
X114173779Y-88466531D01*
X114239165Y-88455898D01*
X114292847Y-88424888D01*
X114335693Y-88372798D01*
X114378332Y-88279319D01*
X114467237Y-87955575D01*
X114533254Y-87740477D01*
X114600658Y-87593947D01*
X114667638Y-87499208D01*
X114757166Y-87417282D01*
X114853435Y-87360468D01*
X114958138Y-87326421D01*
X115073814Y-87314804D01*
X115174054Y-87324381D01*
X115269616Y-87352996D01*
X115362143Y-87401510D01*
X115443492Y-87466817D01*
X115511488Y-87549355D01*
X115566696Y-87651615D01*
X115604348Y-87762648D01*
X115628374Y-87892912D01*
X115636916Y-88045701D01*
X115624636Y-88236934D01*
X115590857Y-88391062D01*
X115538994Y-88514749D01*
X115470709Y-88613443D01*
X115381432Y-88696900D01*
X115279494Y-88757579D01*
X115162573Y-88796724D01*
X115027286Y-88813600D01*
X115011654Y-88409134D01*
X115110468Y-88383070D01*
X115182368Y-88345508D01*
X115233304Y-88297760D01*
X115268531Y-88237000D01*
X115292023Y-88153889D01*
X115300838Y-88041671D01*
X115291662Y-87926026D01*
X115266634Y-87835795D01*
X115228175Y-87765677D01*
X115193222Y-87729665D01*
X115152387Y-87708658D01*
X115103612Y-87701441D01*
X115038234Y-87716079D01*
X114981612Y-87761524D01*
X114946253Y-87819074D01*
X114901610Y-87933407D01*
X114846424Y-88133140D01*
X114768665Y-88407450D01*
X114700977Y-88569602D01*
X114644551Y-88657913D01*
X114576860Y-88731183D01*
X114497157Y-88790886D01*
X114407653Y-88834073D01*
X114302292Y-88861249D01*
X114177687Y-88870875D01*
X114065535Y-88860310D01*
X113958502Y-88828742D01*
X113854798Y-88775254D01*
X113763644Y-88703260D01*
X113689397Y-88613882D01*
X113631071Y-88504755D01*
X113592210Y-88385897D01*
X113567004Y-88242136D01*
X113557921Y-88068904D01*
X113570504Y-87877201D01*
X113605419Y-87719843D01*
X113659574Y-87590897D01*
X113731577Y-87485530D01*
X113824723Y-87396806D01*
X113937716Y-87326526D01*
X114073925Y-87274553D01*
X114237893Y-87242386D01*
G37*
G36*
X113597000Y-89210861D02*
G01*
X115605653Y-89210861D01*
X115605653Y-90695980D01*
X115269575Y-90695980D01*
X115269575Y-89615205D01*
X114824076Y-89615205D01*
X114824076Y-90620753D01*
X114487997Y-90620753D01*
X114487997Y-89615205D01*
X113933078Y-89615205D01*
X113933078Y-90734204D01*
X113597000Y-90734204D01*
X113597000Y-89210861D01*
G37*
G36*
X113597000Y-91527749D02*
G01*
X115269575Y-91527749D01*
X115269575Y-90933384D01*
X115605653Y-90933384D01*
X115605653Y-92525115D01*
X115269575Y-92525115D01*
X115269575Y-91932093D01*
X113597000Y-91932093D01*
X113597000Y-91527749D01*
G37*
G36*
X189833317Y-107029052D02*
G01*
X189497239Y-107029052D01*
X189497239Y-106157471D01*
X190298478Y-106157471D01*
X190371876Y-106247671D01*
X190443925Y-106368305D01*
X190514022Y-106525667D01*
X190566066Y-106688497D01*
X190596861Y-106850941D01*
X190607078Y-107014153D01*
X190598247Y-107171160D01*
X190572699Y-107313607D01*
X190531424Y-107443348D01*
X190474821Y-107561990D01*
X190401295Y-107671823D01*
X190314360Y-107766228D01*
X190213170Y-107846456D01*
X190096244Y-107913089D01*
X189928676Y-107977948D01*
X189750904Y-108017218D01*
X189560742Y-108030569D01*
X189404059Y-108021922D01*
X189259823Y-107996749D01*
X189126472Y-107955828D01*
X189002647Y-107899411D01*
X188887622Y-107826171D01*
X188787586Y-107738464D01*
X188701313Y-107635408D01*
X188628223Y-107515461D01*
X188574639Y-107383361D01*
X188540351Y-107225223D01*
X188528083Y-107035890D01*
X188539356Y-106847010D01*
X188570720Y-106690270D01*
X188619371Y-106560472D01*
X188683788Y-106453249D01*
X188768526Y-106358222D01*
X188867240Y-106282146D01*
X188981626Y-106223839D01*
X189114266Y-106183361D01*
X189192424Y-106585018D01*
X189099144Y-106622195D01*
X189021752Y-106675026D01*
X188957951Y-106744264D01*
X188911263Y-106826024D01*
X188882220Y-106922091D01*
X188871977Y-107035890D01*
X188883388Y-107166096D01*
X188915905Y-107277566D01*
X188968355Y-107373810D01*
X189041482Y-107457331D01*
X189129790Y-107522015D01*
X189239699Y-107570759D01*
X189375874Y-107602329D01*
X189544133Y-107613769D01*
X189726532Y-107602034D01*
X189873082Y-107569800D01*
X189990278Y-107520378D01*
X190083422Y-107455378D01*
X190161929Y-107370165D01*
X190217427Y-107274164D01*
X190251384Y-107165193D01*
X190263184Y-107040043D01*
X190250812Y-106913962D01*
X190212748Y-106785175D01*
X190155657Y-106664215D01*
X190090383Y-106565967D01*
X189833317Y-106565967D01*
X189833317Y-107029052D01*
G37*
G36*
X189298859Y-104257955D02*
G01*
X189401445Y-104280812D01*
X189487958Y-104316735D01*
X189567611Y-104366588D01*
X189633075Y-104423225D01*
X189685916Y-104486850D01*
X189746500Y-104592749D01*
X189781049Y-104696655D01*
X189801492Y-104857715D01*
X189809870Y-105116142D01*
X189809870Y-105379802D01*
X190568000Y-105379802D01*
X190568000Y-105784146D01*
X188559346Y-105784146D01*
X188559346Y-105184408D01*
X188895424Y-105184408D01*
X188895424Y-105379802D01*
X189473792Y-105379802D01*
X189473792Y-105158518D01*
X189463604Y-104939140D01*
X189441796Y-104838804D01*
X189400444Y-104766464D01*
X189341778Y-104712408D01*
X189269028Y-104678338D01*
X189183265Y-104666613D01*
X189111540Y-104674167D01*
X189051165Y-104695706D01*
X188999716Y-104730849D01*
X188957598Y-104777382D01*
X188927651Y-104831086D01*
X188909346Y-104893392D01*
X188899877Y-104983907D01*
X188895424Y-105184408D01*
X188559346Y-105184408D01*
X188559346Y-105135193D01*
X188569162Y-104797892D01*
X188589510Y-104654278D01*
X188631028Y-104546497D01*
X188695768Y-104451012D01*
X188786126Y-104365950D01*
X188892620Y-104303244D01*
X189021107Y-104263850D01*
X189177036Y-104249812D01*
X189298859Y-104257955D01*
G37*
G36*
X189927106Y-104020590D02*
G01*
X189888027Y-103627115D01*
X190012191Y-103592806D01*
X190104821Y-103544298D01*
X190172448Y-103483012D01*
X190221190Y-103405779D01*
X190252066Y-103309745D01*
X190263184Y-103189920D01*
X190252652Y-103061854D01*
X190224425Y-102966199D01*
X190181729Y-102895486D01*
X190122184Y-102838896D01*
X190059451Y-102806990D01*
X189991220Y-102796445D01*
X189925834Y-102807078D01*
X189872152Y-102838089D01*
X189829306Y-102890178D01*
X189786667Y-102983657D01*
X189697762Y-103307401D01*
X189631745Y-103522500D01*
X189564341Y-103669030D01*
X189497361Y-103763769D01*
X189407833Y-103845695D01*
X189311564Y-103902509D01*
X189206861Y-103936555D01*
X189091185Y-103948172D01*
X188990945Y-103938596D01*
X188895383Y-103909980D01*
X188802856Y-103861466D01*
X188721507Y-103796159D01*
X188653511Y-103713622D01*
X188598303Y-103611361D01*
X188560651Y-103500328D01*
X188536625Y-103370065D01*
X188528083Y-103217276D01*
X188540363Y-103026043D01*
X188574142Y-102871915D01*
X188626005Y-102748228D01*
X188694290Y-102649533D01*
X188783567Y-102566077D01*
X188885505Y-102505398D01*
X189002426Y-102466253D01*
X189137713Y-102449376D01*
X189153345Y-102853842D01*
X189054531Y-102879906D01*
X188982631Y-102917469D01*
X188931695Y-102965217D01*
X188896468Y-103025976D01*
X188872976Y-103109088D01*
X188864161Y-103221306D01*
X188873337Y-103336951D01*
X188898365Y-103427181D01*
X188936824Y-103497300D01*
X188971777Y-103533311D01*
X189012612Y-103554318D01*
X189061387Y-103561536D01*
X189126765Y-103546897D01*
X189183387Y-103501452D01*
X189218746Y-103443903D01*
X189263389Y-103329569D01*
X189318575Y-103129837D01*
X189396334Y-102855527D01*
X189464022Y-102693375D01*
X189520448Y-102605063D01*
X189588139Y-102531793D01*
X189667842Y-102472091D01*
X189757346Y-102428903D01*
X189862707Y-102401727D01*
X189987312Y-102392101D01*
X190099464Y-102402666D01*
X190206497Y-102434235D01*
X190310201Y-102487722D01*
X190401355Y-102559716D01*
X190475602Y-102649095D01*
X190533928Y-102758221D01*
X190572789Y-102877079D01*
X190597995Y-103020841D01*
X190607078Y-103194073D01*
X190594495Y-103385776D01*
X190559580Y-103543134D01*
X190505425Y-103672080D01*
X190433422Y-103777447D01*
X190340276Y-103866171D01*
X190227283Y-103936450D01*
X190091074Y-103988424D01*
X189927106Y-104020590D01*
G37*
G36*
X189747697Y-100381900D02*
G01*
X189889192Y-100402962D01*
X190010393Y-100435838D01*
X190151233Y-100495142D01*
X190268456Y-100566785D01*
X190365156Y-100650405D01*
X190426345Y-100725294D01*
X190479990Y-100818942D01*
X190525501Y-100934582D01*
X190556019Y-101079998D01*
X190568000Y-101292520D01*
X190568000Y-102053458D01*
X188559346Y-102053458D01*
X188559346Y-101467398D01*
X188895424Y-101467398D01*
X188895424Y-101649114D01*
X190231921Y-101649114D01*
X190231921Y-101347108D01*
X190226101Y-101189490D01*
X190212626Y-101102621D01*
X190178492Y-101011108D01*
X190128729Y-100939345D01*
X190085289Y-100901805D01*
X190022160Y-100866272D01*
X189933945Y-100833465D01*
X189785911Y-100804095D01*
X189564406Y-100792433D01*
X189344199Y-100804297D01*
X189205124Y-100833465D01*
X189090422Y-100884520D01*
X189009730Y-100948260D01*
X188951643Y-101030394D01*
X188914720Y-101135350D01*
X188901556Y-101240247D01*
X188895424Y-101467398D01*
X188559346Y-101467398D01*
X188559346Y-101314380D01*
X188570499Y-101079306D01*
X188597692Y-100933239D01*
X188641545Y-100820957D01*
X188702922Y-100720801D01*
X188782706Y-100631232D01*
X188876314Y-100555247D01*
X188984202Y-100491482D01*
X189108160Y-100439990D01*
X189238117Y-100405223D01*
X189394849Y-100382577D01*
X189582846Y-100374411D01*
X189747697Y-100381900D01*
G37*
G36*
X189767670Y-98182885D02*
G01*
X189939140Y-98216723D01*
X190088403Y-98270420D01*
X190218605Y-98343000D01*
X190332183Y-98434634D01*
X190429629Y-98545149D01*
X190505501Y-98668731D01*
X190560750Y-98807219D01*
X190595104Y-98963152D01*
X190607078Y-99139641D01*
X190595094Y-99318627D01*
X190560771Y-99476250D01*
X190505689Y-99615720D01*
X190430223Y-99739671D01*
X190333526Y-99850022D01*
X190220353Y-99941873D01*
X190091082Y-100014482D01*
X189943372Y-100068097D01*
X189774185Y-100101826D01*
X189579915Y-100113682D01*
X189376393Y-100102389D01*
X189206248Y-100070916D01*
X189064318Y-100022091D01*
X188918762Y-99941480D01*
X188788690Y-99835733D01*
X188713007Y-99752813D01*
X188653066Y-99666644D01*
X188607584Y-99576714D01*
X188564465Y-99449639D01*
X188537501Y-99306578D01*
X188528083Y-99145015D01*
X188528356Y-99140985D01*
X188871977Y-99140985D01*
X188883372Y-99262939D01*
X188916111Y-99368817D01*
X188969513Y-99461780D01*
X189044901Y-99543985D01*
X189134463Y-99606708D01*
X189247526Y-99654455D01*
X189389316Y-99685638D01*
X189566237Y-99697003D01*
X189739554Y-99685522D01*
X189880309Y-99653808D01*
X189994302Y-99604841D01*
X190086230Y-99539955D01*
X190164119Y-99455446D01*
X190218698Y-99362186D01*
X190251781Y-99258298D01*
X190263184Y-99140985D01*
X190251821Y-99023579D01*
X190218919Y-98920043D01*
X190164747Y-98827518D01*
X190087574Y-98744090D01*
X189996556Y-98680429D01*
X189882057Y-98632038D01*
X189738901Y-98600482D01*
X189560742Y-98588996D01*
X189384333Y-98600245D01*
X189243337Y-98631066D01*
X189131269Y-98678174D01*
X189042825Y-98739938D01*
X188968507Y-98821021D01*
X188915732Y-98913241D01*
X188883293Y-99018818D01*
X188871977Y-99140985D01*
X188528356Y-99140985D01*
X188540076Y-98968076D01*
X188574498Y-98811567D01*
X188629882Y-98672402D01*
X188705968Y-98548059D01*
X188803711Y-98436710D01*
X188917571Y-98344409D01*
X189048320Y-98271272D01*
X189198446Y-98217135D01*
X189371160Y-98182997D01*
X189570267Y-98170974D01*
X189767670Y-98182885D01*
G37*
G36*
X190568000Y-96712600D02*
G01*
X190568000Y-97096550D01*
X189114266Y-97096550D01*
X189114266Y-96739955D01*
X189320529Y-96739955D01*
X189190019Y-96645750D01*
X189124769Y-96575336D01*
X189087735Y-96497777D01*
X189075187Y-96409373D01*
X189083062Y-96323836D01*
X189106835Y-96239987D01*
X189147483Y-96156581D01*
X189481852Y-96275405D01*
X189433476Y-96372784D01*
X189419081Y-96455779D01*
X189430618Y-96531247D01*
X189463900Y-96592433D01*
X189521087Y-96639278D01*
X189625711Y-96680482D01*
X189774422Y-96702215D01*
X190116150Y-96712600D01*
X190568000Y-96712600D01*
G37*
G36*
X189950554Y-95710350D02*
G01*
X190060666Y-95697027D01*
X190147278Y-95665488D01*
X190215435Y-95617415D01*
X190268127Y-95553186D01*
X190299355Y-95480382D01*
X190310079Y-95396131D01*
X190297601Y-95311689D01*
X190261963Y-95244456D01*
X190202702Y-95192623D01*
X190106869Y-95151522D01*
X190169395Y-94769038D01*
X190304163Y-94829698D01*
X190411406Y-94907280D01*
X190495215Y-95002045D01*
X190555786Y-95113131D01*
X190593673Y-95244321D01*
X190607078Y-95400283D01*
X190595823Y-95552054D01*
X190564079Y-95680402D01*
X190513773Y-95789329D01*
X190445267Y-95881959D01*
X190357340Y-95960332D01*
X190254615Y-96021237D01*
X190137835Y-96065966D01*
X190004626Y-96093995D01*
X189852124Y-96103825D01*
X189670094Y-96090575D01*
X189517532Y-96053372D01*
X189389356Y-95994724D01*
X189281572Y-95915269D01*
X189190894Y-95814232D01*
X189127194Y-95702748D01*
X189088523Y-95578592D01*
X189075187Y-95438507D01*
X189077313Y-95415182D01*
X189372187Y-95415182D01*
X189382673Y-95494889D01*
X189413175Y-95563171D01*
X189464755Y-95622911D01*
X189530846Y-95666886D01*
X189613126Y-95694274D01*
X189716080Y-95703511D01*
X189716080Y-95129662D01*
X189606662Y-95142403D01*
X189523190Y-95171823D01*
X189459870Y-95215758D01*
X189410770Y-95274959D01*
X189381980Y-95340627D01*
X189372187Y-95415182D01*
X189077313Y-95415182D01*
X189089650Y-95279856D01*
X189130852Y-95144589D01*
X189197424Y-95028195D01*
X189290609Y-94927551D01*
X189377429Y-94865397D01*
X189483098Y-94815111D01*
X189611009Y-94777529D01*
X189765266Y-94754448D01*
X189950554Y-94748521D01*
X189950554Y-95710350D01*
G37*
G36*
X190568000Y-94037530D02*
G01*
X189114266Y-94622248D01*
X189114266Y-94219247D01*
X189856154Y-93945939D01*
X190103938Y-93866682D01*
X189979374Y-93827115D01*
X189856154Y-93786082D01*
X189114266Y-93510088D01*
X189114266Y-93115269D01*
X190568000Y-93691805D01*
X190568000Y-94037530D01*
G37*
G36*
X190161579Y-91838612D02*
G01*
X190568000Y-91838612D01*
X190568000Y-92210227D01*
X190161579Y-92210227D01*
X190161579Y-93030029D01*
X189826845Y-93030029D01*
X188630959Y-92210227D01*
X189153589Y-92210227D01*
X189825501Y-92670747D01*
X189825501Y-92210227D01*
X189153589Y-92210227D01*
X188630959Y-92210227D01*
X188559346Y-92161135D01*
X188559346Y-91838612D01*
X189825501Y-91838612D01*
X189825501Y-91589973D01*
X190161579Y-91589973D01*
X190161579Y-91838612D01*
G37*
G36*
X190568000Y-91325702D02*
G01*
X190185027Y-91325702D01*
X190185027Y-90941874D01*
X190568000Y-90941874D01*
X190568000Y-91325702D01*
G37*
G36*
X189825559Y-89340845D02*
G01*
X190021427Y-89368560D01*
X190178685Y-89410457D01*
X190303694Y-89463957D01*
X190401914Y-89527464D01*
X190491058Y-89615995D01*
X190554329Y-89718960D01*
X190593369Y-89839223D01*
X190607078Y-89981145D01*
X190592561Y-90122375D01*
X190550591Y-90245695D01*
X190481352Y-90354942D01*
X190382131Y-90452534D01*
X190294201Y-90508830D01*
X190177287Y-90557228D01*
X190024637Y-90595858D01*
X189828407Y-90621836D01*
X189579793Y-90631442D01*
X189339465Y-90621341D01*
X189144420Y-90593662D01*
X188987615Y-90551790D01*
X188862773Y-90498278D01*
X188764510Y-90434704D01*
X188675360Y-90346172D01*
X188612090Y-90243226D01*
X188573053Y-90123001D01*
X188559346Y-89981145D01*
X188879793Y-89981145D01*
X188890843Y-90046939D01*
X188924123Y-90105465D01*
X188980584Y-90150965D01*
X189083125Y-90190217D01*
X189257222Y-90217729D01*
X189583945Y-90229784D01*
X189908532Y-90218688D01*
X190067668Y-90194247D01*
X190153995Y-90165020D01*
X190209661Y-90134923D01*
X190243034Y-90104732D01*
X190275724Y-90046872D01*
X190286632Y-89981145D01*
X190275573Y-89915266D01*
X190242302Y-89856826D01*
X190185826Y-89811231D01*
X190083300Y-89771951D01*
X189910398Y-89744461D01*
X189583945Y-89732384D01*
X189259265Y-89743483D01*
X189100222Y-89767921D01*
X188982575Y-89812129D01*
X188924123Y-89857436D01*
X188890871Y-89915365D01*
X188879793Y-89981145D01*
X188559346Y-89981145D01*
X188573184Y-89839418D01*
X188612657Y-89718961D01*
X188676772Y-89615465D01*
X188767319Y-89526121D01*
X188864360Y-89463216D01*
X188988484Y-89410113D01*
X189145299Y-89368442D01*
X189341341Y-89340825D01*
X189583945Y-89330726D01*
X189825559Y-89340845D01*
G37*
D11*
X148822580Y-111789357D02*
X148870200Y-111836976D01*
X148870200Y-111836976D02*
X148917819Y-111979833D01*
X148917819Y-111979833D02*
X148917819Y-112075071D01*
X148917819Y-112075071D02*
X148870200Y-112217928D01*
X148870200Y-112217928D02*
X148774961Y-112313166D01*
X148774961Y-112313166D02*
X148679723Y-112360785D01*
X148679723Y-112360785D02*
X148489247Y-112408404D01*
X148489247Y-112408404D02*
X148346390Y-112408404D01*
X148346390Y-112408404D02*
X148155914Y-112360785D01*
X148155914Y-112360785D02*
X148060676Y-112313166D01*
X148060676Y-112313166D02*
X147965438Y-112217928D01*
X147965438Y-112217928D02*
X147917819Y-112075071D01*
X147917819Y-112075071D02*
X147917819Y-111979833D01*
X147917819Y-111979833D02*
X147965438Y-111836976D01*
X147965438Y-111836976D02*
X148013057Y-111789357D01*
X147917819Y-110884595D02*
X147917819Y-111360785D01*
X147917819Y-111360785D02*
X148394009Y-111408404D01*
X148394009Y-111408404D02*
X148346390Y-111360785D01*
X148346390Y-111360785D02*
X148298771Y-111265547D01*
X148298771Y-111265547D02*
X148298771Y-111027452D01*
X148298771Y-111027452D02*
X148346390Y-110932214D01*
X148346390Y-110932214D02*
X148394009Y-110884595D01*
X148394009Y-110884595D02*
X148489247Y-110836976D01*
X148489247Y-110836976D02*
X148727342Y-110836976D01*
X148727342Y-110836976D02*
X148822580Y-110884595D01*
X148822580Y-110884595D02*
X148870200Y-110932214D01*
X148870200Y-110932214D02*
X148917819Y-111027452D01*
X148917819Y-111027452D02*
X148917819Y-111265547D01*
X148917819Y-111265547D02*
X148870200Y-111360785D01*
X148870200Y-111360785D02*
X148822580Y-111408404D01*
X148013057Y-110456023D02*
X147965438Y-110408404D01*
X147965438Y-110408404D02*
X147917819Y-110313166D01*
X147917819Y-110313166D02*
X147917819Y-110075071D01*
X147917819Y-110075071D02*
X147965438Y-109979833D01*
X147965438Y-109979833D02*
X148013057Y-109932214D01*
X148013057Y-109932214D02*
X148108295Y-109884595D01*
X148108295Y-109884595D02*
X148203533Y-109884595D01*
X148203533Y-109884595D02*
X148346390Y-109932214D01*
X148346390Y-109932214D02*
X148917819Y-110503642D01*
X148917819Y-110503642D02*
X148917819Y-109884595D01*
X179527569Y-84253094D02*
X178527569Y-84253094D01*
X178527569Y-84253094D02*
X178527569Y-84014999D01*
X178527569Y-84014999D02*
X178575188Y-83872142D01*
X178575188Y-83872142D02*
X178670426Y-83776904D01*
X178670426Y-83776904D02*
X178765664Y-83729285D01*
X178765664Y-83729285D02*
X178956140Y-83681666D01*
X178956140Y-83681666D02*
X179098997Y-83681666D01*
X179098997Y-83681666D02*
X179289473Y-83729285D01*
X179289473Y-83729285D02*
X179384711Y-83776904D01*
X179384711Y-83776904D02*
X179479950Y-83872142D01*
X179479950Y-83872142D02*
X179527569Y-84014999D01*
X179527569Y-84014999D02*
X179527569Y-84253094D01*
X178527569Y-82824523D02*
X178527569Y-83014999D01*
X178527569Y-83014999D02*
X178575188Y-83110237D01*
X178575188Y-83110237D02*
X178622807Y-83157856D01*
X178622807Y-83157856D02*
X178765664Y-83253094D01*
X178765664Y-83253094D02*
X178956140Y-83300713D01*
X178956140Y-83300713D02*
X179337092Y-83300713D01*
X179337092Y-83300713D02*
X179432330Y-83253094D01*
X179432330Y-83253094D02*
X179479950Y-83205475D01*
X179479950Y-83205475D02*
X179527569Y-83110237D01*
X179527569Y-83110237D02*
X179527569Y-82919761D01*
X179527569Y-82919761D02*
X179479950Y-82824523D01*
X179479950Y-82824523D02*
X179432330Y-82776904D01*
X179432330Y-82776904D02*
X179337092Y-82729285D01*
X179337092Y-82729285D02*
X179098997Y-82729285D01*
X179098997Y-82729285D02*
X179003759Y-82776904D01*
X179003759Y-82776904D02*
X178956140Y-82824523D01*
X178956140Y-82824523D02*
X178908521Y-82919761D01*
X178908521Y-82919761D02*
X178908521Y-83110237D01*
X178908521Y-83110237D02*
X178956140Y-83205475D01*
X178956140Y-83205475D02*
X179003759Y-83253094D01*
X179003759Y-83253094D02*
X179098997Y-83300713D01*
X128836009Y-97234333D02*
X128836009Y-97567666D01*
X129359819Y-97567666D02*
X128359819Y-97567666D01*
X128359819Y-97567666D02*
X128359819Y-97091476D01*
X129359819Y-96186714D02*
X129359819Y-96758142D01*
X129359819Y-96472428D02*
X128359819Y-96472428D01*
X128359819Y-96472428D02*
X128502676Y-96567666D01*
X128502676Y-96567666D02*
X128597914Y-96662904D01*
X128597914Y-96662904D02*
X128645533Y-96758142D01*
X127976333Y-114151580D02*
X127928714Y-114199200D01*
X127928714Y-114199200D02*
X127785857Y-114246819D01*
X127785857Y-114246819D02*
X127690619Y-114246819D01*
X127690619Y-114246819D02*
X127547762Y-114199200D01*
X127547762Y-114199200D02*
X127452524Y-114103961D01*
X127452524Y-114103961D02*
X127404905Y-114008723D01*
X127404905Y-114008723D02*
X127357286Y-113818247D01*
X127357286Y-113818247D02*
X127357286Y-113675390D01*
X127357286Y-113675390D02*
X127404905Y-113484914D01*
X127404905Y-113484914D02*
X127452524Y-113389676D01*
X127452524Y-113389676D02*
X127547762Y-113294438D01*
X127547762Y-113294438D02*
X127690619Y-113246819D01*
X127690619Y-113246819D02*
X127785857Y-113246819D01*
X127785857Y-113246819D02*
X127928714Y-113294438D01*
X127928714Y-113294438D02*
X127976333Y-113342057D01*
X128309667Y-113246819D02*
X128928714Y-113246819D01*
X128928714Y-113246819D02*
X128595381Y-113627771D01*
X128595381Y-113627771D02*
X128738238Y-113627771D01*
X128738238Y-113627771D02*
X128833476Y-113675390D01*
X128833476Y-113675390D02*
X128881095Y-113723009D01*
X128881095Y-113723009D02*
X128928714Y-113818247D01*
X128928714Y-113818247D02*
X128928714Y-114056342D01*
X128928714Y-114056342D02*
X128881095Y-114151580D01*
X128881095Y-114151580D02*
X128833476Y-114199200D01*
X128833476Y-114199200D02*
X128738238Y-114246819D01*
X128738238Y-114246819D02*
X128452524Y-114246819D01*
X128452524Y-114246819D02*
X128357286Y-114199200D01*
X128357286Y-114199200D02*
X128309667Y-114151580D01*
X134739142Y-94212580D02*
X134691523Y-94260200D01*
X134691523Y-94260200D02*
X134548666Y-94307819D01*
X134548666Y-94307819D02*
X134453428Y-94307819D01*
X134453428Y-94307819D02*
X134310571Y-94260200D01*
X134310571Y-94260200D02*
X134215333Y-94164961D01*
X134215333Y-94164961D02*
X134167714Y-94069723D01*
X134167714Y-94069723D02*
X134120095Y-93879247D01*
X134120095Y-93879247D02*
X134120095Y-93736390D01*
X134120095Y-93736390D02*
X134167714Y-93545914D01*
X134167714Y-93545914D02*
X134215333Y-93450676D01*
X134215333Y-93450676D02*
X134310571Y-93355438D01*
X134310571Y-93355438D02*
X134453428Y-93307819D01*
X134453428Y-93307819D02*
X134548666Y-93307819D01*
X134548666Y-93307819D02*
X134691523Y-93355438D01*
X134691523Y-93355438D02*
X134739142Y-93403057D01*
X135643904Y-93307819D02*
X135167714Y-93307819D01*
X135167714Y-93307819D02*
X135120095Y-93784009D01*
X135120095Y-93784009D02*
X135167714Y-93736390D01*
X135167714Y-93736390D02*
X135262952Y-93688771D01*
X135262952Y-93688771D02*
X135501047Y-93688771D01*
X135501047Y-93688771D02*
X135596285Y-93736390D01*
X135596285Y-93736390D02*
X135643904Y-93784009D01*
X135643904Y-93784009D02*
X135691523Y-93879247D01*
X135691523Y-93879247D02*
X135691523Y-94117342D01*
X135691523Y-94117342D02*
X135643904Y-94212580D01*
X135643904Y-94212580D02*
X135596285Y-94260200D01*
X135596285Y-94260200D02*
X135501047Y-94307819D01*
X135501047Y-94307819D02*
X135262952Y-94307819D01*
X135262952Y-94307819D02*
X135167714Y-94260200D01*
X135167714Y-94260200D02*
X135120095Y-94212580D01*
X136548666Y-93641152D02*
X136548666Y-94307819D01*
X136310571Y-93260200D02*
X136072476Y-93974485D01*
X136072476Y-93974485D02*
X136691523Y-93974485D01*
X149987095Y-105499819D02*
X149987095Y-106309342D01*
X149987095Y-106309342D02*
X150034714Y-106404580D01*
X150034714Y-106404580D02*
X150082333Y-106452200D01*
X150082333Y-106452200D02*
X150177571Y-106499819D01*
X150177571Y-106499819D02*
X150368047Y-106499819D01*
X150368047Y-106499819D02*
X150463285Y-106452200D01*
X150463285Y-106452200D02*
X150510904Y-106404580D01*
X150510904Y-106404580D02*
X150558523Y-106309342D01*
X150558523Y-106309342D02*
X150558523Y-105499819D01*
X151558523Y-106499819D02*
X150987095Y-106499819D01*
X151272809Y-106499819D02*
X151272809Y-105499819D01*
X151272809Y-105499819D02*
X151177571Y-105642676D01*
X151177571Y-105642676D02*
X151082333Y-105737914D01*
X151082333Y-105737914D02*
X150987095Y-105785533D01*
X144377580Y-92819457D02*
X144425200Y-92867076D01*
X144425200Y-92867076D02*
X144472819Y-93009933D01*
X144472819Y-93009933D02*
X144472819Y-93105171D01*
X144472819Y-93105171D02*
X144425200Y-93248028D01*
X144425200Y-93248028D02*
X144329961Y-93343266D01*
X144329961Y-93343266D02*
X144234723Y-93390885D01*
X144234723Y-93390885D02*
X144044247Y-93438504D01*
X144044247Y-93438504D02*
X143901390Y-93438504D01*
X143901390Y-93438504D02*
X143710914Y-93390885D01*
X143710914Y-93390885D02*
X143615676Y-93343266D01*
X143615676Y-93343266D02*
X143520438Y-93248028D01*
X143520438Y-93248028D02*
X143472819Y-93105171D01*
X143472819Y-93105171D02*
X143472819Y-93009933D01*
X143472819Y-93009933D02*
X143520438Y-92867076D01*
X143520438Y-92867076D02*
X143568057Y-92819457D01*
X143806152Y-91962314D02*
X144472819Y-91962314D01*
X143425200Y-92200409D02*
X144139485Y-92438504D01*
X144139485Y-92438504D02*
X144139485Y-91819457D01*
X143472819Y-91533742D02*
X143472819Y-90914695D01*
X143472819Y-90914695D02*
X143853771Y-91248028D01*
X143853771Y-91248028D02*
X143853771Y-91105171D01*
X143853771Y-91105171D02*
X143901390Y-91009933D01*
X143901390Y-91009933D02*
X143949009Y-90962314D01*
X143949009Y-90962314D02*
X144044247Y-90914695D01*
X144044247Y-90914695D02*
X144282342Y-90914695D01*
X144282342Y-90914695D02*
X144377580Y-90962314D01*
X144377580Y-90962314D02*
X144425200Y-91009933D01*
X144425200Y-91009933D02*
X144472819Y-91105171D01*
X144472819Y-91105171D02*
X144472819Y-91390885D01*
X144472819Y-91390885D02*
X144425200Y-91486123D01*
X144425200Y-91486123D02*
X144377580Y-91533742D01*
X175082569Y-84253094D02*
X174082569Y-84253094D01*
X174082569Y-84253094D02*
X174082569Y-84014999D01*
X174082569Y-84014999D02*
X174130188Y-83872142D01*
X174130188Y-83872142D02*
X174225426Y-83776904D01*
X174225426Y-83776904D02*
X174320664Y-83729285D01*
X174320664Y-83729285D02*
X174511140Y-83681666D01*
X174511140Y-83681666D02*
X174653997Y-83681666D01*
X174653997Y-83681666D02*
X174844473Y-83729285D01*
X174844473Y-83729285D02*
X174939711Y-83776904D01*
X174939711Y-83776904D02*
X175034950Y-83872142D01*
X175034950Y-83872142D02*
X175082569Y-84014999D01*
X175082569Y-84014999D02*
X175082569Y-84253094D01*
X174082569Y-82776904D02*
X174082569Y-83253094D01*
X174082569Y-83253094D02*
X174558759Y-83300713D01*
X174558759Y-83300713D02*
X174511140Y-83253094D01*
X174511140Y-83253094D02*
X174463521Y-83157856D01*
X174463521Y-83157856D02*
X174463521Y-82919761D01*
X174463521Y-82919761D02*
X174511140Y-82824523D01*
X174511140Y-82824523D02*
X174558759Y-82776904D01*
X174558759Y-82776904D02*
X174653997Y-82729285D01*
X174653997Y-82729285D02*
X174892092Y-82729285D01*
X174892092Y-82729285D02*
X174987330Y-82776904D01*
X174987330Y-82776904D02*
X175034950Y-82824523D01*
X175034950Y-82824523D02*
X175082569Y-82919761D01*
X175082569Y-82919761D02*
X175082569Y-83157856D01*
X175082569Y-83157856D02*
X175034950Y-83253094D01*
X175034950Y-83253094D02*
X174987330Y-83300713D01*
X139311142Y-104880580D02*
X139263523Y-104928200D01*
X139263523Y-104928200D02*
X139120666Y-104975819D01*
X139120666Y-104975819D02*
X139025428Y-104975819D01*
X139025428Y-104975819D02*
X138882571Y-104928200D01*
X138882571Y-104928200D02*
X138787333Y-104832961D01*
X138787333Y-104832961D02*
X138739714Y-104737723D01*
X138739714Y-104737723D02*
X138692095Y-104547247D01*
X138692095Y-104547247D02*
X138692095Y-104404390D01*
X138692095Y-104404390D02*
X138739714Y-104213914D01*
X138739714Y-104213914D02*
X138787333Y-104118676D01*
X138787333Y-104118676D02*
X138882571Y-104023438D01*
X138882571Y-104023438D02*
X139025428Y-103975819D01*
X139025428Y-103975819D02*
X139120666Y-103975819D01*
X139120666Y-103975819D02*
X139263523Y-104023438D01*
X139263523Y-104023438D02*
X139311142Y-104071057D01*
X140168285Y-104309152D02*
X140168285Y-104975819D01*
X139930190Y-103928200D02*
X139692095Y-104642485D01*
X139692095Y-104642485D02*
X140311142Y-104642485D01*
X140596857Y-103975819D02*
X141263523Y-103975819D01*
X141263523Y-103975819D02*
X140834952Y-104975819D01*
X139914333Y-109198580D02*
X139866714Y-109246200D01*
X139866714Y-109246200D02*
X139723857Y-109293819D01*
X139723857Y-109293819D02*
X139628619Y-109293819D01*
X139628619Y-109293819D02*
X139485762Y-109246200D01*
X139485762Y-109246200D02*
X139390524Y-109150961D01*
X139390524Y-109150961D02*
X139342905Y-109055723D01*
X139342905Y-109055723D02*
X139295286Y-108865247D01*
X139295286Y-108865247D02*
X139295286Y-108722390D01*
X139295286Y-108722390D02*
X139342905Y-108531914D01*
X139342905Y-108531914D02*
X139390524Y-108436676D01*
X139390524Y-108436676D02*
X139485762Y-108341438D01*
X139485762Y-108341438D02*
X139628619Y-108293819D01*
X139628619Y-108293819D02*
X139723857Y-108293819D01*
X139723857Y-108293819D02*
X139866714Y-108341438D01*
X139866714Y-108341438D02*
X139914333Y-108389057D01*
X140390524Y-109293819D02*
X140581000Y-109293819D01*
X140581000Y-109293819D02*
X140676238Y-109246200D01*
X140676238Y-109246200D02*
X140723857Y-109198580D01*
X140723857Y-109198580D02*
X140819095Y-109055723D01*
X140819095Y-109055723D02*
X140866714Y-108865247D01*
X140866714Y-108865247D02*
X140866714Y-108484295D01*
X140866714Y-108484295D02*
X140819095Y-108389057D01*
X140819095Y-108389057D02*
X140771476Y-108341438D01*
X140771476Y-108341438D02*
X140676238Y-108293819D01*
X140676238Y-108293819D02*
X140485762Y-108293819D01*
X140485762Y-108293819D02*
X140390524Y-108341438D01*
X140390524Y-108341438D02*
X140342905Y-108389057D01*
X140342905Y-108389057D02*
X140295286Y-108484295D01*
X140295286Y-108484295D02*
X140295286Y-108722390D01*
X140295286Y-108722390D02*
X140342905Y-108817628D01*
X140342905Y-108817628D02*
X140390524Y-108865247D01*
X140390524Y-108865247D02*
X140485762Y-108912866D01*
X140485762Y-108912866D02*
X140676238Y-108912866D01*
X140676238Y-108912866D02*
X140771476Y-108865247D01*
X140771476Y-108865247D02*
X140819095Y-108817628D01*
X140819095Y-108817628D02*
X140866714Y-108722390D01*
X113784142Y-99133819D02*
X113450809Y-98657628D01*
X113212714Y-99133819D02*
X113212714Y-98133819D01*
X113212714Y-98133819D02*
X113593666Y-98133819D01*
X113593666Y-98133819D02*
X113688904Y-98181438D01*
X113688904Y-98181438D02*
X113736523Y-98229057D01*
X113736523Y-98229057D02*
X113784142Y-98324295D01*
X113784142Y-98324295D02*
X113784142Y-98467152D01*
X113784142Y-98467152D02*
X113736523Y-98562390D01*
X113736523Y-98562390D02*
X113688904Y-98610009D01*
X113688904Y-98610009D02*
X113593666Y-98657628D01*
X113593666Y-98657628D02*
X113212714Y-98657628D01*
X114165095Y-98229057D02*
X114212714Y-98181438D01*
X114212714Y-98181438D02*
X114307952Y-98133819D01*
X114307952Y-98133819D02*
X114546047Y-98133819D01*
X114546047Y-98133819D02*
X114641285Y-98181438D01*
X114641285Y-98181438D02*
X114688904Y-98229057D01*
X114688904Y-98229057D02*
X114736523Y-98324295D01*
X114736523Y-98324295D02*
X114736523Y-98419533D01*
X114736523Y-98419533D02*
X114688904Y-98562390D01*
X114688904Y-98562390D02*
X114117476Y-99133819D01*
X114117476Y-99133819D02*
X114736523Y-99133819D01*
X115355571Y-98133819D02*
X115450809Y-98133819D01*
X115450809Y-98133819D02*
X115546047Y-98181438D01*
X115546047Y-98181438D02*
X115593666Y-98229057D01*
X115593666Y-98229057D02*
X115641285Y-98324295D01*
X115641285Y-98324295D02*
X115688904Y-98514771D01*
X115688904Y-98514771D02*
X115688904Y-98752866D01*
X115688904Y-98752866D02*
X115641285Y-98943342D01*
X115641285Y-98943342D02*
X115593666Y-99038580D01*
X115593666Y-99038580D02*
X115546047Y-99086200D01*
X115546047Y-99086200D02*
X115450809Y-99133819D01*
X115450809Y-99133819D02*
X115355571Y-99133819D01*
X115355571Y-99133819D02*
X115260333Y-99086200D01*
X115260333Y-99086200D02*
X115212714Y-99038580D01*
X115212714Y-99038580D02*
X115165095Y-98943342D01*
X115165095Y-98943342D02*
X115117476Y-98752866D01*
X115117476Y-98752866D02*
X115117476Y-98514771D01*
X115117476Y-98514771D02*
X115165095Y-98324295D01*
X115165095Y-98324295D02*
X115212714Y-98229057D01*
X115212714Y-98229057D02*
X115260333Y-98181438D01*
X115260333Y-98181438D02*
X115355571Y-98133819D01*
X146885819Y-89769792D02*
X146409628Y-90103125D01*
X146885819Y-90341220D02*
X145885819Y-90341220D01*
X145885819Y-90341220D02*
X145885819Y-89960268D01*
X145885819Y-89960268D02*
X145933438Y-89865030D01*
X145933438Y-89865030D02*
X145981057Y-89817411D01*
X145981057Y-89817411D02*
X146076295Y-89769792D01*
X146076295Y-89769792D02*
X146219152Y-89769792D01*
X146219152Y-89769792D02*
X146314390Y-89817411D01*
X146314390Y-89817411D02*
X146362009Y-89865030D01*
X146362009Y-89865030D02*
X146409628Y-89960268D01*
X146409628Y-89960268D02*
X146409628Y-90341220D01*
X146885819Y-88817411D02*
X146885819Y-89388839D01*
X146885819Y-89103125D02*
X145885819Y-89103125D01*
X145885819Y-89103125D02*
X146028676Y-89198363D01*
X146028676Y-89198363D02*
X146123914Y-89293601D01*
X146123914Y-89293601D02*
X146171533Y-89388839D01*
X142345580Y-92946457D02*
X142393200Y-92994076D01*
X142393200Y-92994076D02*
X142440819Y-93136933D01*
X142440819Y-93136933D02*
X142440819Y-93232171D01*
X142440819Y-93232171D02*
X142393200Y-93375028D01*
X142393200Y-93375028D02*
X142297961Y-93470266D01*
X142297961Y-93470266D02*
X142202723Y-93517885D01*
X142202723Y-93517885D02*
X142012247Y-93565504D01*
X142012247Y-93565504D02*
X141869390Y-93565504D01*
X141869390Y-93565504D02*
X141678914Y-93517885D01*
X141678914Y-93517885D02*
X141583676Y-93470266D01*
X141583676Y-93470266D02*
X141488438Y-93375028D01*
X141488438Y-93375028D02*
X141440819Y-93232171D01*
X141440819Y-93232171D02*
X141440819Y-93136933D01*
X141440819Y-93136933D02*
X141488438Y-92994076D01*
X141488438Y-92994076D02*
X141536057Y-92946457D01*
X141774152Y-92089314D02*
X142440819Y-92089314D01*
X141393200Y-92327409D02*
X142107485Y-92565504D01*
X142107485Y-92565504D02*
X142107485Y-91946457D01*
X141774152Y-91136933D02*
X142440819Y-91136933D01*
X141393200Y-91375028D02*
X142107485Y-91613123D01*
X142107485Y-91613123D02*
X142107485Y-90994076D01*
X142954476Y-109436819D02*
X143621142Y-110436819D01*
X143621142Y-109436819D02*
X142954476Y-110436819D01*
X143954476Y-109532057D02*
X144002095Y-109484438D01*
X144002095Y-109484438D02*
X144097333Y-109436819D01*
X144097333Y-109436819D02*
X144335428Y-109436819D01*
X144335428Y-109436819D02*
X144430666Y-109484438D01*
X144430666Y-109484438D02*
X144478285Y-109532057D01*
X144478285Y-109532057D02*
X144525904Y-109627295D01*
X144525904Y-109627295D02*
X144525904Y-109722533D01*
X144525904Y-109722533D02*
X144478285Y-109865390D01*
X144478285Y-109865390D02*
X143906857Y-110436819D01*
X143906857Y-110436819D02*
X144525904Y-110436819D01*
X154505819Y-89769792D02*
X154029628Y-90103125D01*
X154505819Y-90341220D02*
X153505819Y-90341220D01*
X153505819Y-90341220D02*
X153505819Y-89960268D01*
X153505819Y-89960268D02*
X153553438Y-89865030D01*
X153553438Y-89865030D02*
X153601057Y-89817411D01*
X153601057Y-89817411D02*
X153696295Y-89769792D01*
X153696295Y-89769792D02*
X153839152Y-89769792D01*
X153839152Y-89769792D02*
X153934390Y-89817411D01*
X153934390Y-89817411D02*
X153982009Y-89865030D01*
X153982009Y-89865030D02*
X154029628Y-89960268D01*
X154029628Y-89960268D02*
X154029628Y-90341220D01*
X153505819Y-89436458D02*
X153505819Y-88769792D01*
X153505819Y-88769792D02*
X154505819Y-89198363D01*
X134707333Y-111960819D02*
X134374000Y-111484628D01*
X134135905Y-111960819D02*
X134135905Y-110960819D01*
X134135905Y-110960819D02*
X134516857Y-110960819D01*
X134516857Y-110960819D02*
X134612095Y-111008438D01*
X134612095Y-111008438D02*
X134659714Y-111056057D01*
X134659714Y-111056057D02*
X134707333Y-111151295D01*
X134707333Y-111151295D02*
X134707333Y-111294152D01*
X134707333Y-111294152D02*
X134659714Y-111389390D01*
X134659714Y-111389390D02*
X134612095Y-111437009D01*
X134612095Y-111437009D02*
X134516857Y-111484628D01*
X134516857Y-111484628D02*
X134135905Y-111484628D01*
X135612095Y-110960819D02*
X135135905Y-110960819D01*
X135135905Y-110960819D02*
X135088286Y-111437009D01*
X135088286Y-111437009D02*
X135135905Y-111389390D01*
X135135905Y-111389390D02*
X135231143Y-111341771D01*
X135231143Y-111341771D02*
X135469238Y-111341771D01*
X135469238Y-111341771D02*
X135564476Y-111389390D01*
X135564476Y-111389390D02*
X135612095Y-111437009D01*
X135612095Y-111437009D02*
X135659714Y-111532247D01*
X135659714Y-111532247D02*
X135659714Y-111770342D01*
X135659714Y-111770342D02*
X135612095Y-111865580D01*
X135612095Y-111865580D02*
X135564476Y-111913200D01*
X135564476Y-111913200D02*
X135469238Y-111960819D01*
X135469238Y-111960819D02*
X135231143Y-111960819D01*
X135231143Y-111960819D02*
X135135905Y-111913200D01*
X135135905Y-111913200D02*
X135088286Y-111865580D01*
X148790819Y-89769792D02*
X148314628Y-90103125D01*
X148790819Y-90341220D02*
X147790819Y-90341220D01*
X147790819Y-90341220D02*
X147790819Y-89960268D01*
X147790819Y-89960268D02*
X147838438Y-89865030D01*
X147838438Y-89865030D02*
X147886057Y-89817411D01*
X147886057Y-89817411D02*
X147981295Y-89769792D01*
X147981295Y-89769792D02*
X148124152Y-89769792D01*
X148124152Y-89769792D02*
X148219390Y-89817411D01*
X148219390Y-89817411D02*
X148267009Y-89865030D01*
X148267009Y-89865030D02*
X148314628Y-89960268D01*
X148314628Y-89960268D02*
X148314628Y-90341220D01*
X147790819Y-88912649D02*
X147790819Y-89103125D01*
X147790819Y-89103125D02*
X147838438Y-89198363D01*
X147838438Y-89198363D02*
X147886057Y-89245982D01*
X147886057Y-89245982D02*
X148028914Y-89341220D01*
X148028914Y-89341220D02*
X148219390Y-89388839D01*
X148219390Y-89388839D02*
X148600342Y-89388839D01*
X148600342Y-89388839D02*
X148695580Y-89341220D01*
X148695580Y-89341220D02*
X148743200Y-89293601D01*
X148743200Y-89293601D02*
X148790819Y-89198363D01*
X148790819Y-89198363D02*
X148790819Y-89007887D01*
X148790819Y-89007887D02*
X148743200Y-88912649D01*
X148743200Y-88912649D02*
X148695580Y-88865030D01*
X148695580Y-88865030D02*
X148600342Y-88817411D01*
X148600342Y-88817411D02*
X148362247Y-88817411D01*
X148362247Y-88817411D02*
X148267009Y-88865030D01*
X148267009Y-88865030D02*
X148219390Y-88912649D01*
X148219390Y-88912649D02*
X148171771Y-89007887D01*
X148171771Y-89007887D02*
X148171771Y-89198363D01*
X148171771Y-89198363D02*
X148219390Y-89293601D01*
X148219390Y-89293601D02*
X148267009Y-89341220D01*
X148267009Y-89341220D02*
X148362247Y-89388839D01*
X121739819Y-86590094D02*
X120739819Y-86590094D01*
X120739819Y-86590094D02*
X120739819Y-86351999D01*
X120739819Y-86351999D02*
X120787438Y-86209142D01*
X120787438Y-86209142D02*
X120882676Y-86113904D01*
X120882676Y-86113904D02*
X120977914Y-86066285D01*
X120977914Y-86066285D02*
X121168390Y-86018666D01*
X121168390Y-86018666D02*
X121311247Y-86018666D01*
X121311247Y-86018666D02*
X121501723Y-86066285D01*
X121501723Y-86066285D02*
X121596961Y-86113904D01*
X121596961Y-86113904D02*
X121692200Y-86209142D01*
X121692200Y-86209142D02*
X121739819Y-86351999D01*
X121739819Y-86351999D02*
X121739819Y-86590094D01*
X121739819Y-85066285D02*
X121739819Y-85637713D01*
X121739819Y-85351999D02*
X120739819Y-85351999D01*
X120739819Y-85351999D02*
X120882676Y-85447237D01*
X120882676Y-85447237D02*
X120977914Y-85542475D01*
X120977914Y-85542475D02*
X121025533Y-85637713D01*
X133754905Y-86052819D02*
X133754905Y-85052819D01*
X133754905Y-85052819D02*
X133993000Y-85052819D01*
X133993000Y-85052819D02*
X134135857Y-85100438D01*
X134135857Y-85100438D02*
X134231095Y-85195676D01*
X134231095Y-85195676D02*
X134278714Y-85290914D01*
X134278714Y-85290914D02*
X134326333Y-85481390D01*
X134326333Y-85481390D02*
X134326333Y-85624247D01*
X134326333Y-85624247D02*
X134278714Y-85814723D01*
X134278714Y-85814723D02*
X134231095Y-85909961D01*
X134231095Y-85909961D02*
X134135857Y-86005200D01*
X134135857Y-86005200D02*
X133993000Y-86052819D01*
X133993000Y-86052819D02*
X133754905Y-86052819D01*
X134707286Y-85148057D02*
X134754905Y-85100438D01*
X134754905Y-85100438D02*
X134850143Y-85052819D01*
X134850143Y-85052819D02*
X135088238Y-85052819D01*
X135088238Y-85052819D02*
X135183476Y-85100438D01*
X135183476Y-85100438D02*
X135231095Y-85148057D01*
X135231095Y-85148057D02*
X135278714Y-85243295D01*
X135278714Y-85243295D02*
X135278714Y-85338533D01*
X135278714Y-85338533D02*
X135231095Y-85481390D01*
X135231095Y-85481390D02*
X134659667Y-86052819D01*
X134659667Y-86052819D02*
X135278714Y-86052819D01*
X134707333Y-97768580D02*
X134659714Y-97816200D01*
X134659714Y-97816200D02*
X134516857Y-97863819D01*
X134516857Y-97863819D02*
X134421619Y-97863819D01*
X134421619Y-97863819D02*
X134278762Y-97816200D01*
X134278762Y-97816200D02*
X134183524Y-97720961D01*
X134183524Y-97720961D02*
X134135905Y-97625723D01*
X134135905Y-97625723D02*
X134088286Y-97435247D01*
X134088286Y-97435247D02*
X134088286Y-97292390D01*
X134088286Y-97292390D02*
X134135905Y-97101914D01*
X134135905Y-97101914D02*
X134183524Y-97006676D01*
X134183524Y-97006676D02*
X134278762Y-96911438D01*
X134278762Y-96911438D02*
X134421619Y-96863819D01*
X134421619Y-96863819D02*
X134516857Y-96863819D01*
X134516857Y-96863819D02*
X134659714Y-96911438D01*
X134659714Y-96911438D02*
X134707333Y-96959057D01*
X135612095Y-96863819D02*
X135135905Y-96863819D01*
X135135905Y-96863819D02*
X135088286Y-97340009D01*
X135088286Y-97340009D02*
X135135905Y-97292390D01*
X135135905Y-97292390D02*
X135231143Y-97244771D01*
X135231143Y-97244771D02*
X135469238Y-97244771D01*
X135469238Y-97244771D02*
X135564476Y-97292390D01*
X135564476Y-97292390D02*
X135612095Y-97340009D01*
X135612095Y-97340009D02*
X135659714Y-97435247D01*
X135659714Y-97435247D02*
X135659714Y-97673342D01*
X135659714Y-97673342D02*
X135612095Y-97768580D01*
X135612095Y-97768580D02*
X135564476Y-97816200D01*
X135564476Y-97816200D02*
X135469238Y-97863819D01*
X135469238Y-97863819D02*
X135231143Y-97863819D01*
X135231143Y-97863819D02*
X135135905Y-97816200D01*
X135135905Y-97816200D02*
X135088286Y-97768580D01*
X157934819Y-83483220D02*
X156934819Y-83483220D01*
X156934819Y-83483220D02*
X156934819Y-83245125D01*
X156934819Y-83245125D02*
X156982438Y-83102268D01*
X156982438Y-83102268D02*
X157077676Y-83007030D01*
X157077676Y-83007030D02*
X157172914Y-82959411D01*
X157172914Y-82959411D02*
X157363390Y-82911792D01*
X157363390Y-82911792D02*
X157506247Y-82911792D01*
X157506247Y-82911792D02*
X157696723Y-82959411D01*
X157696723Y-82959411D02*
X157791961Y-83007030D01*
X157791961Y-83007030D02*
X157887200Y-83102268D01*
X157887200Y-83102268D02*
X157934819Y-83245125D01*
X157934819Y-83245125D02*
X157934819Y-83483220D01*
X157934819Y-82435601D02*
X157934819Y-82245125D01*
X157934819Y-82245125D02*
X157887200Y-82149887D01*
X157887200Y-82149887D02*
X157839580Y-82102268D01*
X157839580Y-82102268D02*
X157696723Y-82007030D01*
X157696723Y-82007030D02*
X157506247Y-81959411D01*
X157506247Y-81959411D02*
X157125295Y-81959411D01*
X157125295Y-81959411D02*
X157030057Y-82007030D01*
X157030057Y-82007030D02*
X156982438Y-82054649D01*
X156982438Y-82054649D02*
X156934819Y-82149887D01*
X156934819Y-82149887D02*
X156934819Y-82340363D01*
X156934819Y-82340363D02*
X156982438Y-82435601D01*
X156982438Y-82435601D02*
X157030057Y-82483220D01*
X157030057Y-82483220D02*
X157125295Y-82530839D01*
X157125295Y-82530839D02*
X157363390Y-82530839D01*
X157363390Y-82530839D02*
X157458628Y-82483220D01*
X157458628Y-82483220D02*
X157506247Y-82435601D01*
X157506247Y-82435601D02*
X157553866Y-82340363D01*
X157553866Y-82340363D02*
X157553866Y-82149887D01*
X157553866Y-82149887D02*
X157506247Y-82054649D01*
X157506247Y-82054649D02*
X157458628Y-82007030D01*
X157458628Y-82007030D02*
X157363390Y-81959411D01*
X150854580Y-95797666D02*
X150902200Y-95845285D01*
X150902200Y-95845285D02*
X150949819Y-95988142D01*
X150949819Y-95988142D02*
X150949819Y-96083380D01*
X150949819Y-96083380D02*
X150902200Y-96226237D01*
X150902200Y-96226237D02*
X150806961Y-96321475D01*
X150806961Y-96321475D02*
X150711723Y-96369094D01*
X150711723Y-96369094D02*
X150521247Y-96416713D01*
X150521247Y-96416713D02*
X150378390Y-96416713D01*
X150378390Y-96416713D02*
X150187914Y-96369094D01*
X150187914Y-96369094D02*
X150092676Y-96321475D01*
X150092676Y-96321475D02*
X149997438Y-96226237D01*
X149997438Y-96226237D02*
X149949819Y-96083380D01*
X149949819Y-96083380D02*
X149949819Y-95988142D01*
X149949819Y-95988142D02*
X149997438Y-95845285D01*
X149997438Y-95845285D02*
X150045057Y-95797666D01*
X150949819Y-94845285D02*
X150949819Y-95416713D01*
X150949819Y-95130999D02*
X149949819Y-95130999D01*
X149949819Y-95130999D02*
X150092676Y-95226237D01*
X150092676Y-95226237D02*
X150187914Y-95321475D01*
X150187914Y-95321475D02*
X150235533Y-95416713D01*
X134707333Y-105896580D02*
X134659714Y-105944200D01*
X134659714Y-105944200D02*
X134516857Y-105991819D01*
X134516857Y-105991819D02*
X134421619Y-105991819D01*
X134421619Y-105991819D02*
X134278762Y-105944200D01*
X134278762Y-105944200D02*
X134183524Y-105848961D01*
X134183524Y-105848961D02*
X134135905Y-105753723D01*
X134135905Y-105753723D02*
X134088286Y-105563247D01*
X134088286Y-105563247D02*
X134088286Y-105420390D01*
X134088286Y-105420390D02*
X134135905Y-105229914D01*
X134135905Y-105229914D02*
X134183524Y-105134676D01*
X134183524Y-105134676D02*
X134278762Y-105039438D01*
X134278762Y-105039438D02*
X134421619Y-104991819D01*
X134421619Y-104991819D02*
X134516857Y-104991819D01*
X134516857Y-104991819D02*
X134659714Y-105039438D01*
X134659714Y-105039438D02*
X134707333Y-105087057D01*
X135088286Y-105087057D02*
X135135905Y-105039438D01*
X135135905Y-105039438D02*
X135231143Y-104991819D01*
X135231143Y-104991819D02*
X135469238Y-104991819D01*
X135469238Y-104991819D02*
X135564476Y-105039438D01*
X135564476Y-105039438D02*
X135612095Y-105087057D01*
X135612095Y-105087057D02*
X135659714Y-105182295D01*
X135659714Y-105182295D02*
X135659714Y-105277533D01*
X135659714Y-105277533D02*
X135612095Y-105420390D01*
X135612095Y-105420390D02*
X135040667Y-105991819D01*
X135040667Y-105991819D02*
X135659714Y-105991819D01*
X124674333Y-114151580D02*
X124626714Y-114199200D01*
X124626714Y-114199200D02*
X124483857Y-114246819D01*
X124483857Y-114246819D02*
X124388619Y-114246819D01*
X124388619Y-114246819D02*
X124245762Y-114199200D01*
X124245762Y-114199200D02*
X124150524Y-114103961D01*
X124150524Y-114103961D02*
X124102905Y-114008723D01*
X124102905Y-114008723D02*
X124055286Y-113818247D01*
X124055286Y-113818247D02*
X124055286Y-113675390D01*
X124055286Y-113675390D02*
X124102905Y-113484914D01*
X124102905Y-113484914D02*
X124150524Y-113389676D01*
X124150524Y-113389676D02*
X124245762Y-113294438D01*
X124245762Y-113294438D02*
X124388619Y-113246819D01*
X124388619Y-113246819D02*
X124483857Y-113246819D01*
X124483857Y-113246819D02*
X124626714Y-113294438D01*
X124626714Y-113294438D02*
X124674333Y-113342057D01*
X125531476Y-113580152D02*
X125531476Y-114246819D01*
X125293381Y-113199200D02*
X125055286Y-113913485D01*
X125055286Y-113913485D02*
X125674333Y-113913485D01*
X134707333Y-107928580D02*
X134659714Y-107976200D01*
X134659714Y-107976200D02*
X134516857Y-108023819D01*
X134516857Y-108023819D02*
X134421619Y-108023819D01*
X134421619Y-108023819D02*
X134278762Y-107976200D01*
X134278762Y-107976200D02*
X134183524Y-107880961D01*
X134183524Y-107880961D02*
X134135905Y-107785723D01*
X134135905Y-107785723D02*
X134088286Y-107595247D01*
X134088286Y-107595247D02*
X134088286Y-107452390D01*
X134088286Y-107452390D02*
X134135905Y-107261914D01*
X134135905Y-107261914D02*
X134183524Y-107166676D01*
X134183524Y-107166676D02*
X134278762Y-107071438D01*
X134278762Y-107071438D02*
X134421619Y-107023819D01*
X134421619Y-107023819D02*
X134516857Y-107023819D01*
X134516857Y-107023819D02*
X134659714Y-107071438D01*
X134659714Y-107071438D02*
X134707333Y-107119057D01*
X135564476Y-107023819D02*
X135374000Y-107023819D01*
X135374000Y-107023819D02*
X135278762Y-107071438D01*
X135278762Y-107071438D02*
X135231143Y-107119057D01*
X135231143Y-107119057D02*
X135135905Y-107261914D01*
X135135905Y-107261914D02*
X135088286Y-107452390D01*
X135088286Y-107452390D02*
X135088286Y-107833342D01*
X135088286Y-107833342D02*
X135135905Y-107928580D01*
X135135905Y-107928580D02*
X135183524Y-107976200D01*
X135183524Y-107976200D02*
X135278762Y-108023819D01*
X135278762Y-108023819D02*
X135469238Y-108023819D01*
X135469238Y-108023819D02*
X135564476Y-107976200D01*
X135564476Y-107976200D02*
X135612095Y-107928580D01*
X135612095Y-107928580D02*
X135659714Y-107833342D01*
X135659714Y-107833342D02*
X135659714Y-107595247D01*
X135659714Y-107595247D02*
X135612095Y-107500009D01*
X135612095Y-107500009D02*
X135564476Y-107452390D01*
X135564476Y-107452390D02*
X135469238Y-107404771D01*
X135469238Y-107404771D02*
X135278762Y-107404771D01*
X135278762Y-107404771D02*
X135183524Y-107452390D01*
X135183524Y-107452390D02*
X135135905Y-107500009D01*
X135135905Y-107500009D02*
X135088286Y-107595247D01*
X134707333Y-101832580D02*
X134659714Y-101880200D01*
X134659714Y-101880200D02*
X134516857Y-101927819D01*
X134516857Y-101927819D02*
X134421619Y-101927819D01*
X134421619Y-101927819D02*
X134278762Y-101880200D01*
X134278762Y-101880200D02*
X134183524Y-101784961D01*
X134183524Y-101784961D02*
X134135905Y-101689723D01*
X134135905Y-101689723D02*
X134088286Y-101499247D01*
X134088286Y-101499247D02*
X134088286Y-101356390D01*
X134088286Y-101356390D02*
X134135905Y-101165914D01*
X134135905Y-101165914D02*
X134183524Y-101070676D01*
X134183524Y-101070676D02*
X134278762Y-100975438D01*
X134278762Y-100975438D02*
X134421619Y-100927819D01*
X134421619Y-100927819D02*
X134516857Y-100927819D01*
X134516857Y-100927819D02*
X134659714Y-100975438D01*
X134659714Y-100975438D02*
X134707333Y-101023057D01*
X135278762Y-101356390D02*
X135183524Y-101308771D01*
X135183524Y-101308771D02*
X135135905Y-101261152D01*
X135135905Y-101261152D02*
X135088286Y-101165914D01*
X135088286Y-101165914D02*
X135088286Y-101118295D01*
X135088286Y-101118295D02*
X135135905Y-101023057D01*
X135135905Y-101023057D02*
X135183524Y-100975438D01*
X135183524Y-100975438D02*
X135278762Y-100927819D01*
X135278762Y-100927819D02*
X135469238Y-100927819D01*
X135469238Y-100927819D02*
X135564476Y-100975438D01*
X135564476Y-100975438D02*
X135612095Y-101023057D01*
X135612095Y-101023057D02*
X135659714Y-101118295D01*
X135659714Y-101118295D02*
X135659714Y-101165914D01*
X135659714Y-101165914D02*
X135612095Y-101261152D01*
X135612095Y-101261152D02*
X135564476Y-101308771D01*
X135564476Y-101308771D02*
X135469238Y-101356390D01*
X135469238Y-101356390D02*
X135278762Y-101356390D01*
X135278762Y-101356390D02*
X135183524Y-101404009D01*
X135183524Y-101404009D02*
X135135905Y-101451628D01*
X135135905Y-101451628D02*
X135088286Y-101546866D01*
X135088286Y-101546866D02*
X135088286Y-101737342D01*
X135088286Y-101737342D02*
X135135905Y-101832580D01*
X135135905Y-101832580D02*
X135183524Y-101880200D01*
X135183524Y-101880200D02*
X135278762Y-101927819D01*
X135278762Y-101927819D02*
X135469238Y-101927819D01*
X135469238Y-101927819D02*
X135564476Y-101880200D01*
X135564476Y-101880200D02*
X135612095Y-101832580D01*
X135612095Y-101832580D02*
X135659714Y-101737342D01*
X135659714Y-101737342D02*
X135659714Y-101546866D01*
X135659714Y-101546866D02*
X135612095Y-101451628D01*
X135612095Y-101451628D02*
X135564476Y-101404009D01*
X135564476Y-101404009D02*
X135469238Y-101356390D01*
X156537819Y-83483220D02*
X155537819Y-83483220D01*
X155537819Y-83483220D02*
X155537819Y-83245125D01*
X155537819Y-83245125D02*
X155585438Y-83102268D01*
X155585438Y-83102268D02*
X155680676Y-83007030D01*
X155680676Y-83007030D02*
X155775914Y-82959411D01*
X155775914Y-82959411D02*
X155966390Y-82911792D01*
X155966390Y-82911792D02*
X156109247Y-82911792D01*
X156109247Y-82911792D02*
X156299723Y-82959411D01*
X156299723Y-82959411D02*
X156394961Y-83007030D01*
X156394961Y-83007030D02*
X156490200Y-83102268D01*
X156490200Y-83102268D02*
X156537819Y-83245125D01*
X156537819Y-83245125D02*
X156537819Y-83483220D01*
X155966390Y-82340363D02*
X155918771Y-82435601D01*
X155918771Y-82435601D02*
X155871152Y-82483220D01*
X155871152Y-82483220D02*
X155775914Y-82530839D01*
X155775914Y-82530839D02*
X155728295Y-82530839D01*
X155728295Y-82530839D02*
X155633057Y-82483220D01*
X155633057Y-82483220D02*
X155585438Y-82435601D01*
X155585438Y-82435601D02*
X155537819Y-82340363D01*
X155537819Y-82340363D02*
X155537819Y-82149887D01*
X155537819Y-82149887D02*
X155585438Y-82054649D01*
X155585438Y-82054649D02*
X155633057Y-82007030D01*
X155633057Y-82007030D02*
X155728295Y-81959411D01*
X155728295Y-81959411D02*
X155775914Y-81959411D01*
X155775914Y-81959411D02*
X155871152Y-82007030D01*
X155871152Y-82007030D02*
X155918771Y-82054649D01*
X155918771Y-82054649D02*
X155966390Y-82149887D01*
X155966390Y-82149887D02*
X155966390Y-82340363D01*
X155966390Y-82340363D02*
X156014009Y-82435601D01*
X156014009Y-82435601D02*
X156061628Y-82483220D01*
X156061628Y-82483220D02*
X156156866Y-82530839D01*
X156156866Y-82530839D02*
X156347342Y-82530839D01*
X156347342Y-82530839D02*
X156442580Y-82483220D01*
X156442580Y-82483220D02*
X156490200Y-82435601D01*
X156490200Y-82435601D02*
X156537819Y-82340363D01*
X156537819Y-82340363D02*
X156537819Y-82149887D01*
X156537819Y-82149887D02*
X156490200Y-82054649D01*
X156490200Y-82054649D02*
X156442580Y-82007030D01*
X156442580Y-82007030D02*
X156347342Y-81959411D01*
X156347342Y-81959411D02*
X156156866Y-81959411D01*
X156156866Y-81959411D02*
X156061628Y-82007030D01*
X156061628Y-82007030D02*
X156014009Y-82054649D01*
X156014009Y-82054649D02*
X155966390Y-82149887D01*
X134707333Y-95831819D02*
X134374000Y-95355628D01*
X134135905Y-95831819D02*
X134135905Y-94831819D01*
X134135905Y-94831819D02*
X134516857Y-94831819D01*
X134516857Y-94831819D02*
X134612095Y-94879438D01*
X134612095Y-94879438D02*
X134659714Y-94927057D01*
X134659714Y-94927057D02*
X134707333Y-95022295D01*
X134707333Y-95022295D02*
X134707333Y-95165152D01*
X134707333Y-95165152D02*
X134659714Y-95260390D01*
X134659714Y-95260390D02*
X134612095Y-95308009D01*
X134612095Y-95308009D02*
X134516857Y-95355628D01*
X134516857Y-95355628D02*
X134135905Y-95355628D01*
X135040667Y-94831819D02*
X135659714Y-94831819D01*
X135659714Y-94831819D02*
X135326381Y-95212771D01*
X135326381Y-95212771D02*
X135469238Y-95212771D01*
X135469238Y-95212771D02*
X135564476Y-95260390D01*
X135564476Y-95260390D02*
X135612095Y-95308009D01*
X135612095Y-95308009D02*
X135659714Y-95403247D01*
X135659714Y-95403247D02*
X135659714Y-95641342D01*
X135659714Y-95641342D02*
X135612095Y-95736580D01*
X135612095Y-95736580D02*
X135564476Y-95784200D01*
X135564476Y-95784200D02*
X135469238Y-95831819D01*
X135469238Y-95831819D02*
X135183524Y-95831819D01*
X135183524Y-95831819D02*
X135088286Y-95784200D01*
X135088286Y-95784200D02*
X135040667Y-95736580D01*
X134739142Y-92748080D02*
X134691523Y-92795700D01*
X134691523Y-92795700D02*
X134548666Y-92843319D01*
X134548666Y-92843319D02*
X134453428Y-92843319D01*
X134453428Y-92843319D02*
X134310571Y-92795700D01*
X134310571Y-92795700D02*
X134215333Y-92700461D01*
X134215333Y-92700461D02*
X134167714Y-92605223D01*
X134167714Y-92605223D02*
X134120095Y-92414747D01*
X134120095Y-92414747D02*
X134120095Y-92271890D01*
X134120095Y-92271890D02*
X134167714Y-92081414D01*
X134167714Y-92081414D02*
X134215333Y-91986176D01*
X134215333Y-91986176D02*
X134310571Y-91890938D01*
X134310571Y-91890938D02*
X134453428Y-91843319D01*
X134453428Y-91843319D02*
X134548666Y-91843319D01*
X134548666Y-91843319D02*
X134691523Y-91890938D01*
X134691523Y-91890938D02*
X134739142Y-91938557D01*
X135643904Y-91843319D02*
X135167714Y-91843319D01*
X135167714Y-91843319D02*
X135120095Y-92319509D01*
X135120095Y-92319509D02*
X135167714Y-92271890D01*
X135167714Y-92271890D02*
X135262952Y-92224271D01*
X135262952Y-92224271D02*
X135501047Y-92224271D01*
X135501047Y-92224271D02*
X135596285Y-92271890D01*
X135596285Y-92271890D02*
X135643904Y-92319509D01*
X135643904Y-92319509D02*
X135691523Y-92414747D01*
X135691523Y-92414747D02*
X135691523Y-92652842D01*
X135691523Y-92652842D02*
X135643904Y-92748080D01*
X135643904Y-92748080D02*
X135596285Y-92795700D01*
X135596285Y-92795700D02*
X135501047Y-92843319D01*
X135501047Y-92843319D02*
X135262952Y-92843319D01*
X135262952Y-92843319D02*
X135167714Y-92795700D01*
X135167714Y-92795700D02*
X135120095Y-92748080D01*
X136024857Y-91843319D02*
X136643904Y-91843319D01*
X136643904Y-91843319D02*
X136310571Y-92224271D01*
X136310571Y-92224271D02*
X136453428Y-92224271D01*
X136453428Y-92224271D02*
X136548666Y-92271890D01*
X136548666Y-92271890D02*
X136596285Y-92319509D01*
X136596285Y-92319509D02*
X136643904Y-92414747D01*
X136643904Y-92414747D02*
X136643904Y-92652842D01*
X136643904Y-92652842D02*
X136596285Y-92748080D01*
X136596285Y-92748080D02*
X136548666Y-92795700D01*
X136548666Y-92795700D02*
X136453428Y-92843319D01*
X136453428Y-92843319D02*
X136167714Y-92843319D01*
X136167714Y-92843319D02*
X136072476Y-92795700D01*
X136072476Y-92795700D02*
X136024857Y-92748080D01*
X144980819Y-89769792D02*
X144504628Y-90103125D01*
X144980819Y-90341220D02*
X143980819Y-90341220D01*
X143980819Y-90341220D02*
X143980819Y-89960268D01*
X143980819Y-89960268D02*
X144028438Y-89865030D01*
X144028438Y-89865030D02*
X144076057Y-89817411D01*
X144076057Y-89817411D02*
X144171295Y-89769792D01*
X144171295Y-89769792D02*
X144314152Y-89769792D01*
X144314152Y-89769792D02*
X144409390Y-89817411D01*
X144409390Y-89817411D02*
X144457009Y-89865030D01*
X144457009Y-89865030D02*
X144504628Y-89960268D01*
X144504628Y-89960268D02*
X144504628Y-90341220D01*
X144980819Y-88817411D02*
X144980819Y-89388839D01*
X144980819Y-89103125D02*
X143980819Y-89103125D01*
X143980819Y-89103125D02*
X144123676Y-89198363D01*
X144123676Y-89198363D02*
X144218914Y-89293601D01*
X144218914Y-89293601D02*
X144266533Y-89388839D01*
X144314152Y-87960268D02*
X144980819Y-87960268D01*
X143933200Y-88198363D02*
X144647485Y-88436458D01*
X144647485Y-88436458D02*
X144647485Y-87817411D01*
X141170819Y-89769792D02*
X140694628Y-90103125D01*
X141170819Y-90341220D02*
X140170819Y-90341220D01*
X140170819Y-90341220D02*
X140170819Y-89960268D01*
X140170819Y-89960268D02*
X140218438Y-89865030D01*
X140218438Y-89865030D02*
X140266057Y-89817411D01*
X140266057Y-89817411D02*
X140361295Y-89769792D01*
X140361295Y-89769792D02*
X140504152Y-89769792D01*
X140504152Y-89769792D02*
X140599390Y-89817411D01*
X140599390Y-89817411D02*
X140647009Y-89865030D01*
X140647009Y-89865030D02*
X140694628Y-89960268D01*
X140694628Y-89960268D02*
X140694628Y-90341220D01*
X140266057Y-89388839D02*
X140218438Y-89341220D01*
X140218438Y-89341220D02*
X140170819Y-89245982D01*
X140170819Y-89245982D02*
X140170819Y-89007887D01*
X140170819Y-89007887D02*
X140218438Y-88912649D01*
X140218438Y-88912649D02*
X140266057Y-88865030D01*
X140266057Y-88865030D02*
X140361295Y-88817411D01*
X140361295Y-88817411D02*
X140456533Y-88817411D01*
X140456533Y-88817411D02*
X140599390Y-88865030D01*
X140599390Y-88865030D02*
X141170819Y-89436458D01*
X141170819Y-89436458D02*
X141170819Y-88817411D01*
X150695819Y-89769792D02*
X150219628Y-90103125D01*
X150695819Y-90341220D02*
X149695819Y-90341220D01*
X149695819Y-90341220D02*
X149695819Y-89960268D01*
X149695819Y-89960268D02*
X149743438Y-89865030D01*
X149743438Y-89865030D02*
X149791057Y-89817411D01*
X149791057Y-89817411D02*
X149886295Y-89769792D01*
X149886295Y-89769792D02*
X150029152Y-89769792D01*
X150029152Y-89769792D02*
X150124390Y-89817411D01*
X150124390Y-89817411D02*
X150172009Y-89865030D01*
X150172009Y-89865030D02*
X150219628Y-89960268D01*
X150219628Y-89960268D02*
X150219628Y-90341220D01*
X150695819Y-89293601D02*
X150695819Y-89103125D01*
X150695819Y-89103125D02*
X150648200Y-89007887D01*
X150648200Y-89007887D02*
X150600580Y-88960268D01*
X150600580Y-88960268D02*
X150457723Y-88865030D01*
X150457723Y-88865030D02*
X150267247Y-88817411D01*
X150267247Y-88817411D02*
X149886295Y-88817411D01*
X149886295Y-88817411D02*
X149791057Y-88865030D01*
X149791057Y-88865030D02*
X149743438Y-88912649D01*
X149743438Y-88912649D02*
X149695819Y-89007887D01*
X149695819Y-89007887D02*
X149695819Y-89198363D01*
X149695819Y-89198363D02*
X149743438Y-89293601D01*
X149743438Y-89293601D02*
X149791057Y-89341220D01*
X149791057Y-89341220D02*
X149886295Y-89388839D01*
X149886295Y-89388839D02*
X150124390Y-89388839D01*
X150124390Y-89388839D02*
X150219628Y-89341220D01*
X150219628Y-89341220D02*
X150267247Y-89293601D01*
X150267247Y-89293601D02*
X150314866Y-89198363D01*
X150314866Y-89198363D02*
X150314866Y-89007887D01*
X150314866Y-89007887D02*
X150267247Y-88912649D01*
X150267247Y-88912649D02*
X150219628Y-88865030D01*
X150219628Y-88865030D02*
X150124390Y-88817411D01*
X143075819Y-89769792D02*
X142599628Y-90103125D01*
X143075819Y-90341220D02*
X142075819Y-90341220D01*
X142075819Y-90341220D02*
X142075819Y-89960268D01*
X142075819Y-89960268D02*
X142123438Y-89865030D01*
X142123438Y-89865030D02*
X142171057Y-89817411D01*
X142171057Y-89817411D02*
X142266295Y-89769792D01*
X142266295Y-89769792D02*
X142409152Y-89769792D01*
X142409152Y-89769792D02*
X142504390Y-89817411D01*
X142504390Y-89817411D02*
X142552009Y-89865030D01*
X142552009Y-89865030D02*
X142599628Y-89960268D01*
X142599628Y-89960268D02*
X142599628Y-90341220D01*
X143075819Y-88817411D02*
X143075819Y-89388839D01*
X143075819Y-89103125D02*
X142075819Y-89103125D01*
X142075819Y-89103125D02*
X142218676Y-89198363D01*
X142218676Y-89198363D02*
X142313914Y-89293601D01*
X142313914Y-89293601D02*
X142361533Y-89388839D01*
X142171057Y-88436458D02*
X142123438Y-88388839D01*
X142123438Y-88388839D02*
X142075819Y-88293601D01*
X142075819Y-88293601D02*
X142075819Y-88055506D01*
X142075819Y-88055506D02*
X142123438Y-87960268D01*
X142123438Y-87960268D02*
X142171057Y-87912649D01*
X142171057Y-87912649D02*
X142266295Y-87865030D01*
X142266295Y-87865030D02*
X142361533Y-87865030D01*
X142361533Y-87865030D02*
X142504390Y-87912649D01*
X142504390Y-87912649D02*
X143075819Y-88484077D01*
X143075819Y-88484077D02*
X143075819Y-87865030D01*
X134707333Y-99800580D02*
X134659714Y-99848200D01*
X134659714Y-99848200D02*
X134516857Y-99895819D01*
X134516857Y-99895819D02*
X134421619Y-99895819D01*
X134421619Y-99895819D02*
X134278762Y-99848200D01*
X134278762Y-99848200D02*
X134183524Y-99752961D01*
X134183524Y-99752961D02*
X134135905Y-99657723D01*
X134135905Y-99657723D02*
X134088286Y-99467247D01*
X134088286Y-99467247D02*
X134088286Y-99324390D01*
X134088286Y-99324390D02*
X134135905Y-99133914D01*
X134135905Y-99133914D02*
X134183524Y-99038676D01*
X134183524Y-99038676D02*
X134278762Y-98943438D01*
X134278762Y-98943438D02*
X134421619Y-98895819D01*
X134421619Y-98895819D02*
X134516857Y-98895819D01*
X134516857Y-98895819D02*
X134659714Y-98943438D01*
X134659714Y-98943438D02*
X134707333Y-98991057D01*
X135040667Y-98895819D02*
X135707333Y-98895819D01*
X135707333Y-98895819D02*
X135278762Y-99895819D01*
X155140819Y-83483220D02*
X154140819Y-83483220D01*
X154140819Y-83483220D02*
X154140819Y-83245125D01*
X154140819Y-83245125D02*
X154188438Y-83102268D01*
X154188438Y-83102268D02*
X154283676Y-83007030D01*
X154283676Y-83007030D02*
X154378914Y-82959411D01*
X154378914Y-82959411D02*
X154569390Y-82911792D01*
X154569390Y-82911792D02*
X154712247Y-82911792D01*
X154712247Y-82911792D02*
X154902723Y-82959411D01*
X154902723Y-82959411D02*
X154997961Y-83007030D01*
X154997961Y-83007030D02*
X155093200Y-83102268D01*
X155093200Y-83102268D02*
X155140819Y-83245125D01*
X155140819Y-83245125D02*
X155140819Y-83483220D01*
X155140819Y-81959411D02*
X155140819Y-82530839D01*
X155140819Y-82245125D02*
X154140819Y-82245125D01*
X154140819Y-82245125D02*
X154283676Y-82340363D01*
X154283676Y-82340363D02*
X154378914Y-82435601D01*
X154378914Y-82435601D02*
X154426533Y-82530839D01*
X155140819Y-81007030D02*
X155140819Y-81578458D01*
X155140819Y-81292744D02*
X154140819Y-81292744D01*
X154140819Y-81292744D02*
X154283676Y-81387982D01*
X154283676Y-81387982D02*
X154378914Y-81483220D01*
X154378914Y-81483220D02*
X154426533Y-81578458D01*
X139311142Y-101197580D02*
X139263523Y-101245200D01*
X139263523Y-101245200D02*
X139120666Y-101292819D01*
X139120666Y-101292819D02*
X139025428Y-101292819D01*
X139025428Y-101292819D02*
X138882571Y-101245200D01*
X138882571Y-101245200D02*
X138787333Y-101149961D01*
X138787333Y-101149961D02*
X138739714Y-101054723D01*
X138739714Y-101054723D02*
X138692095Y-100864247D01*
X138692095Y-100864247D02*
X138692095Y-100721390D01*
X138692095Y-100721390D02*
X138739714Y-100530914D01*
X138739714Y-100530914D02*
X138787333Y-100435676D01*
X138787333Y-100435676D02*
X138882571Y-100340438D01*
X138882571Y-100340438D02*
X139025428Y-100292819D01*
X139025428Y-100292819D02*
X139120666Y-100292819D01*
X139120666Y-100292819D02*
X139263523Y-100340438D01*
X139263523Y-100340438D02*
X139311142Y-100388057D01*
X140168285Y-100626152D02*
X140168285Y-101292819D01*
X139930190Y-100245200D02*
X139692095Y-100959485D01*
X139692095Y-100959485D02*
X140311142Y-100959485D01*
X141120666Y-100292819D02*
X140930190Y-100292819D01*
X140930190Y-100292819D02*
X140834952Y-100340438D01*
X140834952Y-100340438D02*
X140787333Y-100388057D01*
X140787333Y-100388057D02*
X140692095Y-100530914D01*
X140692095Y-100530914D02*
X140644476Y-100721390D01*
X140644476Y-100721390D02*
X140644476Y-101102342D01*
X140644476Y-101102342D02*
X140692095Y-101197580D01*
X140692095Y-101197580D02*
X140739714Y-101245200D01*
X140739714Y-101245200D02*
X140834952Y-101292819D01*
X140834952Y-101292819D02*
X141025428Y-101292819D01*
X141025428Y-101292819D02*
X141120666Y-101245200D01*
X141120666Y-101245200D02*
X141168285Y-101197580D01*
X141168285Y-101197580D02*
X141215904Y-101102342D01*
X141215904Y-101102342D02*
X141215904Y-100864247D01*
X141215904Y-100864247D02*
X141168285Y-100769009D01*
X141168285Y-100769009D02*
X141120666Y-100721390D01*
X141120666Y-100721390D02*
X141025428Y-100673771D01*
X141025428Y-100673771D02*
X140834952Y-100673771D01*
X140834952Y-100673771D02*
X140739714Y-100721390D01*
X140739714Y-100721390D02*
X140692095Y-100769009D01*
X140692095Y-100769009D02*
X140644476Y-100864247D01*
X151630142Y-104880580D02*
X151582523Y-104928200D01*
X151582523Y-104928200D02*
X151439666Y-104975819D01*
X151439666Y-104975819D02*
X151344428Y-104975819D01*
X151344428Y-104975819D02*
X151201571Y-104928200D01*
X151201571Y-104928200D02*
X151106333Y-104832961D01*
X151106333Y-104832961D02*
X151058714Y-104737723D01*
X151058714Y-104737723D02*
X151011095Y-104547247D01*
X151011095Y-104547247D02*
X151011095Y-104404390D01*
X151011095Y-104404390D02*
X151058714Y-104213914D01*
X151058714Y-104213914D02*
X151106333Y-104118676D01*
X151106333Y-104118676D02*
X151201571Y-104023438D01*
X151201571Y-104023438D02*
X151344428Y-103975819D01*
X151344428Y-103975819D02*
X151439666Y-103975819D01*
X151439666Y-103975819D02*
X151582523Y-104023438D01*
X151582523Y-104023438D02*
X151630142Y-104071057D01*
X152487285Y-104309152D02*
X152487285Y-104975819D01*
X152249190Y-103928200D02*
X152011095Y-104642485D01*
X152011095Y-104642485D02*
X152630142Y-104642485D01*
X153153952Y-104404390D02*
X153058714Y-104356771D01*
X153058714Y-104356771D02*
X153011095Y-104309152D01*
X153011095Y-104309152D02*
X152963476Y-104213914D01*
X152963476Y-104213914D02*
X152963476Y-104166295D01*
X152963476Y-104166295D02*
X153011095Y-104071057D01*
X153011095Y-104071057D02*
X153058714Y-104023438D01*
X153058714Y-104023438D02*
X153153952Y-103975819D01*
X153153952Y-103975819D02*
X153344428Y-103975819D01*
X153344428Y-103975819D02*
X153439666Y-104023438D01*
X153439666Y-104023438D02*
X153487285Y-104071057D01*
X153487285Y-104071057D02*
X153534904Y-104166295D01*
X153534904Y-104166295D02*
X153534904Y-104213914D01*
X153534904Y-104213914D02*
X153487285Y-104309152D01*
X153487285Y-104309152D02*
X153439666Y-104356771D01*
X153439666Y-104356771D02*
X153344428Y-104404390D01*
X153344428Y-104404390D02*
X153153952Y-104404390D01*
X153153952Y-104404390D02*
X153058714Y-104452009D01*
X153058714Y-104452009D02*
X153011095Y-104499628D01*
X153011095Y-104499628D02*
X152963476Y-104594866D01*
X152963476Y-104594866D02*
X152963476Y-104785342D01*
X152963476Y-104785342D02*
X153011095Y-104880580D01*
X153011095Y-104880580D02*
X153058714Y-104928200D01*
X153058714Y-104928200D02*
X153153952Y-104975819D01*
X153153952Y-104975819D02*
X153344428Y-104975819D01*
X153344428Y-104975819D02*
X153439666Y-104928200D01*
X153439666Y-104928200D02*
X153487285Y-104880580D01*
X153487285Y-104880580D02*
X153534904Y-104785342D01*
X153534904Y-104785342D02*
X153534904Y-104594866D01*
X153534904Y-104594866D02*
X153487285Y-104499628D01*
X153487285Y-104499628D02*
X153439666Y-104452009D01*
X153439666Y-104452009D02*
X153344428Y-104404390D01*
X146320580Y-92819457D02*
X146368200Y-92867076D01*
X146368200Y-92867076D02*
X146415819Y-93009933D01*
X146415819Y-93009933D02*
X146415819Y-93105171D01*
X146415819Y-93105171D02*
X146368200Y-93248028D01*
X146368200Y-93248028D02*
X146272961Y-93343266D01*
X146272961Y-93343266D02*
X146177723Y-93390885D01*
X146177723Y-93390885D02*
X145987247Y-93438504D01*
X145987247Y-93438504D02*
X145844390Y-93438504D01*
X145844390Y-93438504D02*
X145653914Y-93390885D01*
X145653914Y-93390885D02*
X145558676Y-93343266D01*
X145558676Y-93343266D02*
X145463438Y-93248028D01*
X145463438Y-93248028D02*
X145415819Y-93105171D01*
X145415819Y-93105171D02*
X145415819Y-93009933D01*
X145415819Y-93009933D02*
X145463438Y-92867076D01*
X145463438Y-92867076D02*
X145511057Y-92819457D01*
X145415819Y-91914695D02*
X145415819Y-92390885D01*
X145415819Y-92390885D02*
X145892009Y-92438504D01*
X145892009Y-92438504D02*
X145844390Y-92390885D01*
X145844390Y-92390885D02*
X145796771Y-92295647D01*
X145796771Y-92295647D02*
X145796771Y-92057552D01*
X145796771Y-92057552D02*
X145844390Y-91962314D01*
X145844390Y-91962314D02*
X145892009Y-91914695D01*
X145892009Y-91914695D02*
X145987247Y-91867076D01*
X145987247Y-91867076D02*
X146225342Y-91867076D01*
X146225342Y-91867076D02*
X146320580Y-91914695D01*
X146320580Y-91914695D02*
X146368200Y-91962314D01*
X146368200Y-91962314D02*
X146415819Y-92057552D01*
X146415819Y-92057552D02*
X146415819Y-92295647D01*
X146415819Y-92295647D02*
X146368200Y-92390885D01*
X146368200Y-92390885D02*
X146320580Y-92438504D01*
X146415819Y-90914695D02*
X146415819Y-91486123D01*
X146415819Y-91200409D02*
X145415819Y-91200409D01*
X145415819Y-91200409D02*
X145558676Y-91295647D01*
X145558676Y-91295647D02*
X145653914Y-91390885D01*
X145653914Y-91390885D02*
X145701533Y-91486123D01*
X134693819Y-89955666D02*
X134693819Y-90431856D01*
X134693819Y-90431856D02*
X133693819Y-90431856D01*
X133789057Y-89669951D02*
X133741438Y-89622332D01*
X133741438Y-89622332D02*
X133693819Y-89527094D01*
X133693819Y-89527094D02*
X133693819Y-89288999D01*
X133693819Y-89288999D02*
X133741438Y-89193761D01*
X133741438Y-89193761D02*
X133789057Y-89146142D01*
X133789057Y-89146142D02*
X133884295Y-89098523D01*
X133884295Y-89098523D02*
X133979533Y-89098523D01*
X133979533Y-89098523D02*
X134122390Y-89146142D01*
X134122390Y-89146142D02*
X134693819Y-89717570D01*
X134693819Y-89717570D02*
X134693819Y-89098523D01*
X146752580Y-111789357D02*
X146800200Y-111836976D01*
X146800200Y-111836976D02*
X146847819Y-111979833D01*
X146847819Y-111979833D02*
X146847819Y-112075071D01*
X146847819Y-112075071D02*
X146800200Y-112217928D01*
X146800200Y-112217928D02*
X146704961Y-112313166D01*
X146704961Y-112313166D02*
X146609723Y-112360785D01*
X146609723Y-112360785D02*
X146419247Y-112408404D01*
X146419247Y-112408404D02*
X146276390Y-112408404D01*
X146276390Y-112408404D02*
X146085914Y-112360785D01*
X146085914Y-112360785D02*
X145990676Y-112313166D01*
X145990676Y-112313166D02*
X145895438Y-112217928D01*
X145895438Y-112217928D02*
X145847819Y-112075071D01*
X145847819Y-112075071D02*
X145847819Y-111979833D01*
X145847819Y-111979833D02*
X145895438Y-111836976D01*
X145895438Y-111836976D02*
X145943057Y-111789357D01*
X146181152Y-110932214D02*
X146847819Y-110932214D01*
X145800200Y-111170309D02*
X146514485Y-111408404D01*
X146514485Y-111408404D02*
X146514485Y-110789357D01*
X145847819Y-109932214D02*
X145847819Y-110408404D01*
X145847819Y-110408404D02*
X146324009Y-110456023D01*
X146324009Y-110456023D02*
X146276390Y-110408404D01*
X146276390Y-110408404D02*
X146228771Y-110313166D01*
X146228771Y-110313166D02*
X146228771Y-110075071D01*
X146228771Y-110075071D02*
X146276390Y-109979833D01*
X146276390Y-109979833D02*
X146324009Y-109932214D01*
X146324009Y-109932214D02*
X146419247Y-109884595D01*
X146419247Y-109884595D02*
X146657342Y-109884595D01*
X146657342Y-109884595D02*
X146752580Y-109932214D01*
X146752580Y-109932214D02*
X146800200Y-109979833D01*
X146800200Y-109979833D02*
X146847819Y-110075071D01*
X146847819Y-110075071D02*
X146847819Y-110313166D01*
X146847819Y-110313166D02*
X146800200Y-110408404D01*
X146800200Y-110408404D02*
X146752580Y-110456023D01*
X152346819Y-83483220D02*
X151346819Y-83483220D01*
X151346819Y-83483220D02*
X151346819Y-83245125D01*
X151346819Y-83245125D02*
X151394438Y-83102268D01*
X151394438Y-83102268D02*
X151489676Y-83007030D01*
X151489676Y-83007030D02*
X151584914Y-82959411D01*
X151584914Y-82959411D02*
X151775390Y-82911792D01*
X151775390Y-82911792D02*
X151918247Y-82911792D01*
X151918247Y-82911792D02*
X152108723Y-82959411D01*
X152108723Y-82959411D02*
X152203961Y-83007030D01*
X152203961Y-83007030D02*
X152299200Y-83102268D01*
X152299200Y-83102268D02*
X152346819Y-83245125D01*
X152346819Y-83245125D02*
X152346819Y-83483220D01*
X151346819Y-82578458D02*
X151346819Y-81911792D01*
X151346819Y-81911792D02*
X152346819Y-82340363D01*
X134112095Y-102959819D02*
X134112095Y-103769342D01*
X134112095Y-103769342D02*
X134159714Y-103864580D01*
X134159714Y-103864580D02*
X134207333Y-103912200D01*
X134207333Y-103912200D02*
X134302571Y-103959819D01*
X134302571Y-103959819D02*
X134493047Y-103959819D01*
X134493047Y-103959819D02*
X134588285Y-103912200D01*
X134588285Y-103912200D02*
X134635904Y-103864580D01*
X134635904Y-103864580D02*
X134683523Y-103769342D01*
X134683523Y-103769342D02*
X134683523Y-102959819D01*
X135112095Y-103055057D02*
X135159714Y-103007438D01*
X135159714Y-103007438D02*
X135254952Y-102959819D01*
X135254952Y-102959819D02*
X135493047Y-102959819D01*
X135493047Y-102959819D02*
X135588285Y-103007438D01*
X135588285Y-103007438D02*
X135635904Y-103055057D01*
X135635904Y-103055057D02*
X135683523Y-103150295D01*
X135683523Y-103150295D02*
X135683523Y-103245533D01*
X135683523Y-103245533D02*
X135635904Y-103388390D01*
X135635904Y-103388390D02*
X135064476Y-103959819D01*
X135064476Y-103959819D02*
X135683523Y-103959819D01*
X152600819Y-89769792D02*
X152124628Y-90103125D01*
X152600819Y-90341220D02*
X151600819Y-90341220D01*
X151600819Y-90341220D02*
X151600819Y-89960268D01*
X151600819Y-89960268D02*
X151648438Y-89865030D01*
X151648438Y-89865030D02*
X151696057Y-89817411D01*
X151696057Y-89817411D02*
X151791295Y-89769792D01*
X151791295Y-89769792D02*
X151934152Y-89769792D01*
X151934152Y-89769792D02*
X152029390Y-89817411D01*
X152029390Y-89817411D02*
X152077009Y-89865030D01*
X152077009Y-89865030D02*
X152124628Y-89960268D01*
X152124628Y-89960268D02*
X152124628Y-90341220D01*
X152600819Y-88817411D02*
X152600819Y-89388839D01*
X152600819Y-89103125D02*
X151600819Y-89103125D01*
X151600819Y-89103125D02*
X151743676Y-89198363D01*
X151743676Y-89198363D02*
X151838914Y-89293601D01*
X151838914Y-89293601D02*
X151886533Y-89388839D01*
X151600819Y-88198363D02*
X151600819Y-88103125D01*
X151600819Y-88103125D02*
X151648438Y-88007887D01*
X151648438Y-88007887D02*
X151696057Y-87960268D01*
X151696057Y-87960268D02*
X151791295Y-87912649D01*
X151791295Y-87912649D02*
X151981771Y-87865030D01*
X151981771Y-87865030D02*
X152219866Y-87865030D01*
X152219866Y-87865030D02*
X152410342Y-87912649D01*
X152410342Y-87912649D02*
X152505580Y-87960268D01*
X152505580Y-87960268D02*
X152553200Y-88007887D01*
X152553200Y-88007887D02*
X152600819Y-88103125D01*
X152600819Y-88103125D02*
X152600819Y-88198363D01*
X152600819Y-88198363D02*
X152553200Y-88293601D01*
X152553200Y-88293601D02*
X152505580Y-88341220D01*
X152505580Y-88341220D02*
X152410342Y-88388839D01*
X152410342Y-88388839D02*
X152219866Y-88436458D01*
X152219866Y-88436458D02*
X151981771Y-88436458D01*
X151981771Y-88436458D02*
X151791295Y-88388839D01*
X151791295Y-88388839D02*
X151696057Y-88341220D01*
X151696057Y-88341220D02*
X151648438Y-88293601D01*
X151648438Y-88293601D02*
X151600819Y-88198363D01*
X122628819Y-114276094D02*
X121628819Y-114276094D01*
X121628819Y-114276094D02*
X121628819Y-114037999D01*
X121628819Y-114037999D02*
X121676438Y-113895142D01*
X121676438Y-113895142D02*
X121771676Y-113799904D01*
X121771676Y-113799904D02*
X121866914Y-113752285D01*
X121866914Y-113752285D02*
X122057390Y-113704666D01*
X122057390Y-113704666D02*
X122200247Y-113704666D01*
X122200247Y-113704666D02*
X122390723Y-113752285D01*
X122390723Y-113752285D02*
X122485961Y-113799904D01*
X122485961Y-113799904D02*
X122581200Y-113895142D01*
X122581200Y-113895142D02*
X122628819Y-114037999D01*
X122628819Y-114037999D02*
X122628819Y-114276094D01*
X121628819Y-113371332D02*
X121628819Y-112752285D01*
X121628819Y-112752285D02*
X122009771Y-113085618D01*
X122009771Y-113085618D02*
X122009771Y-112942761D01*
X122009771Y-112942761D02*
X122057390Y-112847523D01*
X122057390Y-112847523D02*
X122105009Y-112799904D01*
X122105009Y-112799904D02*
X122200247Y-112752285D01*
X122200247Y-112752285D02*
X122438342Y-112752285D01*
X122438342Y-112752285D02*
X122533580Y-112799904D01*
X122533580Y-112799904D02*
X122581200Y-112847523D01*
X122581200Y-112847523D02*
X122628819Y-112942761D01*
X122628819Y-112942761D02*
X122628819Y-113228475D01*
X122628819Y-113228475D02*
X122581200Y-113323713D01*
X122581200Y-113323713D02*
X122533580Y-113371332D01*
X156410819Y-89769792D02*
X155934628Y-90103125D01*
X156410819Y-90341220D02*
X155410819Y-90341220D01*
X155410819Y-90341220D02*
X155410819Y-89960268D01*
X155410819Y-89960268D02*
X155458438Y-89865030D01*
X155458438Y-89865030D02*
X155506057Y-89817411D01*
X155506057Y-89817411D02*
X155601295Y-89769792D01*
X155601295Y-89769792D02*
X155744152Y-89769792D01*
X155744152Y-89769792D02*
X155839390Y-89817411D01*
X155839390Y-89817411D02*
X155887009Y-89865030D01*
X155887009Y-89865030D02*
X155934628Y-89960268D01*
X155934628Y-89960268D02*
X155934628Y-90341220D01*
X155839390Y-89198363D02*
X155791771Y-89293601D01*
X155791771Y-89293601D02*
X155744152Y-89341220D01*
X155744152Y-89341220D02*
X155648914Y-89388839D01*
X155648914Y-89388839D02*
X155601295Y-89388839D01*
X155601295Y-89388839D02*
X155506057Y-89341220D01*
X155506057Y-89341220D02*
X155458438Y-89293601D01*
X155458438Y-89293601D02*
X155410819Y-89198363D01*
X155410819Y-89198363D02*
X155410819Y-89007887D01*
X155410819Y-89007887D02*
X155458438Y-88912649D01*
X155458438Y-88912649D02*
X155506057Y-88865030D01*
X155506057Y-88865030D02*
X155601295Y-88817411D01*
X155601295Y-88817411D02*
X155648914Y-88817411D01*
X155648914Y-88817411D02*
X155744152Y-88865030D01*
X155744152Y-88865030D02*
X155791771Y-88912649D01*
X155791771Y-88912649D02*
X155839390Y-89007887D01*
X155839390Y-89007887D02*
X155839390Y-89198363D01*
X155839390Y-89198363D02*
X155887009Y-89293601D01*
X155887009Y-89293601D02*
X155934628Y-89341220D01*
X155934628Y-89341220D02*
X156029866Y-89388839D01*
X156029866Y-89388839D02*
X156220342Y-89388839D01*
X156220342Y-89388839D02*
X156315580Y-89341220D01*
X156315580Y-89341220D02*
X156363200Y-89293601D01*
X156363200Y-89293601D02*
X156410819Y-89198363D01*
X156410819Y-89198363D02*
X156410819Y-89007887D01*
X156410819Y-89007887D02*
X156363200Y-88912649D01*
X156363200Y-88912649D02*
X156315580Y-88865030D01*
X156315580Y-88865030D02*
X156220342Y-88817411D01*
X156220342Y-88817411D02*
X156029866Y-88817411D01*
X156029866Y-88817411D02*
X155934628Y-88865030D01*
X155934628Y-88865030D02*
X155887009Y-88912649D01*
X155887009Y-88912649D02*
X155839390Y-89007887D01*
X129182905Y-86052819D02*
X129182905Y-85052819D01*
X129182905Y-85052819D02*
X129421000Y-85052819D01*
X129421000Y-85052819D02*
X129563857Y-85100438D01*
X129563857Y-85100438D02*
X129659095Y-85195676D01*
X129659095Y-85195676D02*
X129706714Y-85290914D01*
X129706714Y-85290914D02*
X129754333Y-85481390D01*
X129754333Y-85481390D02*
X129754333Y-85624247D01*
X129754333Y-85624247D02*
X129706714Y-85814723D01*
X129706714Y-85814723D02*
X129659095Y-85909961D01*
X129659095Y-85909961D02*
X129563857Y-86005200D01*
X129563857Y-86005200D02*
X129421000Y-86052819D01*
X129421000Y-86052819D02*
X129182905Y-86052819D01*
X130611476Y-85386152D02*
X130611476Y-86052819D01*
X130373381Y-85005200D02*
X130135286Y-85719485D01*
X130135286Y-85719485D02*
X130754333Y-85719485D01*
X134707333Y-110055819D02*
X134374000Y-109579628D01*
X134135905Y-110055819D02*
X134135905Y-109055819D01*
X134135905Y-109055819D02*
X134516857Y-109055819D01*
X134516857Y-109055819D02*
X134612095Y-109103438D01*
X134612095Y-109103438D02*
X134659714Y-109151057D01*
X134659714Y-109151057D02*
X134707333Y-109246295D01*
X134707333Y-109246295D02*
X134707333Y-109389152D01*
X134707333Y-109389152D02*
X134659714Y-109484390D01*
X134659714Y-109484390D02*
X134612095Y-109532009D01*
X134612095Y-109532009D02*
X134516857Y-109579628D01*
X134516857Y-109579628D02*
X134135905Y-109579628D01*
X135564476Y-109389152D02*
X135564476Y-110055819D01*
X135326381Y-109008200D02*
X135088286Y-109722485D01*
X135088286Y-109722485D02*
X135707333Y-109722485D01*
X153743819Y-83483220D02*
X152743819Y-83483220D01*
X152743819Y-83483220D02*
X152743819Y-83245125D01*
X152743819Y-83245125D02*
X152791438Y-83102268D01*
X152791438Y-83102268D02*
X152886676Y-83007030D01*
X152886676Y-83007030D02*
X152981914Y-82959411D01*
X152981914Y-82959411D02*
X153172390Y-82911792D01*
X153172390Y-82911792D02*
X153315247Y-82911792D01*
X153315247Y-82911792D02*
X153505723Y-82959411D01*
X153505723Y-82959411D02*
X153600961Y-83007030D01*
X153600961Y-83007030D02*
X153696200Y-83102268D01*
X153696200Y-83102268D02*
X153743819Y-83245125D01*
X153743819Y-83245125D02*
X153743819Y-83483220D01*
X153743819Y-81959411D02*
X153743819Y-82530839D01*
X153743819Y-82245125D02*
X152743819Y-82245125D01*
X152743819Y-82245125D02*
X152886676Y-82340363D01*
X152886676Y-82340363D02*
X152981914Y-82435601D01*
X152981914Y-82435601D02*
X153029533Y-82530839D01*
X152743819Y-81340363D02*
X152743819Y-81245125D01*
X152743819Y-81245125D02*
X152791438Y-81149887D01*
X152791438Y-81149887D02*
X152839057Y-81102268D01*
X152839057Y-81102268D02*
X152934295Y-81054649D01*
X152934295Y-81054649D02*
X153124771Y-81007030D01*
X153124771Y-81007030D02*
X153362866Y-81007030D01*
X153362866Y-81007030D02*
X153553342Y-81054649D01*
X153553342Y-81054649D02*
X153648580Y-81102268D01*
X153648580Y-81102268D02*
X153696200Y-81149887D01*
X153696200Y-81149887D02*
X153743819Y-81245125D01*
X153743819Y-81245125D02*
X153743819Y-81340363D01*
X153743819Y-81340363D02*
X153696200Y-81435601D01*
X153696200Y-81435601D02*
X153648580Y-81483220D01*
X153648580Y-81483220D02*
X153553342Y-81530839D01*
X153553342Y-81530839D02*
X153362866Y-81578458D01*
X153362866Y-81578458D02*
X153124771Y-81578458D01*
X153124771Y-81578458D02*
X152934295Y-81530839D01*
X152934295Y-81530839D02*
X152839057Y-81483220D01*
X152839057Y-81483220D02*
X152791438Y-81435601D01*
X152791438Y-81435601D02*
X152743819Y-81340363D01*
X113784142Y-100530819D02*
X113450809Y-100054628D01*
X113212714Y-100530819D02*
X113212714Y-99530819D01*
X113212714Y-99530819D02*
X113593666Y-99530819D01*
X113593666Y-99530819D02*
X113688904Y-99578438D01*
X113688904Y-99578438D02*
X113736523Y-99626057D01*
X113736523Y-99626057D02*
X113784142Y-99721295D01*
X113784142Y-99721295D02*
X113784142Y-99864152D01*
X113784142Y-99864152D02*
X113736523Y-99959390D01*
X113736523Y-99959390D02*
X113688904Y-100007009D01*
X113688904Y-100007009D02*
X113593666Y-100054628D01*
X113593666Y-100054628D02*
X113212714Y-100054628D01*
X114165095Y-99626057D02*
X114212714Y-99578438D01*
X114212714Y-99578438D02*
X114307952Y-99530819D01*
X114307952Y-99530819D02*
X114546047Y-99530819D01*
X114546047Y-99530819D02*
X114641285Y-99578438D01*
X114641285Y-99578438D02*
X114688904Y-99626057D01*
X114688904Y-99626057D02*
X114736523Y-99721295D01*
X114736523Y-99721295D02*
X114736523Y-99816533D01*
X114736523Y-99816533D02*
X114688904Y-99959390D01*
X114688904Y-99959390D02*
X114117476Y-100530819D01*
X114117476Y-100530819D02*
X114736523Y-100530819D01*
X115688904Y-100530819D02*
X115117476Y-100530819D01*
X115403190Y-100530819D02*
X115403190Y-99530819D01*
X115403190Y-99530819D02*
X115307952Y-99673676D01*
X115307952Y-99673676D02*
X115212714Y-99768914D01*
X115212714Y-99768914D02*
X115117476Y-99816533D01*
X151630142Y-100562580D02*
X151582523Y-100610200D01*
X151582523Y-100610200D02*
X151439666Y-100657819D01*
X151439666Y-100657819D02*
X151344428Y-100657819D01*
X151344428Y-100657819D02*
X151201571Y-100610200D01*
X151201571Y-100610200D02*
X151106333Y-100514961D01*
X151106333Y-100514961D02*
X151058714Y-100419723D01*
X151058714Y-100419723D02*
X151011095Y-100229247D01*
X151011095Y-100229247D02*
X151011095Y-100086390D01*
X151011095Y-100086390D02*
X151058714Y-99895914D01*
X151058714Y-99895914D02*
X151106333Y-99800676D01*
X151106333Y-99800676D02*
X151201571Y-99705438D01*
X151201571Y-99705438D02*
X151344428Y-99657819D01*
X151344428Y-99657819D02*
X151439666Y-99657819D01*
X151439666Y-99657819D02*
X151582523Y-99705438D01*
X151582523Y-99705438D02*
X151630142Y-99753057D01*
X152487285Y-99991152D02*
X152487285Y-100657819D01*
X152249190Y-99610200D02*
X152011095Y-100324485D01*
X152011095Y-100324485D02*
X152630142Y-100324485D01*
X153058714Y-100657819D02*
X153249190Y-100657819D01*
X153249190Y-100657819D02*
X153344428Y-100610200D01*
X153344428Y-100610200D02*
X153392047Y-100562580D01*
X153392047Y-100562580D02*
X153487285Y-100419723D01*
X153487285Y-100419723D02*
X153534904Y-100229247D01*
X153534904Y-100229247D02*
X153534904Y-99848295D01*
X153534904Y-99848295D02*
X153487285Y-99753057D01*
X153487285Y-99753057D02*
X153439666Y-99705438D01*
X153439666Y-99705438D02*
X153344428Y-99657819D01*
X153344428Y-99657819D02*
X153153952Y-99657819D01*
X153153952Y-99657819D02*
X153058714Y-99705438D01*
X153058714Y-99705438D02*
X153011095Y-99753057D01*
X153011095Y-99753057D02*
X152963476Y-99848295D01*
X152963476Y-99848295D02*
X152963476Y-100086390D01*
X152963476Y-100086390D02*
X153011095Y-100181628D01*
X153011095Y-100181628D02*
X153058714Y-100229247D01*
X153058714Y-100229247D02*
X153153952Y-100276866D01*
X153153952Y-100276866D02*
X153344428Y-100276866D01*
X153344428Y-100276866D02*
X153439666Y-100229247D01*
X153439666Y-100229247D02*
X153487285Y-100181628D01*
X153487285Y-100181628D02*
X153534904Y-100086390D01*
D12*
X121564619Y-101106266D02*
X121564619Y-101582456D01*
X121564619Y-101582456D02*
X120564619Y-101582456D01*
X121564619Y-100249123D02*
X121564619Y-100820551D01*
X121564619Y-100534837D02*
X120564619Y-100534837D01*
X120564619Y-100534837D02*
X120707476Y-100630075D01*
X120707476Y-100630075D02*
X120802714Y-100725313D01*
X120802714Y-100725313D02*
X120850333Y-100820551D01*
D13*
%TO.C,C52*%
X147728000Y-108105753D02*
X147728000Y-107583247D01*
X149198000Y-108105753D02*
X149198000Y-107583247D01*
%TO.C,D6*%
X181646750Y-81954999D02*
X180996750Y-81955000D01*
X181646750Y-81954999D02*
X182296750Y-81955000D01*
X181646750Y-85075001D02*
X180996750Y-85075000D01*
X181646750Y-85075001D02*
X182296750Y-85075000D01*
X180724250Y-81675001D02*
X180484250Y-82005000D01*
X180244250Y-81675000D01*
X180724250Y-81675001D01*
G36*
X180724250Y-81675001D02*
G01*
X180484250Y-82005000D01*
X180244250Y-81675000D01*
X180724250Y-81675001D01*
G37*
%TO.C,F1*%
X127995000Y-96298936D02*
X127995000Y-97503064D01*
X129815000Y-96298936D02*
X129815000Y-97503064D01*
%TO.C,C3*%
X126783000Y-109778748D02*
X126783000Y-111201252D01*
X129503000Y-109778748D02*
X129503000Y-111201252D01*
D14*
%TO.C,J2*%
X117792500Y-75031601D02*
X117792500Y-84480400D01*
X117792500Y-84480400D02*
X135394700Y-84480400D01*
X135394700Y-75031601D02*
X117792500Y-75031601D01*
X135394700Y-84480400D02*
X135394700Y-75031601D01*
D15*
X136410701Y-83153400D02*
G75*
G02*
X135648699Y-83153400I-381001J0D01*
G01*
X135648699Y-83153400D02*
G75*
G02*
X136410701Y-83153400I381001J0D01*
G01*
D13*
%TO.C,C54*%
X139088053Y-93626000D02*
X138565547Y-93626000D01*
X139088053Y-95096000D02*
X138565547Y-95096000D01*
%TO.C,U1*%
X142567000Y-98767000D02*
X142567000Y-98357000D01*
X142567000Y-105337000D02*
X142567000Y-104687000D01*
X143217000Y-98117000D02*
X142867000Y-98117000D01*
X143217000Y-105337000D02*
X142567000Y-105337000D01*
X149137000Y-98117000D02*
X149787000Y-98117000D01*
X149137000Y-105337000D02*
X149787000Y-105337000D01*
X149787000Y-98117000D02*
X149787000Y-98767000D01*
X149787000Y-105337000D02*
X149787000Y-104687000D01*
X142567000Y-98117000D02*
X142327000Y-97787000D01*
X142807000Y-97787000D01*
X142567000Y-98117000D01*
G36*
X142567000Y-98117000D02*
G01*
X142327000Y-97787000D01*
X142807000Y-97787000D01*
X142567000Y-98117000D01*
G37*
%TO.C,C43*%
X143283000Y-95344347D02*
X143283000Y-95866853D01*
X144753000Y-95344347D02*
X144753000Y-95866853D01*
%TO.C,D5*%
X171960750Y-81954999D02*
X171310750Y-81955000D01*
X171960750Y-81954999D02*
X172610750Y-81955000D01*
X171960750Y-85075001D02*
X171310750Y-85075000D01*
X171960750Y-85075001D02*
X172610750Y-85075000D01*
X173363250Y-85355000D02*
X172883250Y-85354999D01*
X173123250Y-85025000D01*
X173363250Y-85355000D01*
G36*
X173363250Y-85355000D02*
G01*
X172883250Y-85354999D01*
X173123250Y-85025000D01*
X173363250Y-85355000D01*
G37*
%TO.C,C47*%
X140215253Y-102008000D02*
X139692747Y-102008000D01*
X140215253Y-103478000D02*
X139692747Y-103478000D01*
D16*
%TO.C,J3*%
X182334000Y-76968000D02*
X181234000Y-76968000D01*
X182334000Y-80768000D02*
X181234000Y-80768000D01*
X185034000Y-76968000D02*
X183934000Y-76968000D01*
X185034000Y-80768000D02*
X183934000Y-80768000D01*
D13*
%TO.C,C9*%
X140342253Y-106326000D02*
X139819747Y-106326000D01*
X140342253Y-107796000D02*
X139819747Y-107796000D01*
%TO.C,R20*%
X114199936Y-96166000D02*
X114654064Y-96166000D01*
X114199936Y-97636000D02*
X114654064Y-97636000D01*
%TO.C,R1*%
X145696000Y-85497936D02*
X145696000Y-85952064D01*
X147166000Y-85497936D02*
X147166000Y-85952064D01*
D17*
%TO.C,U8*%
X137086000Y-95374000D02*
G75*
G02*
X136836000Y-95374000I-125000J0D01*
G01*
X136836000Y-95374000D02*
G75*
G02*
X137086000Y-95374000I125000J0D01*
G01*
D13*
%TO.C,C44*%
X141251000Y-95344347D02*
X141251000Y-95866853D01*
X142721000Y-95344347D02*
X142721000Y-95866853D01*
%TO.C,X2*%
X142204000Y-108203000D02*
X142204000Y-108893000D01*
X142404000Y-107983000D02*
X142404000Y-107653000D01*
X144084000Y-106713000D02*
X143444000Y-106713000D01*
X144084000Y-108933000D02*
X143444000Y-108933000D01*
X145124000Y-107993000D02*
X145124000Y-107653000D01*
X142204000Y-108203000D02*
G75*
G02*
X142404000Y-107982999I320002J-90001D01*
G01*
%TO.C,R7*%
X153316000Y-85952064D02*
X153316000Y-85497936D01*
X154786000Y-85952064D02*
X154786000Y-85497936D01*
%TO.C,R5*%
X132180064Y-110771000D02*
X131725936Y-110771000D01*
X132180064Y-112241000D02*
X131725936Y-112241000D01*
%TO.C,R6*%
X147601000Y-85952064D02*
X147601000Y-85497936D01*
X149071000Y-85952064D02*
X149071000Y-85497936D01*
%TO.C,D1*%
X121083000Y-99493000D02*
X121083000Y-88183000D01*
X127583000Y-99493000D02*
X121083000Y-99493000D01*
X127583000Y-99493000D02*
X127583000Y-88183000D01*
%TO.C,U4*%
D12*
X186436000Y-95123000D02*
X161290000Y-95123000D01*
X161290000Y-120269000D01*
X186436000Y-120269000D01*
X186436000Y-95123000D01*
D13*
%TO.C,D2*%
X132410000Y-86503000D02*
X132410000Y-88503000D01*
X132410000Y-86503000D02*
X136270000Y-86503000D01*
X132410000Y-88503000D02*
X136270000Y-88503000D01*
%TO.C,C5*%
X131691748Y-96674000D02*
X132214252Y-96674000D01*
X131691748Y-98144000D02*
X132214252Y-98144000D01*
%TO.C,D9*%
X158933000Y-77125001D02*
X158933000Y-79985001D01*
X160853000Y-77125001D02*
X158933000Y-77125001D01*
X160853000Y-79985001D02*
X160853000Y-77125001D01*
%TO.C,C1*%
X148109000Y-95344347D02*
X148109000Y-95866853D01*
X149579000Y-95344347D02*
X149579000Y-95866853D01*
%TO.C,BOOT1*%
X112777000Y-102994000D02*
X116077000Y-102994000D01*
X112777000Y-103294000D02*
X112777000Y-102994000D01*
X112777000Y-105494000D02*
X112777000Y-105794000D01*
X112777000Y-105794000D02*
X116077000Y-105794000D01*
X116077000Y-102994000D02*
X116077000Y-103294000D01*
X116077000Y-105794000D02*
X116077000Y-105494000D01*
%TO.C,C2*%
X131691748Y-104802000D02*
X132214252Y-104802000D01*
X131691748Y-106272000D02*
X132214252Y-106272000D01*
%TO.C,C4*%
X123481000Y-109778748D02*
X123481000Y-111201252D01*
X126201000Y-109778748D02*
X126201000Y-111201252D01*
%TO.C,C6*%
X131691748Y-106834000D02*
X132214252Y-106834000D01*
X131691748Y-108304000D02*
X132214252Y-108304000D01*
%TO.C,C8*%
X131691748Y-100738000D02*
X132214252Y-100738000D01*
X131691748Y-102208000D02*
X132214252Y-102208000D01*
%TO.C,D8*%
X157028000Y-77125001D02*
X157028000Y-79985001D01*
X158948000Y-77125001D02*
X157028000Y-77125001D01*
X158948000Y-79985001D02*
X158948000Y-77125001D01*
%TO.C,R3*%
X131725936Y-94642000D02*
X132180064Y-94642000D01*
X131725936Y-96112000D02*
X132180064Y-96112000D01*
%TO.C,C53*%
X139088053Y-91594000D02*
X138565547Y-91594000D01*
X139088053Y-93064000D02*
X138565547Y-93064000D01*
%TO.C,R14*%
X143791000Y-85497936D02*
X143791000Y-85952064D01*
X145261000Y-85497936D02*
X145261000Y-85952064D01*
%TO.C,R2*%
X139981000Y-85497936D02*
X139981000Y-85952064D01*
X141451000Y-85497936D02*
X141451000Y-85952064D01*
%TO.C,RESET1*%
X112777000Y-92834000D02*
X112777000Y-93134000D01*
X112777000Y-95634000D02*
X112777000Y-95334000D01*
X116077000Y-92834000D02*
X112777000Y-92834000D01*
X116077000Y-93134000D02*
X116077000Y-92834000D01*
X116077000Y-95334000D02*
X116077000Y-95634000D01*
X116077000Y-95634000D02*
X112777000Y-95634000D01*
%TO.C,R9*%
X149506000Y-85952064D02*
X149506000Y-85497936D01*
X150976000Y-85952064D02*
X150976000Y-85497936D01*
%TO.C,R12*%
X141886000Y-85497936D02*
X141886000Y-85952064D01*
X143356000Y-85497936D02*
X143356000Y-85952064D01*
%TO.C,C7*%
X131691748Y-98706000D02*
X132214252Y-98706000D01*
X131691748Y-100176000D02*
X132214252Y-100176000D01*
%TO.C,D11*%
X155123000Y-77125001D02*
X155123000Y-79985001D01*
X157043000Y-77125001D02*
X155123000Y-77125001D01*
X157043000Y-79985001D02*
X157043000Y-77125001D01*
%TO.C,C46*%
X140215253Y-98325000D02*
X139692747Y-98325000D01*
X140215253Y-99795000D02*
X139692747Y-99795000D01*
%TO.C,C48*%
X152011748Y-102008000D02*
X152534252Y-102008000D01*
X152011748Y-103478000D02*
X152534252Y-103478000D01*
%TO.C,C51*%
X145315000Y-95866853D02*
X145315000Y-95344347D01*
X146785000Y-95866853D02*
X146785000Y-95344347D01*
%TO.C,L2*%
X127796000Y-88807000D02*
X127796000Y-94327000D01*
X127796000Y-88807000D02*
X128196000Y-88807000D01*
X127796000Y-94327000D02*
X128196000Y-94327000D01*
X133316000Y-88807000D02*
X132916000Y-88807000D01*
X133316000Y-88807000D02*
X133316000Y-94327000D01*
X133316000Y-94327000D02*
X132916000Y-94327000D01*
%TO.C,C45*%
X145696000Y-107583247D02*
X145696000Y-108105753D01*
X147166000Y-107583247D02*
X147166000Y-108105753D01*
%TO.C,D7*%
X151313000Y-77125001D02*
X151313000Y-79985001D01*
X153233000Y-77125001D02*
X151313000Y-77125001D01*
X153233000Y-79985001D02*
X153233000Y-77125001D01*
%TO.C,U2*%
X131953000Y-102570000D02*
X131353000Y-102570000D01*
X131953000Y-102570000D02*
X132553000Y-102570000D01*
X131953000Y-104440000D02*
X131353000Y-104440000D01*
X131953000Y-104440000D02*
X132553000Y-104440000D01*
X130643000Y-103005000D02*
X130313000Y-103245000D01*
X130313000Y-102765000D01*
X130643000Y-103005000D01*
G36*
X130643000Y-103005000D02*
G01*
X130313000Y-103245000D01*
X130313000Y-102765000D01*
X130643000Y-103005000D01*
G37*
D16*
%TO.C,J4*%
X169631250Y-76981500D02*
X168531250Y-76981500D01*
X169631250Y-80781500D02*
X168531250Y-80781500D01*
X172331250Y-76981500D02*
X171231250Y-76981500D01*
X172331250Y-80781500D02*
X171231250Y-80781500D01*
D13*
%TO.C,R10*%
X151411000Y-85952064D02*
X151411000Y-85497936D01*
X152881000Y-85952064D02*
X152881000Y-85497936D01*
%TO.C,J1*%
X138840000Y-79221000D02*
X138840000Y-80921000D01*
X148180000Y-79221000D02*
X148180000Y-80921000D01*
%TO.C,D3*%
X121324000Y-108480000D02*
X121324000Y-111740000D01*
X123024000Y-108480000D02*
X121324000Y-108480000D01*
X123024000Y-108480000D02*
X123024000Y-111740000D01*
%TO.C,R8*%
X155221000Y-85952064D02*
X155221000Y-85497936D01*
X156691000Y-85952064D02*
X156691000Y-85497936D01*
D16*
%TO.C,U3*%
X117729000Y-77089000D02*
X160909000Y-77089000D01*
X117729000Y-120269000D02*
X117729000Y-77089000D01*
X160909000Y-77089000D02*
X160909000Y-120269000D01*
X160909000Y-120269000D02*
X117729000Y-120269000D01*
D13*
%TO.C,D4*%
X132131000Y-86503000D02*
X128271000Y-86503000D01*
X132131000Y-88503000D02*
X128271000Y-88503000D01*
X132131000Y-88503000D02*
X132131000Y-86503000D01*
%TO.C,R4*%
X131725936Y-108866000D02*
X132180064Y-108866000D01*
X131725936Y-110336000D02*
X132180064Y-110336000D01*
%TO.C,D10*%
X153218000Y-77125001D02*
X153218000Y-79985001D01*
X155138000Y-77125001D02*
X153218000Y-77125001D01*
X155138000Y-79985001D02*
X155138000Y-77125001D01*
%TO.C,R21*%
X114654064Y-100992000D02*
X114199936Y-100992000D01*
X114654064Y-102462000D02*
X114199936Y-102462000D01*
%TO.C,C49*%
X152011748Y-97690000D02*
X152534252Y-97690000D01*
X152011748Y-99160000D02*
X152534252Y-99160000D01*
%TO.C,L1*%
X121953000Y-100109000D02*
X121953000Y-101509000D01*
X121953000Y-100109000D02*
X129253000Y-100109000D01*
X121953000Y-107409000D02*
X121953000Y-106009000D01*
X129253000Y-100109000D02*
X129253000Y-101509000D01*
X129253000Y-107409000D02*
X121953000Y-107409000D01*
X129253000Y-107409000D02*
X129253000Y-106009000D01*
%TD*%
%LPC*%
D18*
%TO.C,C52*%
X148463000Y-108882000D03*
X148463000Y-106807000D03*
%TD*%
D19*
%TO.C,D6*%
X180709250Y-82565000D03*
X180709250Y-84465000D03*
X182584251Y-83515000D03*
%TD*%
D20*
%TO.C,F1*%
X128905000Y-95413500D03*
X128905000Y-98388500D03*
%TD*%
D21*
%TO.C,C3*%
X128143000Y-108927500D03*
X128143000Y-112052500D03*
%TD*%
D22*
%TO.C,J2*%
X132638800Y-82253400D03*
X120548400Y-82253400D03*
D23*
X128343602Y-83153400D03*
X124843599Y-83153400D03*
%TD*%
D24*
%TO.C,C54*%
X139864300Y-94361000D03*
X137789300Y-94361000D03*
%TD*%
D25*
%TO.C,U1*%
X142739500Y-99127000D03*
X142739500Y-99527000D03*
X142739500Y-99927000D03*
X142739500Y-100327000D03*
X142739500Y-100727000D03*
X142739500Y-101127000D03*
X142739500Y-101527000D03*
X142739500Y-101927000D03*
X142739500Y-102327000D03*
X142739500Y-102727000D03*
X142739500Y-103127000D03*
X142739500Y-103527000D03*
X142739500Y-103927000D03*
X142739500Y-104327000D03*
D26*
X143577000Y-105164500D03*
X143977000Y-105164500D03*
X144377000Y-105164500D03*
X144777000Y-105164500D03*
X145177000Y-105164500D03*
X145577000Y-105164500D03*
X145977000Y-105164500D03*
X146377000Y-105164500D03*
X146777000Y-105164500D03*
X147177000Y-105164500D03*
X147577000Y-105164500D03*
X147977000Y-105164500D03*
X148377000Y-105164500D03*
X148777000Y-105164500D03*
D25*
X149614500Y-104327000D03*
X149614500Y-103927000D03*
X149614500Y-103527000D03*
X149614500Y-103127000D03*
X149614500Y-102727000D03*
X149614500Y-102327000D03*
X149614500Y-101927000D03*
X149614500Y-101527000D03*
X149614500Y-101127000D03*
X149614500Y-100727000D03*
X149614500Y-100327000D03*
X149614500Y-99927000D03*
X149614500Y-99527000D03*
X149614500Y-99127000D03*
D26*
X148777000Y-98289500D03*
X148377000Y-98289500D03*
X147977000Y-98289500D03*
X147577000Y-98289500D03*
X147177000Y-98289500D03*
X146777000Y-98289500D03*
X146377000Y-98289500D03*
X145977000Y-98289500D03*
X145577000Y-98289500D03*
X145177000Y-98289500D03*
X144777000Y-98289500D03*
X144377000Y-98289500D03*
X143977000Y-98289500D03*
X143577000Y-98289500D03*
D27*
X146177000Y-101727000D03*
%TD*%
D28*
%TO.C,C43*%
X144018000Y-94568100D03*
X144018000Y-96643100D03*
%TD*%
D29*
%TO.C,D5*%
X172898250Y-84465000D03*
X172898250Y-82565000D03*
X171023249Y-83515000D03*
%TD*%
D24*
%TO.C,C47*%
X140991500Y-102743000D03*
X138916500Y-102743000D03*
%TD*%
D30*
%TO.C,J3*%
X183134000Y-79248000D03*
D31*
X185904000Y-79248000D03*
X180364000Y-79248000D03*
%TD*%
D24*
%TO.C,C9*%
X141118500Y-107061000D03*
X139043500Y-107061000D03*
%TD*%
D32*
%TO.C,R20*%
X113427000Y-96901000D03*
X115427000Y-96901000D03*
%TD*%
D33*
%TO.C,H1*%
X114427000Y-117475000D03*
%TD*%
D34*
%TO.C,R1*%
X146431000Y-84725000D03*
X146431000Y-86725000D03*
%TD*%
D35*
%TO.C,U8*%
X137411000Y-96024000D03*
X137411000Y-96524000D03*
X137411000Y-97024000D03*
X137411000Y-97524000D03*
X140211000Y-97524000D03*
X140211000Y-97024000D03*
X140211000Y-96524000D03*
X140211000Y-96024000D03*
D36*
X138811000Y-96774000D03*
%TD*%
D28*
%TO.C,C44*%
X141986000Y-94568100D03*
X141986000Y-96643100D03*
%TD*%
D37*
%TO.C,X2*%
X142839000Y-108548000D03*
X144689000Y-108548000D03*
X144689000Y-107098000D03*
X142839000Y-107098000D03*
%TD*%
D38*
%TO.C,R7*%
X154051000Y-86725000D03*
X154051000Y-84725000D03*
%TD*%
D39*
%TO.C,R5*%
X132953000Y-111506000D03*
X130953000Y-111506000D03*
%TD*%
D38*
%TO.C,R6*%
X148336000Y-86725000D03*
X148336000Y-84725000D03*
%TD*%
D40*
%TO.C,D1*%
X124333000Y-96983000D03*
X124333000Y-88183000D03*
%TD*%
D41*
%TO.C,U4*%
X182753000Y-96520000D03*
X180213000Y-96520001D03*
X177673000Y-96520000D03*
X175133000Y-96520000D03*
X172593000Y-96520000D03*
X170053000Y-96520000D03*
X167513000Y-96520001D03*
X164973000Y-96520000D03*
X167513000Y-118871999D03*
X170053000Y-118872000D03*
X172593000Y-118872000D03*
X175133000Y-118872000D03*
X177673000Y-118872000D03*
X180213000Y-118871999D03*
X182753000Y-118872000D03*
%TD*%
D42*
%TO.C,D2*%
X133220000Y-87503000D03*
X136020000Y-87503000D03*
%TD*%
D43*
%TO.C,C5*%
X130915500Y-97409000D03*
X132990500Y-97409000D03*
%TD*%
D44*
%TO.C,D9*%
X159893000Y-77960002D03*
X159893000Y-80010000D03*
%TD*%
D28*
%TO.C,C1*%
X148844000Y-94568100D03*
X148844000Y-96643100D03*
%TD*%
D45*
%TO.C,BOOT1*%
X114427000Y-104394000D03*
D46*
X112727000Y-104394000D03*
X116127000Y-104394000D03*
%TD*%
D43*
%TO.C,C2*%
X130915500Y-105537000D03*
X132990500Y-105537000D03*
%TD*%
D21*
%TO.C,C4*%
X124841000Y-108927500D03*
X124841000Y-112052500D03*
%TD*%
D43*
%TO.C,C6*%
X130915500Y-107569000D03*
X132990500Y-107569000D03*
%TD*%
%TO.C,C8*%
X130915500Y-101473000D03*
X132990500Y-101473000D03*
%TD*%
D44*
%TO.C,D8*%
X157988000Y-77960002D03*
X157988000Y-80010000D03*
%TD*%
D32*
%TO.C,R3*%
X130953000Y-95377000D03*
X132953000Y-95377000D03*
%TD*%
D24*
%TO.C,C53*%
X139864300Y-92329000D03*
X137789300Y-92329000D03*
%TD*%
D34*
%TO.C,R14*%
X144526000Y-84725000D03*
X144526000Y-86725000D03*
%TD*%
%TO.C,R2*%
X140716000Y-84725000D03*
X140716000Y-86725000D03*
%TD*%
D45*
%TO.C,RESET1*%
X114427000Y-94234000D03*
D46*
X116127001Y-94234000D03*
X112726999Y-94234000D03*
%TD*%
D38*
%TO.C,R9*%
X150241000Y-86725000D03*
X150241000Y-84725000D03*
%TD*%
D33*
%TO.C,H4*%
X189738000Y-79883000D03*
%TD*%
D34*
%TO.C,R12*%
X142621000Y-84725000D03*
X142621000Y-86725000D03*
%TD*%
D33*
%TO.C,H2*%
X114427000Y-79883000D03*
%TD*%
D43*
%TO.C,C7*%
X130915500Y-99441000D03*
X132990500Y-99441000D03*
%TD*%
D44*
%TO.C,D11*%
X156083000Y-77960002D03*
X156083000Y-80010000D03*
%TD*%
D24*
%TO.C,C46*%
X140991500Y-99060000D03*
X138916500Y-99060000D03*
%TD*%
D43*
%TO.C,C48*%
X151235500Y-102743000D03*
X153310500Y-102743000D03*
%TD*%
D18*
%TO.C,C51*%
X146050000Y-96643100D03*
X146050000Y-94568100D03*
%TD*%
D47*
%TO.C,L2*%
X130556000Y-89716999D03*
X130556000Y-93417001D03*
%TD*%
D28*
%TO.C,C45*%
X146431000Y-106807000D03*
X146431000Y-108882000D03*
%TD*%
D44*
%TO.C,D7*%
X152273000Y-77960002D03*
X152273000Y-80010000D03*
%TD*%
D48*
%TO.C,U2*%
X131240500Y-103005000D03*
X131240500Y-103505000D03*
X131240500Y-104005000D03*
X132665500Y-104005000D03*
X132665500Y-103505000D03*
X132665500Y-103005000D03*
%TD*%
D30*
%TO.C,J4*%
X170431250Y-79261500D03*
D31*
X173201250Y-79261500D03*
X167661250Y-79261500D03*
%TD*%
D38*
%TO.C,R10*%
X152146000Y-86725000D03*
X152146000Y-84725000D03*
%TD*%
D49*
%TO.C,J1*%
X146400000Y-81726000D03*
X140620000Y-81726000D03*
D50*
X146710000Y-82801000D03*
X145910000Y-82801000D03*
D51*
X144760000Y-82800999D03*
X143760000Y-82801000D03*
X143260000Y-82801000D03*
X142260000Y-82800999D03*
D50*
X141110000Y-82801000D03*
X140310000Y-82801000D03*
X140310000Y-82801000D03*
X141110000Y-82801000D03*
D51*
X141760000Y-82801000D03*
X142760000Y-82801000D03*
X144260000Y-82801000D03*
X145260000Y-82801000D03*
D50*
X145910000Y-82801000D03*
X146710000Y-82801000D03*
D52*
X147830000Y-82226000D03*
D53*
X147830000Y-78046000D03*
D52*
X139190000Y-82226000D03*
D53*
X139190000Y-78046000D03*
%TD*%
D54*
%TO.C,D3*%
X122174000Y-109240001D03*
X122174000Y-111739999D03*
%TD*%
D38*
%TO.C,R8*%
X155956000Y-86725000D03*
X155956000Y-84725000D03*
%TD*%
D55*
%TO.C,U3*%
X159639000Y-106299000D03*
X159639000Y-103759000D03*
X159639000Y-101219000D03*
X159639000Y-98679000D03*
X159639000Y-96139000D03*
X159639000Y-93599000D03*
X159639000Y-91059000D03*
X159639000Y-88519000D03*
X159639000Y-85979000D03*
X159639000Y-83439000D03*
X118999000Y-106299000D03*
X118999000Y-103759000D03*
X118999000Y-101219000D03*
X118999000Y-98679000D03*
X118999000Y-96139000D03*
X118999000Y-93599000D03*
X118999000Y-91059000D03*
X118999000Y-88519000D03*
X118999000Y-85979000D03*
X126619000Y-118999000D03*
X129159000Y-118999000D03*
X131699000Y-118999000D03*
X134239000Y-118999000D03*
X136779000Y-118999000D03*
X139319000Y-118999000D03*
%TD*%
D56*
%TO.C,D4*%
X131320999Y-87503000D03*
X128521001Y-87503000D03*
%TD*%
D33*
%TO.C,H3*%
X189738000Y-117475000D03*
%TD*%
D32*
%TO.C,R4*%
X130953000Y-109601000D03*
X132953000Y-109601000D03*
%TD*%
D44*
%TO.C,D10*%
X154178000Y-77960002D03*
X154178000Y-80010000D03*
%TD*%
D39*
%TO.C,R21*%
X115427000Y-101727000D03*
X113427000Y-101727000D03*
%TD*%
D43*
%TO.C,C49*%
X151235500Y-98425000D03*
X153310500Y-98425000D03*
%TD*%
D57*
%TO.C,L1*%
X128328000Y-103759000D03*
X122878000Y-103759000D03*
%TD*%
%LPD*%
M02*
