%TF.GenerationSoftware,KiCad,Pcbnew,9.0.2*%
%TF.CreationDate,2025-12-18T01:49:35-05:00*%
%TF.ProjectId,gpsdo,67707364-6f2e-46b6-9963-61645f706362,rev?*%
%TF.SameCoordinates,Original*%
%TF.FileFunction,Soldermask,Top*%
%TF.FilePolarity,Negative*%
%FSLAX46Y46*%
G04 Gerber Fmt 4.6, Leading zero omitted, Abs format (unit mm)*
G04 Created by KiCad (PCBNEW 9.0.2) date 2025-12-18 01:49:35*
%MOMM*%
%LPD*%
G01*
G04 APERTURE LIST*
G04 Aperture macros list*
%AMRoundRect*
0 Rectangle with rounded corners*
0 $1 Rounding radius*
0 $2 $3 $4 $5 $6 $7 $8 $9 X,Y pos of 4 corners*
0 Add a 4 corners polygon primitive as box body*
4,1,4,$2,$3,$4,$5,$6,$7,$8,$9,$2,$3,0*
0 Add four circle primitives for the rounded corners*
1,1,$1+$1,$2,$3*
1,1,$1+$1,$4,$5*
1,1,$1+$1,$6,$7*
1,1,$1+$1,$8,$9*
0 Add four rect primitives between the rounded corners*
20,1,$1+$1,$2,$3,$4,$5,0*
20,1,$1+$1,$4,$5,$6,$7,0*
20,1,$1+$1,$6,$7,$8,$9,0*
20,1,$1+$1,$8,$9,$2,$3,0*%
G04 Aperture macros list end*
%ADD10RoundRect,0.250000X0.475000X-0.337500X0.475000X0.337500X-0.475000X0.337500X-0.475000X-0.337500X0*%
%ADD11RoundRect,0.150000X-0.587500X-0.150000X0.587500X-0.150000X0.587500X0.150000X-0.587500X0.150000X0*%
%ADD12RoundRect,0.250001X-0.624999X0.462499X-0.624999X-0.462499X0.624999X-0.462499X0.624999X0.462499X0*%
%ADD13RoundRect,0.250000X-1.100000X0.412500X-1.100000X-0.412500X1.100000X-0.412500X1.100000X0.412500X0*%
%ADD14C,2.921000*%
%ADD15C,2.540000*%
%ADD16RoundRect,0.250000X0.337500X0.475000X-0.337500X0.475000X-0.337500X-0.475000X0.337500X-0.475000X0*%
%ADD17RoundRect,0.050000X-0.387500X-0.050000X0.387500X-0.050000X0.387500X0.050000X-0.387500X0.050000X0*%
%ADD18RoundRect,0.050000X-0.050000X-0.387500X0.050000X-0.387500X0.050000X0.387500X-0.050000X0.387500X0*%
%ADD19R,3.200000X3.200000*%
%ADD20RoundRect,0.250000X-0.475000X0.337500X-0.475000X-0.337500X0.475000X-0.337500X0.475000X0.337500X0*%
%ADD21RoundRect,0.150000X0.587500X0.150000X-0.587500X0.150000X-0.587500X-0.150000X0.587500X-0.150000X0*%
%ADD22R,0.850000X4.560000*%
%ADD23R,1.000000X4.560000*%
%ADD24RoundRect,0.250000X-0.350000X-0.450000X0.350000X-0.450000X0.350000X0.450000X-0.350000X0.450000X0*%
%ADD25C,5.600000*%
%ADD26RoundRect,0.250000X-0.450000X0.350000X-0.450000X-0.350000X0.450000X-0.350000X0.450000X0.350000X0*%
%ADD27R,0.900000X0.300000*%
%ADD28R,0.250000X1.650000*%
%ADD29RoundRect,0.200000X0.250000X-0.200000X0.250000X0.200000X-0.250000X0.200000X-0.250000X-0.200000X0*%
%ADD30RoundRect,0.250000X0.450000X-0.350000X0.450000X0.350000X-0.450000X0.350000X-0.450000X-0.350000X0*%
%ADD31RoundRect,0.250000X0.350000X0.450000X-0.350000X0.450000X-0.350000X-0.450000X0.350000X-0.450000X0*%
%ADD32RoundRect,0.250000X1.400000X2.000000X-1.400000X2.000000X-1.400000X-2.000000X1.400000X-2.000000X0*%
%ADD33C,1.700000*%
%ADD34RoundRect,0.250000X-0.300000X-0.300000X0.300000X-0.300000X0.300000X0.300000X-0.300000X0.300000X0*%
%ADD35RoundRect,0.250000X-0.337500X-0.475000X0.337500X-0.475000X0.337500X0.475000X-0.337500X0.475000X0*%
%ADD36RoundRect,0.250000X-0.450000X0.325000X-0.450000X-0.325000X0.450000X-0.325000X0.450000X0.325000X0*%
%ADD37C,0.800000*%
%ADD38R,0.900000X1.700000*%
%ADD39RoundRect,0.249999X-1.850001X0.450001X-1.850001X-0.450001X1.850001X-0.450001X1.850001X0.450001X0*%
%ADD40RoundRect,0.087500X-0.250000X-0.087500X0.250000X-0.087500X0.250000X0.087500X-0.250000X0.087500X0*%
%ADD41C,0.650000*%
%ADD42RoundRect,0.150000X0.150000X0.425000X-0.150000X0.425000X-0.150000X-0.425000X0.150000X-0.425000X0*%
%ADD43RoundRect,0.075000X0.075000X0.500000X-0.075000X0.500000X-0.075000X-0.500000X0.075000X-0.500000X0*%
%ADD44O,1.000000X2.100000*%
%ADD45O,1.000000X1.800000*%
%ADD46RoundRect,0.250000X-0.250000X0.250000X-0.250000X-0.250000X0.250000X-0.250000X0.250000X0.250000X0*%
%ADD47C,1.904000*%
%ADD48RoundRect,0.250000X0.300000X0.300000X-0.300000X0.300000X-0.300000X-0.300000X0.300000X-0.300000X0*%
%ADD49R,2.950000X3.500000*%
G04 APERTURE END LIST*
D10*
%TO.C,C52*%
X148463000Y-108882000D03*
X148463000Y-106807000D03*
%TD*%
D11*
%TO.C,D6*%
X180709250Y-82565000D03*
X180709250Y-84465000D03*
X182584251Y-83515000D03*
%TD*%
D12*
%TO.C,F1*%
X128905000Y-95413500D03*
X128905000Y-98388500D03*
%TD*%
D13*
%TO.C,C3*%
X128143000Y-108927500D03*
X128143000Y-112052500D03*
%TD*%
D14*
%TO.C,J2*%
X132638800Y-82253400D03*
X120548400Y-82253400D03*
D15*
X128343602Y-83153400D03*
X124843599Y-83153400D03*
%TD*%
D16*
%TO.C,C54*%
X139864300Y-94361000D03*
X137789300Y-94361000D03*
%TD*%
D17*
%TO.C,U1*%
X142739500Y-99127000D03*
X142739500Y-99527000D03*
X142739500Y-99927000D03*
X142739500Y-100327000D03*
X142739500Y-100727000D03*
X142739500Y-101127000D03*
X142739500Y-101527000D03*
X142739500Y-101927000D03*
X142739500Y-102327000D03*
X142739500Y-102727000D03*
X142739500Y-103127000D03*
X142739500Y-103527000D03*
X142739500Y-103927000D03*
X142739500Y-104327000D03*
D18*
X143577000Y-105164500D03*
X143977000Y-105164500D03*
X144377000Y-105164500D03*
X144777000Y-105164500D03*
X145177000Y-105164500D03*
X145577000Y-105164500D03*
X145977000Y-105164500D03*
X146377000Y-105164500D03*
X146777000Y-105164500D03*
X147177000Y-105164500D03*
X147577000Y-105164500D03*
X147977000Y-105164500D03*
X148377000Y-105164500D03*
X148777000Y-105164500D03*
D17*
X149614500Y-104327000D03*
X149614500Y-103927000D03*
X149614500Y-103527000D03*
X149614500Y-103127000D03*
X149614500Y-102727000D03*
X149614500Y-102327000D03*
X149614500Y-101927000D03*
X149614500Y-101527000D03*
X149614500Y-101127000D03*
X149614500Y-100727000D03*
X149614500Y-100327000D03*
X149614500Y-99927000D03*
X149614500Y-99527000D03*
X149614500Y-99127000D03*
D18*
X148777000Y-98289500D03*
X148377000Y-98289500D03*
X147977000Y-98289500D03*
X147577000Y-98289500D03*
X147177000Y-98289500D03*
X146777000Y-98289500D03*
X146377000Y-98289500D03*
X145977000Y-98289500D03*
X145577000Y-98289500D03*
X145177000Y-98289500D03*
X144777000Y-98289500D03*
X144377000Y-98289500D03*
X143977000Y-98289500D03*
X143577000Y-98289500D03*
D19*
X146177000Y-101727000D03*
%TD*%
D20*
%TO.C,C43*%
X144018000Y-94568100D03*
X144018000Y-96643100D03*
%TD*%
D21*
%TO.C,D5*%
X172898250Y-84465000D03*
X172898250Y-82565000D03*
X171023249Y-83515000D03*
%TD*%
D16*
%TO.C,C47*%
X140991500Y-102743000D03*
X138916500Y-102743000D03*
%TD*%
D22*
%TO.C,J3*%
X183134000Y-79248000D03*
D23*
X185904000Y-79248000D03*
X180364000Y-79248000D03*
%TD*%
D16*
%TO.C,C9*%
X141118500Y-107061000D03*
X139043500Y-107061000D03*
%TD*%
D24*
%TO.C,R20*%
X113427000Y-96901000D03*
X115427000Y-96901000D03*
%TD*%
D25*
%TO.C,H1*%
X114427000Y-117475000D03*
%TD*%
D26*
%TO.C,R1*%
X146431000Y-84725000D03*
X146431000Y-86725000D03*
%TD*%
D27*
%TO.C,U8*%
X137411000Y-96024000D03*
X137411000Y-96524000D03*
X137411000Y-97024000D03*
X137411000Y-97524000D03*
X140211000Y-97524000D03*
X140211000Y-97024000D03*
X140211000Y-96524000D03*
X140211000Y-96024000D03*
D28*
X138811000Y-96774000D03*
%TD*%
D20*
%TO.C,C44*%
X141986000Y-94568100D03*
X141986000Y-96643100D03*
%TD*%
D29*
%TO.C,X2*%
X142839000Y-108548000D03*
X144689000Y-108548000D03*
X144689000Y-107098000D03*
X142839000Y-107098000D03*
%TD*%
D30*
%TO.C,R7*%
X154051000Y-86725000D03*
X154051000Y-84725000D03*
%TD*%
D31*
%TO.C,R5*%
X132953000Y-111506000D03*
X130953000Y-111506000D03*
%TD*%
D30*
%TO.C,R6*%
X148336000Y-86725000D03*
X148336000Y-84725000D03*
%TD*%
D32*
%TO.C,D1*%
X124333000Y-96983000D03*
X124333000Y-88183000D03*
%TD*%
D33*
%TO.C,U4*%
X182753000Y-96520000D03*
X180213000Y-96520001D03*
X177673000Y-96520000D03*
X175133000Y-96520000D03*
X172593000Y-96520000D03*
X170053000Y-96520000D03*
X167513000Y-96520001D03*
X164973000Y-96520000D03*
X167513000Y-118871999D03*
X170053000Y-118872000D03*
X172593000Y-118872000D03*
X175133000Y-118872000D03*
X177673000Y-118872000D03*
X180213000Y-118871999D03*
X182753000Y-118872000D03*
%TD*%
D34*
%TO.C,D2*%
X133220000Y-87503000D03*
X136020000Y-87503000D03*
%TD*%
D35*
%TO.C,C5*%
X130915500Y-97409000D03*
X132990500Y-97409000D03*
%TD*%
D36*
%TO.C,D9*%
X159893000Y-77960002D03*
X159893000Y-80010000D03*
%TD*%
D20*
%TO.C,C1*%
X148844000Y-94568100D03*
X148844000Y-96643100D03*
%TD*%
D37*
%TO.C,BOOT1*%
X114427000Y-104394000D03*
D38*
X112727000Y-104394000D03*
X116127000Y-104394000D03*
%TD*%
D35*
%TO.C,C2*%
X130915500Y-105537000D03*
X132990500Y-105537000D03*
%TD*%
D13*
%TO.C,C4*%
X124841000Y-108927500D03*
X124841000Y-112052500D03*
%TD*%
D35*
%TO.C,C6*%
X130915500Y-107569000D03*
X132990500Y-107569000D03*
%TD*%
%TO.C,C8*%
X130915500Y-101473000D03*
X132990500Y-101473000D03*
%TD*%
D36*
%TO.C,D8*%
X157988000Y-77960002D03*
X157988000Y-80010000D03*
%TD*%
D24*
%TO.C,R3*%
X130953000Y-95377000D03*
X132953000Y-95377000D03*
%TD*%
D16*
%TO.C,C53*%
X139864300Y-92329000D03*
X137789300Y-92329000D03*
%TD*%
D26*
%TO.C,R14*%
X144526000Y-84725000D03*
X144526000Y-86725000D03*
%TD*%
%TO.C,R2*%
X140716000Y-84725000D03*
X140716000Y-86725000D03*
%TD*%
D37*
%TO.C,RESET1*%
X114427000Y-94234000D03*
D38*
X116127001Y-94234000D03*
X112726999Y-94234000D03*
%TD*%
D30*
%TO.C,R9*%
X150241000Y-86725000D03*
X150241000Y-84725000D03*
%TD*%
D25*
%TO.C,H4*%
X189738000Y-79883000D03*
%TD*%
D26*
%TO.C,R12*%
X142621000Y-84725000D03*
X142621000Y-86725000D03*
%TD*%
D25*
%TO.C,H2*%
X114427000Y-79883000D03*
%TD*%
D35*
%TO.C,C7*%
X130915500Y-99441000D03*
X132990500Y-99441000D03*
%TD*%
D36*
%TO.C,D11*%
X156083000Y-77960002D03*
X156083000Y-80010000D03*
%TD*%
D16*
%TO.C,C46*%
X140991500Y-99060000D03*
X138916500Y-99060000D03*
%TD*%
D35*
%TO.C,C48*%
X151235500Y-102743000D03*
X153310500Y-102743000D03*
%TD*%
D10*
%TO.C,C51*%
X146050000Y-96643100D03*
X146050000Y-94568100D03*
%TD*%
D39*
%TO.C,L2*%
X130556000Y-89716999D03*
X130556000Y-93417001D03*
%TD*%
D20*
%TO.C,C45*%
X146431000Y-106807000D03*
X146431000Y-108882000D03*
%TD*%
D36*
%TO.C,D7*%
X152273000Y-77960002D03*
X152273000Y-80010000D03*
%TD*%
D40*
%TO.C,U2*%
X131240500Y-103005000D03*
X131240500Y-103505000D03*
X131240500Y-104005000D03*
X132665500Y-104005000D03*
X132665500Y-103505000D03*
X132665500Y-103005000D03*
%TD*%
D22*
%TO.C,J4*%
X170431250Y-79261500D03*
D23*
X173201250Y-79261500D03*
X167661250Y-79261500D03*
%TD*%
D30*
%TO.C,R10*%
X152146000Y-86725000D03*
X152146000Y-84725000D03*
%TD*%
D41*
%TO.C,J1*%
X146400000Y-81726000D03*
X140620000Y-81726000D03*
D42*
X146710000Y-82801000D03*
X145910000Y-82801000D03*
D43*
X144760000Y-82800999D03*
X143760000Y-82801000D03*
X143260000Y-82801000D03*
X142260000Y-82800999D03*
D42*
X141110000Y-82801000D03*
X140310000Y-82801000D03*
X140310000Y-82801000D03*
X141110000Y-82801000D03*
D43*
X141760000Y-82801000D03*
X142760000Y-82801000D03*
X144260000Y-82801000D03*
X145260000Y-82801000D03*
D42*
X145910000Y-82801000D03*
X146710000Y-82801000D03*
D44*
X147830000Y-82226000D03*
D45*
X147830000Y-78046000D03*
D44*
X139190000Y-82226000D03*
D45*
X139190000Y-78046000D03*
%TD*%
D46*
%TO.C,D3*%
X122174000Y-109240001D03*
X122174000Y-111739999D03*
%TD*%
D30*
%TO.C,R8*%
X155956000Y-86725000D03*
X155956000Y-84725000D03*
%TD*%
D47*
%TO.C,U3*%
X159639000Y-106299000D03*
X159639000Y-103759000D03*
X159639000Y-101219000D03*
X159639000Y-98679000D03*
X159639000Y-96139000D03*
X159639000Y-93599000D03*
X159639000Y-91059000D03*
X159639000Y-88519000D03*
X159639000Y-85979000D03*
X159639000Y-83439000D03*
X118999000Y-106299000D03*
X118999000Y-103759000D03*
X118999000Y-101219000D03*
X118999000Y-98679000D03*
X118999000Y-96139000D03*
X118999000Y-93599000D03*
X118999000Y-91059000D03*
X118999000Y-88519000D03*
X118999000Y-85979000D03*
X126619000Y-118999000D03*
X129159000Y-118999000D03*
X131699000Y-118999000D03*
X134239000Y-118999000D03*
X136779000Y-118999000D03*
X139319000Y-118999000D03*
%TD*%
D48*
%TO.C,D4*%
X131320999Y-87503000D03*
X128521001Y-87503000D03*
%TD*%
D25*
%TO.C,H3*%
X189738000Y-117475000D03*
%TD*%
D24*
%TO.C,R4*%
X130953000Y-109601000D03*
X132953000Y-109601000D03*
%TD*%
D36*
%TO.C,D10*%
X154178000Y-77960002D03*
X154178000Y-80010000D03*
%TD*%
D31*
%TO.C,R21*%
X115427000Y-101727000D03*
X113427000Y-101727000D03*
%TD*%
D35*
%TO.C,C49*%
X151235500Y-98425000D03*
X153310500Y-98425000D03*
%TD*%
D49*
%TO.C,L1*%
X128328000Y-103759000D03*
X122878000Y-103759000D03*
%TD*%
M02*
